G04 #@! TF.GenerationSoftware,KiCad,Pcbnew,(5.1.4)-1*
G04 #@! TF.CreationDate,2019-10-23T12:43:35-04:00*
G04 #@! TF.ProjectId,RepeatGame,52657065-6174-4476-916d-652e6b696361,A*
G04 #@! TF.SameCoordinates,Original*
G04 #@! TF.FileFunction,Copper,L2,Bot*
G04 #@! TF.FilePolarity,Positive*
%FSLAX46Y46*%
G04 Gerber Fmt 4.6, Leading zero omitted, Abs format (unit mm)*
G04 Created by KiCad (PCBNEW (5.1.4)-1) date 2019-10-23 12:43:35*
%MOMM*%
%LPD*%
G04 APERTURE LIST*
%ADD10O,3.500000X2.200000*%
%ADD11O,2.500000X1.500000*%
%ADD12R,2.500000X1.500000*%
%ADD13C,2.000000*%
%ADD14O,1.700000X1.700000*%
%ADD15R,1.700000X1.700000*%
%ADD16C,1.500000*%
%ADD17C,0.800000*%
%ADD18C,0.600000*%
%ADD19C,0.300000*%
%ADD20C,0.150000*%
G04 APERTURE END LIST*
D10*
X172500000Y-65900000D03*
X172500000Y-74100000D03*
D11*
X172500000Y-68000000D03*
X172500000Y-70000000D03*
D12*
X172500000Y-72000000D03*
D13*
X111496194Y-98096194D03*
X108314214Y-101278175D03*
X106900000Y-93500000D03*
X103718019Y-96681981D03*
X106903806Y-46496194D03*
X103721825Y-43314214D03*
X111500000Y-41900000D03*
X108318019Y-38718019D03*
X158503806Y-41903806D03*
X161685786Y-38721825D03*
X163100000Y-46500000D03*
X166281981Y-43318019D03*
X163096194Y-93503806D03*
X166278175Y-96685786D03*
X158500000Y-98100000D03*
X161681981Y-101281981D03*
D14*
X167000000Y-68460000D03*
D15*
X167000000Y-71000000D03*
D16*
X118500000Y-72380000D03*
X118500000Y-67500000D03*
D14*
X133735000Y-55000000D03*
D15*
X136275000Y-55000000D03*
D17*
X128400000Y-75900000D03*
X128400000Y-67200000D03*
X150100000Y-68900000D03*
X150900000Y-68100000D03*
X140800000Y-72800000D03*
X142000000Y-78200000D03*
X137100000Y-69600000D03*
X132500000Y-71300000D03*
X132000000Y-64000000D03*
X132000000Y-62000000D03*
X137700000Y-75700000D03*
X141700000Y-75600000D03*
X139900000Y-75900000D03*
X129700000Y-74400000D03*
X126700000Y-74900000D03*
X122200000Y-72600000D03*
X149800000Y-72000000D03*
D18*
X131000000Y-76100000D03*
X134600000Y-67600000D03*
X142500000Y-74600000D03*
X141000000Y-68000000D03*
X137000000Y-63800000D03*
D19*
X128400000Y-74662004D02*
X128500001Y-74562003D01*
X128400000Y-75900000D02*
X128400000Y-74662004D01*
X128500001Y-74562003D02*
X128400000Y-74462002D01*
X128400000Y-74462002D02*
X128400000Y-67200000D01*
X151900000Y-67100000D02*
X150100000Y-68900000D01*
X167900000Y-67100000D02*
X151900000Y-67100000D01*
X172500000Y-68000000D02*
X168800000Y-68000000D01*
X168800000Y-68000000D02*
X167900000Y-67100000D01*
X140800000Y-72800000D02*
X140800000Y-77000000D01*
X140800000Y-77000000D02*
X142000000Y-78200000D01*
X132137998Y-78200000D02*
X142000000Y-78200000D01*
X128500001Y-74562003D02*
X132137998Y-78200000D01*
X134200000Y-69600000D02*
X137100000Y-69600000D01*
X132500000Y-71300000D02*
X134200000Y-69600000D01*
X137100000Y-69600000D02*
X138710002Y-69600000D01*
X138710002Y-69600000D02*
X141700000Y-72589998D01*
X141700000Y-72589998D02*
X141700000Y-75600000D01*
X150800000Y-71000000D02*
X150199999Y-71600001D01*
X150199999Y-71600001D02*
X149800000Y-72000000D01*
X167000000Y-71000000D02*
X150800000Y-71000000D01*
D20*
X131000000Y-76100000D02*
X131000000Y-71200000D01*
X131000000Y-71200000D02*
X134600000Y-67600000D01*
X139600000Y-67600000D02*
X134600000Y-67600000D01*
X142500000Y-74600000D02*
X142500000Y-70500000D01*
X142500000Y-70500000D02*
X139600000Y-67600000D01*
X166278175Y-96685786D02*
X166278175Y-93278175D01*
X166278175Y-93278175D02*
X141000000Y-68000000D01*
X136575736Y-63800000D02*
X137000000Y-63800000D01*
X135825736Y-63050000D02*
X136575736Y-63800000D01*
X130250000Y-63050000D02*
X135825736Y-63050000D01*
X103718019Y-96681981D02*
X103718019Y-89581981D01*
X103718019Y-89581981D02*
X130250000Y-63050000D01*
G36*
X165285393Y-30378036D02*
G01*
X166552179Y-30609393D01*
X167781991Y-30991260D01*
X168957017Y-31518106D01*
X170060240Y-32182300D01*
X171075674Y-32974217D01*
X171988621Y-33882396D01*
X172785852Y-34893679D01*
X173455810Y-35993405D01*
X173988804Y-37165663D01*
X174377102Y-38393451D01*
X174615087Y-39658997D01*
X174699875Y-40952622D01*
X174700001Y-41000786D01*
X174700000Y-98990971D01*
X174621964Y-100285393D01*
X174390607Y-101552182D01*
X174008740Y-102781991D01*
X173481896Y-103957014D01*
X172817704Y-105060235D01*
X172025783Y-106075674D01*
X171117600Y-106988624D01*
X170106324Y-107785849D01*
X169006601Y-108455808D01*
X167834337Y-108988804D01*
X166606549Y-109377102D01*
X165341002Y-109615087D01*
X164047378Y-109699875D01*
X163999594Y-109700000D01*
X106009029Y-109700000D01*
X104714607Y-109621964D01*
X103447818Y-109390607D01*
X102218009Y-109008740D01*
X101042986Y-108481896D01*
X99939765Y-107817704D01*
X98924326Y-107025783D01*
X98011376Y-106117600D01*
X97214151Y-105106324D01*
X96544192Y-104006601D01*
X96011196Y-102834337D01*
X95622898Y-101606549D01*
X95537533Y-101152598D01*
X107039214Y-101152598D01*
X107039214Y-101403752D01*
X107088212Y-101650079D01*
X107184324Y-101882114D01*
X107323857Y-102090940D01*
X107501449Y-102268532D01*
X107710275Y-102408065D01*
X107942310Y-102504177D01*
X108188637Y-102553175D01*
X108439791Y-102553175D01*
X108686118Y-102504177D01*
X108918153Y-102408065D01*
X109126979Y-102268532D01*
X109304571Y-102090940D01*
X109444104Y-101882114D01*
X109540216Y-101650079D01*
X109589214Y-101403752D01*
X109589214Y-101156404D01*
X160406981Y-101156404D01*
X160406981Y-101407558D01*
X160455979Y-101653885D01*
X160552091Y-101885920D01*
X160691624Y-102094746D01*
X160869216Y-102272338D01*
X161078042Y-102411871D01*
X161310077Y-102507983D01*
X161556404Y-102556981D01*
X161807558Y-102556981D01*
X162053885Y-102507983D01*
X162285920Y-102411871D01*
X162494746Y-102272338D01*
X162672338Y-102094746D01*
X162811871Y-101885920D01*
X162907983Y-101653885D01*
X162956981Y-101407558D01*
X162956981Y-101156404D01*
X162907983Y-100910077D01*
X162811871Y-100678042D01*
X162672338Y-100469216D01*
X162494746Y-100291624D01*
X162285920Y-100152091D01*
X162053885Y-100055979D01*
X161807558Y-100006981D01*
X161556404Y-100006981D01*
X161310077Y-100055979D01*
X161078042Y-100152091D01*
X160869216Y-100291624D01*
X160691624Y-100469216D01*
X160552091Y-100678042D01*
X160455979Y-100910077D01*
X160406981Y-101156404D01*
X109589214Y-101156404D01*
X109589214Y-101152598D01*
X109540216Y-100906271D01*
X109444104Y-100674236D01*
X109304571Y-100465410D01*
X109126979Y-100287818D01*
X108918153Y-100148285D01*
X108686118Y-100052173D01*
X108439791Y-100003175D01*
X108188637Y-100003175D01*
X107942310Y-100052173D01*
X107710275Y-100148285D01*
X107501449Y-100287818D01*
X107323857Y-100465410D01*
X107184324Y-100674236D01*
X107088212Y-100906271D01*
X107039214Y-101152598D01*
X95537533Y-101152598D01*
X95384913Y-100341002D01*
X95300125Y-99047378D01*
X95300000Y-98999594D01*
X95300000Y-98386090D01*
X110145296Y-98386090D01*
X110227809Y-98644067D01*
X110359065Y-98880989D01*
X110534021Y-99087752D01*
X110745952Y-99256410D01*
X110986715Y-99380482D01*
X111206298Y-99447092D01*
X111421194Y-99381911D01*
X111421194Y-98171194D01*
X111571194Y-98171194D01*
X111571194Y-99381911D01*
X111786090Y-99447092D01*
X112044067Y-99364579D01*
X112280989Y-99233323D01*
X112487752Y-99058367D01*
X112656410Y-98846436D01*
X112780482Y-98605673D01*
X112845937Y-98389896D01*
X157149102Y-98389896D01*
X157231615Y-98647873D01*
X157362871Y-98884795D01*
X157537827Y-99091558D01*
X157749758Y-99260216D01*
X157990521Y-99384288D01*
X158210104Y-99450898D01*
X158425000Y-99385717D01*
X158425000Y-98175000D01*
X158575000Y-98175000D01*
X158575000Y-99385717D01*
X158789896Y-99450898D01*
X159047873Y-99368385D01*
X159284795Y-99237129D01*
X159491558Y-99062173D01*
X159660216Y-98850242D01*
X159784288Y-98609479D01*
X159850898Y-98389896D01*
X159785717Y-98175000D01*
X158575000Y-98175000D01*
X158425000Y-98175000D01*
X157214283Y-98175000D01*
X157149102Y-98389896D01*
X112845937Y-98389896D01*
X112847092Y-98386090D01*
X112781911Y-98171194D01*
X111571194Y-98171194D01*
X111421194Y-98171194D01*
X110210477Y-98171194D01*
X110145296Y-98386090D01*
X95300000Y-98386090D01*
X95300000Y-96556404D01*
X102443019Y-96556404D01*
X102443019Y-96807558D01*
X102492017Y-97053885D01*
X102588129Y-97285920D01*
X102727662Y-97494746D01*
X102905254Y-97672338D01*
X103114080Y-97811871D01*
X103346115Y-97907983D01*
X103592442Y-97956981D01*
X103843596Y-97956981D01*
X104089923Y-97907983D01*
X104321958Y-97811871D01*
X104330298Y-97806298D01*
X110145296Y-97806298D01*
X110210477Y-98021194D01*
X111421194Y-98021194D01*
X111421194Y-96810477D01*
X111571194Y-96810477D01*
X111571194Y-98021194D01*
X112781911Y-98021194D01*
X112845937Y-97810104D01*
X157149102Y-97810104D01*
X157214283Y-98025000D01*
X158425000Y-98025000D01*
X158425000Y-96814283D01*
X158575000Y-96814283D01*
X158575000Y-98025000D01*
X159785717Y-98025000D01*
X159850898Y-97810104D01*
X159768385Y-97552127D01*
X159637129Y-97315205D01*
X159462173Y-97108442D01*
X159250242Y-96939784D01*
X159009479Y-96815712D01*
X158789896Y-96749102D01*
X158575000Y-96814283D01*
X158425000Y-96814283D01*
X158210104Y-96749102D01*
X157952127Y-96831615D01*
X157715205Y-96962871D01*
X157508442Y-97137827D01*
X157339784Y-97349758D01*
X157215712Y-97590521D01*
X157149102Y-97810104D01*
X112845937Y-97810104D01*
X112847092Y-97806298D01*
X112764579Y-97548321D01*
X112633323Y-97311399D01*
X112458367Y-97104636D01*
X112246436Y-96935978D01*
X112005673Y-96811906D01*
X111786090Y-96745296D01*
X111571194Y-96810477D01*
X111421194Y-96810477D01*
X111206298Y-96745296D01*
X110948321Y-96827809D01*
X110711399Y-96959065D01*
X110504636Y-97134021D01*
X110335978Y-97345952D01*
X110211906Y-97586715D01*
X110145296Y-97806298D01*
X104330298Y-97806298D01*
X104530784Y-97672338D01*
X104708376Y-97494746D01*
X104847909Y-97285920D01*
X104944021Y-97053885D01*
X104993019Y-96807558D01*
X104993019Y-96556404D01*
X104944021Y-96310077D01*
X104847909Y-96078042D01*
X104708376Y-95869216D01*
X104530784Y-95691624D01*
X104321958Y-95552091D01*
X104089923Y-95455979D01*
X104068019Y-95451622D01*
X104068019Y-93789896D01*
X105549102Y-93789896D01*
X105631615Y-94047873D01*
X105762871Y-94284795D01*
X105937827Y-94491558D01*
X106149758Y-94660216D01*
X106390521Y-94784288D01*
X106610104Y-94850898D01*
X106825000Y-94785717D01*
X106825000Y-93575000D01*
X106975000Y-93575000D01*
X106975000Y-94785717D01*
X107189896Y-94850898D01*
X107447873Y-94768385D01*
X107684795Y-94637129D01*
X107891558Y-94462173D01*
X108060216Y-94250242D01*
X108184288Y-94009479D01*
X108249743Y-93793702D01*
X161745296Y-93793702D01*
X161827809Y-94051679D01*
X161959065Y-94288601D01*
X162134021Y-94495364D01*
X162345952Y-94664022D01*
X162586715Y-94788094D01*
X162806298Y-94854704D01*
X163021194Y-94789523D01*
X163021194Y-93578806D01*
X163171194Y-93578806D01*
X163171194Y-94789523D01*
X163386090Y-94854704D01*
X163644067Y-94772191D01*
X163880989Y-94640935D01*
X164087752Y-94465979D01*
X164256410Y-94254048D01*
X164380482Y-94013285D01*
X164447092Y-93793702D01*
X164381911Y-93578806D01*
X163171194Y-93578806D01*
X163021194Y-93578806D01*
X161810477Y-93578806D01*
X161745296Y-93793702D01*
X108249743Y-93793702D01*
X108250898Y-93789896D01*
X108185717Y-93575000D01*
X106975000Y-93575000D01*
X106825000Y-93575000D01*
X105614283Y-93575000D01*
X105549102Y-93789896D01*
X104068019Y-93789896D01*
X104068019Y-93210104D01*
X105549102Y-93210104D01*
X105614283Y-93425000D01*
X106825000Y-93425000D01*
X106825000Y-92214283D01*
X106975000Y-92214283D01*
X106975000Y-93425000D01*
X108185717Y-93425000D01*
X108249743Y-93213910D01*
X161745296Y-93213910D01*
X161810477Y-93428806D01*
X163021194Y-93428806D01*
X163021194Y-92218089D01*
X163171194Y-92218089D01*
X163171194Y-93428806D01*
X164381911Y-93428806D01*
X164447092Y-93213910D01*
X164364579Y-92955933D01*
X164233323Y-92719011D01*
X164058367Y-92512248D01*
X163846436Y-92343590D01*
X163605673Y-92219518D01*
X163386090Y-92152908D01*
X163171194Y-92218089D01*
X163021194Y-92218089D01*
X162806298Y-92152908D01*
X162548321Y-92235421D01*
X162311399Y-92366677D01*
X162104636Y-92541633D01*
X161935978Y-92753564D01*
X161811906Y-92994327D01*
X161745296Y-93213910D01*
X108249743Y-93213910D01*
X108250898Y-93210104D01*
X108168385Y-92952127D01*
X108037129Y-92715205D01*
X107862173Y-92508442D01*
X107650242Y-92339784D01*
X107409479Y-92215712D01*
X107189896Y-92149102D01*
X106975000Y-92214283D01*
X106825000Y-92214283D01*
X106610104Y-92149102D01*
X106352127Y-92231615D01*
X106115205Y-92362871D01*
X105908442Y-92537827D01*
X105739784Y-92749758D01*
X105615712Y-92990521D01*
X105549102Y-93210104D01*
X104068019Y-93210104D01*
X104068019Y-89726954D01*
X113130841Y-80664132D01*
X143529700Y-80664132D01*
X143529700Y-80815868D01*
X143559302Y-80964688D01*
X143617369Y-81104874D01*
X143701669Y-81231038D01*
X143808962Y-81338331D01*
X143935126Y-81422631D01*
X144075312Y-81480698D01*
X144224132Y-81510300D01*
X144375868Y-81510300D01*
X144524688Y-81480698D01*
X144664874Y-81422631D01*
X144791038Y-81338331D01*
X144898331Y-81231038D01*
X144982631Y-81104874D01*
X145040698Y-80964688D01*
X145070300Y-80815868D01*
X145070300Y-80664132D01*
X145040698Y-80515312D01*
X144982631Y-80375126D01*
X144898331Y-80248962D01*
X144791038Y-80141669D01*
X144664874Y-80057369D01*
X144524688Y-79999302D01*
X144375868Y-79969700D01*
X144224132Y-79969700D01*
X144075312Y-79999302D01*
X143935126Y-80057369D01*
X143808962Y-80141669D01*
X143701669Y-80248962D01*
X143617369Y-80375126D01*
X143559302Y-80515312D01*
X143529700Y-80664132D01*
X113130841Y-80664132D01*
X126661456Y-67133518D01*
X127725000Y-67133518D01*
X127725000Y-67266482D01*
X127750940Y-67396890D01*
X127801823Y-67519732D01*
X127875693Y-67630287D01*
X127969713Y-67724307D01*
X127975001Y-67727840D01*
X127975000Y-74441135D01*
X127972945Y-74462002D01*
X127975000Y-74482869D01*
X127975000Y-74482875D01*
X127981150Y-74545315D01*
X127986212Y-74562003D01*
X127981150Y-74578690D01*
X127972945Y-74662004D01*
X127975001Y-74682880D01*
X127975000Y-75372160D01*
X127969713Y-75375693D01*
X127875693Y-75469713D01*
X127801823Y-75580268D01*
X127750940Y-75703110D01*
X127725000Y-75833518D01*
X127725000Y-75966482D01*
X127750940Y-76096890D01*
X127801823Y-76219732D01*
X127875693Y-76330287D01*
X127969713Y-76424307D01*
X128080268Y-76498177D01*
X128203110Y-76549060D01*
X128333518Y-76575000D01*
X128466482Y-76575000D01*
X128596890Y-76549060D01*
X128719732Y-76498177D01*
X128830287Y-76424307D01*
X128924307Y-76330287D01*
X128998177Y-76219732D01*
X129049060Y-76096890D01*
X129075000Y-75966482D01*
X129075000Y-75833518D01*
X129051293Y-75714335D01*
X131822719Y-78485762D01*
X131836024Y-78501974D01*
X131900738Y-78555084D01*
X131948853Y-78580801D01*
X131974570Y-78594548D01*
X132054684Y-78618850D01*
X132117124Y-78625000D01*
X132117131Y-78625000D01*
X132137998Y-78627055D01*
X132158865Y-78625000D01*
X141472160Y-78625000D01*
X141475693Y-78630287D01*
X141569713Y-78724307D01*
X141680268Y-78798177D01*
X141803110Y-78849060D01*
X141933518Y-78875000D01*
X142066482Y-78875000D01*
X142196890Y-78849060D01*
X142319732Y-78798177D01*
X142430287Y-78724307D01*
X142524307Y-78630287D01*
X142598177Y-78519732D01*
X142649060Y-78396890D01*
X142675000Y-78266482D01*
X142675000Y-78133518D01*
X142649060Y-78003110D01*
X142598177Y-77880268D01*
X142524307Y-77769713D01*
X142430287Y-77675693D01*
X142319732Y-77601823D01*
X142196890Y-77550940D01*
X142066482Y-77525000D01*
X141933518Y-77525000D01*
X141927281Y-77526241D01*
X141225000Y-76823960D01*
X141225000Y-73327840D01*
X141230287Y-73324307D01*
X141324307Y-73230287D01*
X141398177Y-73119732D01*
X141449060Y-72996890D01*
X141475000Y-72866482D01*
X141475000Y-72733518D01*
X141449060Y-72603110D01*
X141398177Y-72480268D01*
X141324307Y-72369713D01*
X141230287Y-72275693D01*
X141119732Y-72201823D01*
X140996890Y-72150940D01*
X140866482Y-72125000D01*
X140733518Y-72125000D01*
X140603110Y-72150940D01*
X140480268Y-72201823D01*
X140369713Y-72275693D01*
X140275693Y-72369713D01*
X140201823Y-72480268D01*
X140150940Y-72603110D01*
X140125000Y-72733518D01*
X140125000Y-72866482D01*
X140150940Y-72996890D01*
X140201823Y-73119732D01*
X140275693Y-73230287D01*
X140369713Y-73324307D01*
X140375000Y-73327840D01*
X140375001Y-76979123D01*
X140372945Y-77000000D01*
X140381150Y-77083314D01*
X140405453Y-77163427D01*
X140444917Y-77237260D01*
X140498027Y-77301974D01*
X140514239Y-77315279D01*
X140973960Y-77775000D01*
X132314039Y-77775000D01*
X131184848Y-76645809D01*
X131272365Y-76609558D01*
X131366541Y-76546632D01*
X131446632Y-76466541D01*
X131509558Y-76372365D01*
X131552903Y-76267721D01*
X131575000Y-76156633D01*
X131575000Y-76043367D01*
X131552903Y-75932279D01*
X131509558Y-75827635D01*
X131446632Y-75733459D01*
X131366541Y-75653368D01*
X131350000Y-75642316D01*
X131350000Y-71344973D01*
X134523855Y-68171119D01*
X134543367Y-68175000D01*
X134656633Y-68175000D01*
X134767721Y-68152903D01*
X134872365Y-68109558D01*
X134966541Y-68046632D01*
X135046632Y-67966541D01*
X135057684Y-67950000D01*
X139455027Y-67950000D01*
X142150001Y-70644976D01*
X142150000Y-74142316D01*
X142133459Y-74153368D01*
X142053368Y-74233459D01*
X141990442Y-74327635D01*
X141947097Y-74432279D01*
X141925000Y-74543367D01*
X141925000Y-74656633D01*
X141947097Y-74767721D01*
X141990442Y-74872365D01*
X142053368Y-74966541D01*
X142133459Y-75046632D01*
X142227635Y-75109558D01*
X142332279Y-75152903D01*
X142443367Y-75175000D01*
X142556633Y-75175000D01*
X142667721Y-75152903D01*
X142725775Y-75128856D01*
X142685669Y-75168962D01*
X142601369Y-75295126D01*
X142543302Y-75435312D01*
X142513700Y-75584132D01*
X142513700Y-75735868D01*
X142543302Y-75884688D01*
X142601369Y-76024874D01*
X142685669Y-76151038D01*
X142792962Y-76258331D01*
X142919126Y-76342631D01*
X143059312Y-76400698D01*
X143208132Y-76430300D01*
X143359868Y-76430300D01*
X143508688Y-76400698D01*
X143648874Y-76342631D01*
X143775038Y-76258331D01*
X143882331Y-76151038D01*
X143966631Y-76024874D01*
X144024698Y-75884688D01*
X144054300Y-75735868D01*
X144054300Y-75584132D01*
X144545700Y-75584132D01*
X144545700Y-75735868D01*
X144575302Y-75884688D01*
X144633369Y-76024874D01*
X144717669Y-76151038D01*
X144824962Y-76258331D01*
X144951126Y-76342631D01*
X145091312Y-76400698D01*
X145240132Y-76430300D01*
X145391868Y-76430300D01*
X145540688Y-76400698D01*
X145680874Y-76342631D01*
X145807038Y-76258331D01*
X145914331Y-76151038D01*
X145998631Y-76024874D01*
X146056698Y-75884688D01*
X146086300Y-75735868D01*
X146086300Y-75584132D01*
X146056698Y-75435312D01*
X145998631Y-75295126D01*
X145914331Y-75168962D01*
X145807038Y-75061669D01*
X145680874Y-74977369D01*
X145540688Y-74919302D01*
X145391868Y-74889700D01*
X145240132Y-74889700D01*
X145091312Y-74919302D01*
X144951126Y-74977369D01*
X144824962Y-75061669D01*
X144717669Y-75168962D01*
X144633369Y-75295126D01*
X144575302Y-75435312D01*
X144545700Y-75584132D01*
X144054300Y-75584132D01*
X144024698Y-75435312D01*
X143966631Y-75295126D01*
X143882331Y-75168962D01*
X143775038Y-75061669D01*
X143648874Y-74977369D01*
X143508688Y-74919302D01*
X143359868Y-74889700D01*
X143208132Y-74889700D01*
X143059312Y-74919302D01*
X142947154Y-74965759D01*
X143009558Y-74872365D01*
X143052903Y-74767721D01*
X143075000Y-74656633D01*
X143075000Y-74543367D01*
X143052903Y-74432279D01*
X143009558Y-74327635D01*
X142946632Y-74233459D01*
X142866541Y-74153368D01*
X142850000Y-74142316D01*
X142850000Y-70517185D01*
X142851693Y-70499999D01*
X142850000Y-70482811D01*
X142844935Y-70431388D01*
X142824922Y-70365413D01*
X142792422Y-70304610D01*
X142748685Y-70251315D01*
X142735330Y-70240356D01*
X141067760Y-68572787D01*
X141076146Y-68571119D01*
X165928176Y-93423150D01*
X165928175Y-95455427D01*
X165906271Y-95459784D01*
X165674236Y-95555896D01*
X165465410Y-95695429D01*
X165287818Y-95873021D01*
X165148285Y-96081847D01*
X165052173Y-96313882D01*
X165003175Y-96560209D01*
X165003175Y-96811363D01*
X165052173Y-97057690D01*
X165148285Y-97289725D01*
X165287818Y-97498551D01*
X165465410Y-97676143D01*
X165674236Y-97815676D01*
X165906271Y-97911788D01*
X166152598Y-97960786D01*
X166403752Y-97960786D01*
X166650079Y-97911788D01*
X166882114Y-97815676D01*
X167090940Y-97676143D01*
X167268532Y-97498551D01*
X167408065Y-97289725D01*
X167504177Y-97057690D01*
X167553175Y-96811363D01*
X167553175Y-96560209D01*
X167504177Y-96313882D01*
X167408065Y-96081847D01*
X167268532Y-95873021D01*
X167090940Y-95695429D01*
X166882114Y-95555896D01*
X166650079Y-95459784D01*
X166628175Y-95455427D01*
X166628175Y-93295364D01*
X166629868Y-93278175D01*
X166623110Y-93209563D01*
X166603097Y-93143588D01*
X166570597Y-93082785D01*
X166526860Y-93029490D01*
X166513500Y-93018526D01*
X145344974Y-71850000D01*
X165773186Y-71850000D01*
X165780426Y-71923513D01*
X165801869Y-71994200D01*
X165836691Y-72059347D01*
X165883552Y-72116448D01*
X165940653Y-72163309D01*
X166005800Y-72198131D01*
X166076487Y-72219574D01*
X166150000Y-72226814D01*
X166831250Y-72225000D01*
X166925000Y-72131250D01*
X166925000Y-71075000D01*
X167075000Y-71075000D01*
X167075000Y-72131250D01*
X167168750Y-72225000D01*
X167850000Y-72226814D01*
X167923513Y-72219574D01*
X167994200Y-72198131D01*
X168059347Y-72163309D01*
X168116448Y-72116448D01*
X168163309Y-72059347D01*
X168198131Y-71994200D01*
X168219574Y-71923513D01*
X168226814Y-71850000D01*
X168225000Y-71168750D01*
X168131250Y-71075000D01*
X167075000Y-71075000D01*
X166925000Y-71075000D01*
X165868750Y-71075000D01*
X165775000Y-71168750D01*
X165773186Y-71850000D01*
X145344974Y-71850000D01*
X143644974Y-70150000D01*
X165773186Y-70150000D01*
X165775000Y-70831250D01*
X165868750Y-70925000D01*
X166925000Y-70925000D01*
X166925000Y-69868750D01*
X167075000Y-69868750D01*
X167075000Y-70925000D01*
X168131250Y-70925000D01*
X168225000Y-70831250D01*
X168226814Y-70150000D01*
X168219574Y-70076487D01*
X168198131Y-70005800D01*
X168163309Y-69940653D01*
X168116448Y-69883552D01*
X168059347Y-69836691D01*
X167994200Y-69801869D01*
X167923513Y-69780426D01*
X167850000Y-69773186D01*
X167168750Y-69775000D01*
X167075000Y-69868750D01*
X166925000Y-69868750D01*
X166831250Y-69775000D01*
X166150000Y-69773186D01*
X166076487Y-69780426D01*
X166005800Y-69801869D01*
X165940653Y-69836691D01*
X165883552Y-69883552D01*
X165836691Y-69940653D01*
X165801869Y-70005800D01*
X165780426Y-70076487D01*
X165773186Y-70150000D01*
X143644974Y-70150000D01*
X142328492Y-68833518D01*
X149425000Y-68833518D01*
X149425000Y-68966482D01*
X149450940Y-69096890D01*
X149501823Y-69219732D01*
X149575693Y-69330287D01*
X149669713Y-69424307D01*
X149780268Y-69498177D01*
X149903110Y-69549060D01*
X150033518Y-69575000D01*
X150166482Y-69575000D01*
X150296890Y-69549060D01*
X150419732Y-69498177D01*
X150530287Y-69424307D01*
X150624307Y-69330287D01*
X150698177Y-69219732D01*
X150749060Y-69096890D01*
X150775000Y-68966482D01*
X150775000Y-68833518D01*
X150773759Y-68827281D01*
X150827281Y-68773759D01*
X150833518Y-68775000D01*
X150966482Y-68775000D01*
X151096890Y-68749060D01*
X151219732Y-68698177D01*
X151330287Y-68624307D01*
X151424307Y-68530287D01*
X151498177Y-68419732D01*
X151549060Y-68296890D01*
X151575000Y-68166482D01*
X151575000Y-68033518D01*
X151573759Y-68027281D01*
X152076041Y-67525000D01*
X166365954Y-67525000D01*
X166200656Y-67660656D01*
X166060071Y-67831960D01*
X165955607Y-68027398D01*
X165891278Y-68239462D01*
X165869557Y-68460000D01*
X165891278Y-68680538D01*
X165955607Y-68892602D01*
X166060071Y-69088040D01*
X166200656Y-69259344D01*
X166371960Y-69399929D01*
X166567398Y-69504393D01*
X166779462Y-69568722D01*
X166944736Y-69585000D01*
X167055264Y-69585000D01*
X167220538Y-69568722D01*
X167432602Y-69504393D01*
X167628040Y-69399929D01*
X167799344Y-69259344D01*
X167939929Y-69088040D01*
X168044393Y-68892602D01*
X168108722Y-68680538D01*
X168130443Y-68460000D01*
X168108722Y-68239462D01*
X168044393Y-68027398D01*
X167939929Y-67831960D01*
X167799344Y-67660656D01*
X167634046Y-67525000D01*
X167723960Y-67525000D01*
X168484721Y-68285762D01*
X168498026Y-68301974D01*
X168562740Y-68355084D01*
X168636573Y-68394548D01*
X168692383Y-68411478D01*
X168716685Y-68418850D01*
X168725098Y-68419679D01*
X168779126Y-68425000D01*
X168779132Y-68425000D01*
X168799999Y-68427055D01*
X168820866Y-68425000D01*
X171064933Y-68425000D01*
X171143620Y-68572215D01*
X171271709Y-68728291D01*
X171427785Y-68856380D01*
X171605852Y-68951558D01*
X171765543Y-69000000D01*
X171605852Y-69048442D01*
X171427785Y-69143620D01*
X171271709Y-69271709D01*
X171143620Y-69427785D01*
X171048442Y-69605852D01*
X170989831Y-69799065D01*
X170970041Y-70000000D01*
X170989831Y-70200935D01*
X171048442Y-70394148D01*
X171143620Y-70572215D01*
X171271709Y-70728291D01*
X171427785Y-70856380D01*
X171605852Y-70951558D01*
X171678745Y-70973670D01*
X171250000Y-70973670D01*
X171196091Y-70978980D01*
X171144253Y-70994704D01*
X171096479Y-71020240D01*
X171054605Y-71054605D01*
X171020240Y-71096479D01*
X170994704Y-71144253D01*
X170978980Y-71196091D01*
X170973670Y-71250000D01*
X170973670Y-72750000D01*
X170978980Y-72803909D01*
X170994704Y-72855747D01*
X171020240Y-72903521D01*
X171054605Y-72945395D01*
X171072036Y-72959700D01*
X170873024Y-73123024D01*
X170701198Y-73332395D01*
X170573519Y-73571264D01*
X170494895Y-73830453D01*
X170468347Y-74100000D01*
X170494895Y-74369547D01*
X170573519Y-74628736D01*
X170701198Y-74867605D01*
X170873024Y-75076976D01*
X171082395Y-75248802D01*
X171321264Y-75376481D01*
X171580453Y-75455105D01*
X171782451Y-75475000D01*
X173217549Y-75475000D01*
X173419547Y-75455105D01*
X173678736Y-75376481D01*
X173917605Y-75248802D01*
X174126976Y-75076976D01*
X174298802Y-74867605D01*
X174426481Y-74628736D01*
X174505105Y-74369547D01*
X174531653Y-74100000D01*
X174505105Y-73830453D01*
X174426481Y-73571264D01*
X174298802Y-73332395D01*
X174126976Y-73123024D01*
X173927964Y-72959700D01*
X173945395Y-72945395D01*
X173979760Y-72903521D01*
X174005296Y-72855747D01*
X174021020Y-72803909D01*
X174026330Y-72750000D01*
X174026330Y-71250000D01*
X174021020Y-71196091D01*
X174005296Y-71144253D01*
X173979760Y-71096479D01*
X173945395Y-71054605D01*
X173903521Y-71020240D01*
X173855747Y-70994704D01*
X173803909Y-70978980D01*
X173750000Y-70973670D01*
X173321255Y-70973670D01*
X173394148Y-70951558D01*
X173572215Y-70856380D01*
X173728291Y-70728291D01*
X173856380Y-70572215D01*
X173951558Y-70394148D01*
X174010169Y-70200935D01*
X174029959Y-70000000D01*
X174010169Y-69799065D01*
X173951558Y-69605852D01*
X173856380Y-69427785D01*
X173728291Y-69271709D01*
X173572215Y-69143620D01*
X173394148Y-69048442D01*
X173234457Y-69000000D01*
X173394148Y-68951558D01*
X173572215Y-68856380D01*
X173728291Y-68728291D01*
X173856380Y-68572215D01*
X173951558Y-68394148D01*
X174010169Y-68200935D01*
X174029959Y-68000000D01*
X174010169Y-67799065D01*
X173951558Y-67605852D01*
X173856380Y-67427785D01*
X173728291Y-67271709D01*
X173630197Y-67191205D01*
X173678736Y-67176481D01*
X173917605Y-67048802D01*
X174126976Y-66876976D01*
X174298802Y-66667605D01*
X174426481Y-66428736D01*
X174505105Y-66169547D01*
X174531653Y-65900000D01*
X174505105Y-65630453D01*
X174426481Y-65371264D01*
X174298802Y-65132395D01*
X174126976Y-64923024D01*
X173917605Y-64751198D01*
X173678736Y-64623519D01*
X173419547Y-64544895D01*
X173217549Y-64525000D01*
X171782451Y-64525000D01*
X171580453Y-64544895D01*
X171321264Y-64623519D01*
X171082395Y-64751198D01*
X170873024Y-64923024D01*
X170701198Y-65132395D01*
X170573519Y-65371264D01*
X170494895Y-65630453D01*
X170468347Y-65900000D01*
X170494895Y-66169547D01*
X170573519Y-66428736D01*
X170701198Y-66667605D01*
X170873024Y-66876976D01*
X171082395Y-67048802D01*
X171321264Y-67176481D01*
X171369803Y-67191205D01*
X171271709Y-67271709D01*
X171143620Y-67427785D01*
X171064933Y-67575000D01*
X168976041Y-67575000D01*
X168215283Y-66814243D01*
X168201974Y-66798026D01*
X168137260Y-66744916D01*
X168063427Y-66705452D01*
X167983314Y-66681150D01*
X167920874Y-66675000D01*
X167920867Y-66675000D01*
X167900000Y-66672945D01*
X167879133Y-66675000D01*
X151920866Y-66675000D01*
X151899999Y-66672945D01*
X151879132Y-66675000D01*
X151879126Y-66675000D01*
X151825098Y-66680321D01*
X151816685Y-66681150D01*
X151792383Y-66688522D01*
X151736573Y-66705452D01*
X151662740Y-66744916D01*
X151598026Y-66798026D01*
X151584721Y-66814238D01*
X150972719Y-67426241D01*
X150966482Y-67425000D01*
X150833518Y-67425000D01*
X150703110Y-67450940D01*
X150580268Y-67501823D01*
X150469713Y-67575693D01*
X150375693Y-67669713D01*
X150301823Y-67780268D01*
X150250940Y-67903110D01*
X150225000Y-68033518D01*
X150225000Y-68166482D01*
X150226241Y-68172719D01*
X150172719Y-68226241D01*
X150166482Y-68225000D01*
X150033518Y-68225000D01*
X149903110Y-68250940D01*
X149780268Y-68301823D01*
X149669713Y-68375693D01*
X149575693Y-68469713D01*
X149501823Y-68580268D01*
X149450940Y-68703110D01*
X149425000Y-68833518D01*
X142328492Y-68833518D01*
X141571119Y-68076146D01*
X141575000Y-68056633D01*
X141575000Y-67943367D01*
X141552903Y-67832279D01*
X141509558Y-67727635D01*
X141446632Y-67633459D01*
X141366541Y-67553368D01*
X141272365Y-67490442D01*
X141167721Y-67447097D01*
X141056633Y-67425000D01*
X140943367Y-67425000D01*
X140832279Y-67447097D01*
X140727635Y-67490442D01*
X140633459Y-67553368D01*
X140553368Y-67633459D01*
X140490442Y-67727635D01*
X140447097Y-67832279D01*
X140427213Y-67932240D01*
X139859653Y-67364680D01*
X139848685Y-67351315D01*
X139795390Y-67307578D01*
X139734587Y-67275078D01*
X139668612Y-67255065D01*
X139617189Y-67250000D01*
X139617188Y-67250000D01*
X139600000Y-67248307D01*
X139582812Y-67250000D01*
X135057684Y-67250000D01*
X135046632Y-67233459D01*
X134966541Y-67153368D01*
X134872365Y-67090442D01*
X134767721Y-67047097D01*
X134656633Y-67025000D01*
X134543367Y-67025000D01*
X134432279Y-67047097D01*
X134327635Y-67090442D01*
X134233459Y-67153368D01*
X134153368Y-67233459D01*
X134090442Y-67327635D01*
X134047097Y-67432279D01*
X134025000Y-67543367D01*
X134025000Y-67656633D01*
X134028881Y-67676145D01*
X130764676Y-70940351D01*
X130751316Y-70951315D01*
X130707579Y-71004610D01*
X130680856Y-71054605D01*
X130675079Y-71065413D01*
X130655065Y-71131389D01*
X130648307Y-71200000D01*
X130650001Y-71217198D01*
X130650000Y-75642316D01*
X130633459Y-75653368D01*
X130553368Y-75733459D01*
X130490442Y-75827635D01*
X130454191Y-75915153D01*
X128825000Y-74285962D01*
X128825000Y-67727840D01*
X128830287Y-67724307D01*
X128924307Y-67630287D01*
X128998177Y-67519732D01*
X129049060Y-67396890D01*
X129075000Y-67266482D01*
X129075000Y-67133518D01*
X129049060Y-67003110D01*
X128998177Y-66880268D01*
X128924307Y-66769713D01*
X128830287Y-66675693D01*
X128719732Y-66601823D01*
X128596890Y-66550940D01*
X128466482Y-66525000D01*
X128333518Y-66525000D01*
X128203110Y-66550940D01*
X128080268Y-66601823D01*
X127969713Y-66675693D01*
X127875693Y-66769713D01*
X127801823Y-66880268D01*
X127750940Y-67003110D01*
X127725000Y-67133518D01*
X126661456Y-67133518D01*
X130394975Y-63400000D01*
X135680763Y-63400000D01*
X136316091Y-64035330D01*
X136327051Y-64048685D01*
X136380346Y-64092422D01*
X136441149Y-64124922D01*
X136487110Y-64138864D01*
X136507123Y-64144935D01*
X136541172Y-64148289D01*
X136553368Y-64166541D01*
X136633459Y-64246632D01*
X136727635Y-64309558D01*
X136832279Y-64352903D01*
X136943367Y-64375000D01*
X137056633Y-64375000D01*
X137167721Y-64352903D01*
X137272365Y-64309558D01*
X137366541Y-64246632D01*
X137446632Y-64166541D01*
X137509558Y-64072365D01*
X137552903Y-63967721D01*
X137575000Y-63856633D01*
X137575000Y-63743367D01*
X137552903Y-63632279D01*
X137509558Y-63527635D01*
X137446632Y-63433459D01*
X137366541Y-63353368D01*
X137272365Y-63290442D01*
X137167721Y-63247097D01*
X137056633Y-63225000D01*
X136943367Y-63225000D01*
X136832279Y-63247097D01*
X136727635Y-63290442D01*
X136633459Y-63353368D01*
X136628769Y-63358058D01*
X136085389Y-62814680D01*
X136074421Y-62801315D01*
X136021126Y-62757578D01*
X135960323Y-62725078D01*
X135894348Y-62705065D01*
X135842925Y-62700000D01*
X135842924Y-62700000D01*
X135825736Y-62698307D01*
X135808548Y-62700000D01*
X130267185Y-62700000D01*
X130249999Y-62698307D01*
X130232813Y-62700000D01*
X130232811Y-62700000D01*
X130181388Y-62705065D01*
X130115413Y-62725078D01*
X130054610Y-62757578D01*
X130001315Y-62801315D01*
X129990356Y-62814669D01*
X103482695Y-89322332D01*
X103469335Y-89333296D01*
X103425598Y-89386591D01*
X103393098Y-89447394D01*
X103373084Y-89513370D01*
X103366326Y-89581981D01*
X103368020Y-89599179D01*
X103368019Y-95451622D01*
X103346115Y-95455979D01*
X103114080Y-95552091D01*
X102905254Y-95691624D01*
X102727662Y-95869216D01*
X102588129Y-96078042D01*
X102492017Y-96310077D01*
X102443019Y-96556404D01*
X95300000Y-96556404D01*
X95300000Y-72279046D01*
X117475000Y-72279046D01*
X117475000Y-72480954D01*
X117514390Y-72678982D01*
X117591656Y-72865520D01*
X117703830Y-73033400D01*
X117846600Y-73176170D01*
X118014480Y-73288344D01*
X118201018Y-73365610D01*
X118399046Y-73405000D01*
X118600954Y-73405000D01*
X118798982Y-73365610D01*
X118985520Y-73288344D01*
X119153400Y-73176170D01*
X119296170Y-73033400D01*
X119408344Y-72865520D01*
X119485610Y-72678982D01*
X119525000Y-72480954D01*
X119525000Y-72279046D01*
X119485610Y-72081018D01*
X119408344Y-71894480D01*
X119296170Y-71726600D01*
X119153400Y-71583830D01*
X118985520Y-71471656D01*
X118798982Y-71394390D01*
X118600954Y-71355000D01*
X118399046Y-71355000D01*
X118201018Y-71394390D01*
X118014480Y-71471656D01*
X117846600Y-71583830D01*
X117703830Y-71726600D01*
X117591656Y-71894480D01*
X117514390Y-72081018D01*
X117475000Y-72279046D01*
X95300000Y-72279046D01*
X95300000Y-67399046D01*
X117475000Y-67399046D01*
X117475000Y-67600954D01*
X117514390Y-67798982D01*
X117591656Y-67985520D01*
X117703830Y-68153400D01*
X117846600Y-68296170D01*
X118014480Y-68408344D01*
X118201018Y-68485610D01*
X118399046Y-68525000D01*
X118600954Y-68525000D01*
X118798982Y-68485610D01*
X118985520Y-68408344D01*
X119153400Y-68296170D01*
X119296170Y-68153400D01*
X119408344Y-67985520D01*
X119485610Y-67798982D01*
X119525000Y-67600954D01*
X119525000Y-67399046D01*
X119485610Y-67201018D01*
X119408344Y-67014480D01*
X119296170Y-66846600D01*
X119153400Y-66703830D01*
X118985520Y-66591656D01*
X118798982Y-66514390D01*
X118600954Y-66475000D01*
X118399046Y-66475000D01*
X118201018Y-66514390D01*
X118014480Y-66591656D01*
X117846600Y-66703830D01*
X117703830Y-66846600D01*
X117591656Y-67014480D01*
X117514390Y-67201018D01*
X117475000Y-67399046D01*
X95300000Y-67399046D01*
X95300000Y-55000000D01*
X132604557Y-55000000D01*
X132626278Y-55220538D01*
X132690607Y-55432602D01*
X132795071Y-55628040D01*
X132935656Y-55799344D01*
X133106960Y-55939929D01*
X133302398Y-56044393D01*
X133514462Y-56108722D01*
X133679736Y-56125000D01*
X133790264Y-56125000D01*
X133955538Y-56108722D01*
X134167602Y-56044393D01*
X134363040Y-55939929D01*
X134472619Y-55850000D01*
X135048186Y-55850000D01*
X135055426Y-55923513D01*
X135076869Y-55994200D01*
X135111691Y-56059347D01*
X135158552Y-56116448D01*
X135215653Y-56163309D01*
X135280800Y-56198131D01*
X135351487Y-56219574D01*
X135425000Y-56226814D01*
X136106250Y-56225000D01*
X136200000Y-56131250D01*
X136200000Y-55075000D01*
X136350000Y-55075000D01*
X136350000Y-56131250D01*
X136443750Y-56225000D01*
X137125000Y-56226814D01*
X137198513Y-56219574D01*
X137269200Y-56198131D01*
X137334347Y-56163309D01*
X137391448Y-56116448D01*
X137438309Y-56059347D01*
X137473131Y-55994200D01*
X137494574Y-55923513D01*
X137501814Y-55850000D01*
X137500000Y-55168750D01*
X137406250Y-55075000D01*
X136350000Y-55075000D01*
X136200000Y-55075000D01*
X135143750Y-55075000D01*
X135050000Y-55168750D01*
X135048186Y-55850000D01*
X134472619Y-55850000D01*
X134534344Y-55799344D01*
X134674929Y-55628040D01*
X134779393Y-55432602D01*
X134843722Y-55220538D01*
X134865443Y-55000000D01*
X134843722Y-54779462D01*
X134779393Y-54567398D01*
X134674929Y-54371960D01*
X134534344Y-54200656D01*
X134472620Y-54150000D01*
X135048186Y-54150000D01*
X135050000Y-54831250D01*
X135143750Y-54925000D01*
X136200000Y-54925000D01*
X136200000Y-53868750D01*
X136350000Y-53868750D01*
X136350000Y-54925000D01*
X137406250Y-54925000D01*
X137500000Y-54831250D01*
X137501814Y-54150000D01*
X137494574Y-54076487D01*
X137473131Y-54005800D01*
X137438309Y-53940653D01*
X137391448Y-53883552D01*
X137334347Y-53836691D01*
X137269200Y-53801869D01*
X137198513Y-53780426D01*
X137125000Y-53773186D01*
X136443750Y-53775000D01*
X136350000Y-53868750D01*
X136200000Y-53868750D01*
X136106250Y-53775000D01*
X135425000Y-53773186D01*
X135351487Y-53780426D01*
X135280800Y-53801869D01*
X135215653Y-53836691D01*
X135158552Y-53883552D01*
X135111691Y-53940653D01*
X135076869Y-54005800D01*
X135055426Y-54076487D01*
X135048186Y-54150000D01*
X134472620Y-54150000D01*
X134363040Y-54060071D01*
X134167602Y-53955607D01*
X133955538Y-53891278D01*
X133790264Y-53875000D01*
X133679736Y-53875000D01*
X133514462Y-53891278D01*
X133302398Y-53955607D01*
X133106960Y-54060071D01*
X132935656Y-54200656D01*
X132795071Y-54371960D01*
X132690607Y-54567398D01*
X132626278Y-54779462D01*
X132604557Y-55000000D01*
X95300000Y-55000000D01*
X95300000Y-46786090D01*
X105552908Y-46786090D01*
X105635421Y-47044067D01*
X105766677Y-47280989D01*
X105941633Y-47487752D01*
X106153564Y-47656410D01*
X106394327Y-47780482D01*
X106613910Y-47847092D01*
X106828806Y-47781911D01*
X106828806Y-46571194D01*
X106978806Y-46571194D01*
X106978806Y-47781911D01*
X107193702Y-47847092D01*
X107451679Y-47764579D01*
X107688601Y-47633323D01*
X107895364Y-47458367D01*
X108064022Y-47246436D01*
X108188094Y-47005673D01*
X108253549Y-46789896D01*
X161749102Y-46789896D01*
X161831615Y-47047873D01*
X161962871Y-47284795D01*
X162137827Y-47491558D01*
X162349758Y-47660216D01*
X162590521Y-47784288D01*
X162810104Y-47850898D01*
X163025000Y-47785717D01*
X163025000Y-46575000D01*
X163175000Y-46575000D01*
X163175000Y-47785717D01*
X163389896Y-47850898D01*
X163647873Y-47768385D01*
X163884795Y-47637129D01*
X164091558Y-47462173D01*
X164260216Y-47250242D01*
X164384288Y-47009479D01*
X164450898Y-46789896D01*
X164385717Y-46575000D01*
X163175000Y-46575000D01*
X163025000Y-46575000D01*
X161814283Y-46575000D01*
X161749102Y-46789896D01*
X108253549Y-46789896D01*
X108254704Y-46786090D01*
X108189523Y-46571194D01*
X106978806Y-46571194D01*
X106828806Y-46571194D01*
X105618089Y-46571194D01*
X105552908Y-46786090D01*
X95300000Y-46786090D01*
X95300000Y-46206298D01*
X105552908Y-46206298D01*
X105618089Y-46421194D01*
X106828806Y-46421194D01*
X106828806Y-45210477D01*
X106978806Y-45210477D01*
X106978806Y-46421194D01*
X108189523Y-46421194D01*
X108253549Y-46210104D01*
X161749102Y-46210104D01*
X161814283Y-46425000D01*
X163025000Y-46425000D01*
X163025000Y-45214283D01*
X163175000Y-45214283D01*
X163175000Y-46425000D01*
X164385717Y-46425000D01*
X164450898Y-46210104D01*
X164368385Y-45952127D01*
X164237129Y-45715205D01*
X164062173Y-45508442D01*
X163850242Y-45339784D01*
X163609479Y-45215712D01*
X163389896Y-45149102D01*
X163175000Y-45214283D01*
X163025000Y-45214283D01*
X162810104Y-45149102D01*
X162552127Y-45231615D01*
X162315205Y-45362871D01*
X162108442Y-45537827D01*
X161939784Y-45749758D01*
X161815712Y-45990521D01*
X161749102Y-46210104D01*
X108253549Y-46210104D01*
X108254704Y-46206298D01*
X108172191Y-45948321D01*
X108040935Y-45711399D01*
X107865979Y-45504636D01*
X107654048Y-45335978D01*
X107413285Y-45211906D01*
X107193702Y-45145296D01*
X106978806Y-45210477D01*
X106828806Y-45210477D01*
X106613910Y-45145296D01*
X106355933Y-45227809D01*
X106119011Y-45359065D01*
X105912248Y-45534021D01*
X105743590Y-45745952D01*
X105619518Y-45986715D01*
X105552908Y-46206298D01*
X95300000Y-46206298D01*
X95300000Y-43188637D01*
X102446825Y-43188637D01*
X102446825Y-43439791D01*
X102495823Y-43686118D01*
X102591935Y-43918153D01*
X102731468Y-44126979D01*
X102909060Y-44304571D01*
X103117886Y-44444104D01*
X103349921Y-44540216D01*
X103596248Y-44589214D01*
X103847402Y-44589214D01*
X104093729Y-44540216D01*
X104325764Y-44444104D01*
X104534590Y-44304571D01*
X104712182Y-44126979D01*
X104851715Y-43918153D01*
X104947827Y-43686118D01*
X104996825Y-43439791D01*
X104996825Y-43188637D01*
X104947827Y-42942310D01*
X104851715Y-42710275D01*
X104712182Y-42501449D01*
X104534590Y-42323857D01*
X104334104Y-42189896D01*
X110149102Y-42189896D01*
X110231615Y-42447873D01*
X110362871Y-42684795D01*
X110537827Y-42891558D01*
X110749758Y-43060216D01*
X110990521Y-43184288D01*
X111210104Y-43250898D01*
X111425000Y-43185717D01*
X111425000Y-41975000D01*
X111575000Y-41975000D01*
X111575000Y-43185717D01*
X111789896Y-43250898D01*
X112047873Y-43168385D01*
X112284795Y-43037129D01*
X112491558Y-42862173D01*
X112660216Y-42650242D01*
X112784288Y-42409479D01*
X112849743Y-42193702D01*
X157152908Y-42193702D01*
X157235421Y-42451679D01*
X157366677Y-42688601D01*
X157541633Y-42895364D01*
X157753564Y-43064022D01*
X157994327Y-43188094D01*
X158213910Y-43254704D01*
X158428806Y-43189523D01*
X158428806Y-41978806D01*
X158578806Y-41978806D01*
X158578806Y-43189523D01*
X158793702Y-43254704D01*
X158988364Y-43192442D01*
X165006981Y-43192442D01*
X165006981Y-43443596D01*
X165055979Y-43689923D01*
X165152091Y-43921958D01*
X165291624Y-44130784D01*
X165469216Y-44308376D01*
X165678042Y-44447909D01*
X165910077Y-44544021D01*
X166156404Y-44593019D01*
X166407558Y-44593019D01*
X166653885Y-44544021D01*
X166885920Y-44447909D01*
X167094746Y-44308376D01*
X167272338Y-44130784D01*
X167411871Y-43921958D01*
X167507983Y-43689923D01*
X167556981Y-43443596D01*
X167556981Y-43192442D01*
X167507983Y-42946115D01*
X167411871Y-42714080D01*
X167272338Y-42505254D01*
X167094746Y-42327662D01*
X166885920Y-42188129D01*
X166653885Y-42092017D01*
X166407558Y-42043019D01*
X166156404Y-42043019D01*
X165910077Y-42092017D01*
X165678042Y-42188129D01*
X165469216Y-42327662D01*
X165291624Y-42505254D01*
X165152091Y-42714080D01*
X165055979Y-42946115D01*
X165006981Y-43192442D01*
X158988364Y-43192442D01*
X159051679Y-43172191D01*
X159288601Y-43040935D01*
X159495364Y-42865979D01*
X159664022Y-42654048D01*
X159788094Y-42413285D01*
X159854704Y-42193702D01*
X159789523Y-41978806D01*
X158578806Y-41978806D01*
X158428806Y-41978806D01*
X157218089Y-41978806D01*
X157152908Y-42193702D01*
X112849743Y-42193702D01*
X112850898Y-42189896D01*
X112785717Y-41975000D01*
X111575000Y-41975000D01*
X111425000Y-41975000D01*
X110214283Y-41975000D01*
X110149102Y-42189896D01*
X104334104Y-42189896D01*
X104325764Y-42184324D01*
X104093729Y-42088212D01*
X103847402Y-42039214D01*
X103596248Y-42039214D01*
X103349921Y-42088212D01*
X103117886Y-42184324D01*
X102909060Y-42323857D01*
X102731468Y-42501449D01*
X102591935Y-42710275D01*
X102495823Y-42942310D01*
X102446825Y-43188637D01*
X95300000Y-43188637D01*
X95300000Y-41610104D01*
X110149102Y-41610104D01*
X110214283Y-41825000D01*
X111425000Y-41825000D01*
X111425000Y-40614283D01*
X111575000Y-40614283D01*
X111575000Y-41825000D01*
X112785717Y-41825000D01*
X112849743Y-41613910D01*
X157152908Y-41613910D01*
X157218089Y-41828806D01*
X158428806Y-41828806D01*
X158428806Y-40618089D01*
X158578806Y-40618089D01*
X158578806Y-41828806D01*
X159789523Y-41828806D01*
X159854704Y-41613910D01*
X159772191Y-41355933D01*
X159640935Y-41119011D01*
X159465979Y-40912248D01*
X159254048Y-40743590D01*
X159013285Y-40619518D01*
X158793702Y-40552908D01*
X158578806Y-40618089D01*
X158428806Y-40618089D01*
X158213910Y-40552908D01*
X157955933Y-40635421D01*
X157719011Y-40766677D01*
X157512248Y-40941633D01*
X157343590Y-41153564D01*
X157219518Y-41394327D01*
X157152908Y-41613910D01*
X112849743Y-41613910D01*
X112850898Y-41610104D01*
X112768385Y-41352127D01*
X112637129Y-41115205D01*
X112462173Y-40908442D01*
X112250242Y-40739784D01*
X112009479Y-40615712D01*
X111789896Y-40549102D01*
X111575000Y-40614283D01*
X111425000Y-40614283D01*
X111210104Y-40549102D01*
X110952127Y-40631615D01*
X110715205Y-40762871D01*
X110508442Y-40937827D01*
X110339784Y-41149758D01*
X110215712Y-41390521D01*
X110149102Y-41610104D01*
X95300000Y-41610104D01*
X95300000Y-41009029D01*
X95378036Y-39714607D01*
X95582980Y-38592442D01*
X107043019Y-38592442D01*
X107043019Y-38843596D01*
X107092017Y-39089923D01*
X107188129Y-39321958D01*
X107327662Y-39530784D01*
X107505254Y-39708376D01*
X107714080Y-39847909D01*
X107946115Y-39944021D01*
X108192442Y-39993019D01*
X108443596Y-39993019D01*
X108689923Y-39944021D01*
X108921958Y-39847909D01*
X109130784Y-39708376D01*
X109308376Y-39530784D01*
X109447909Y-39321958D01*
X109544021Y-39089923D01*
X109593019Y-38843596D01*
X109593019Y-38596248D01*
X160410786Y-38596248D01*
X160410786Y-38847402D01*
X160459784Y-39093729D01*
X160555896Y-39325764D01*
X160695429Y-39534590D01*
X160873021Y-39712182D01*
X161081847Y-39851715D01*
X161313882Y-39947827D01*
X161560209Y-39996825D01*
X161811363Y-39996825D01*
X162057690Y-39947827D01*
X162289725Y-39851715D01*
X162498551Y-39712182D01*
X162676143Y-39534590D01*
X162815676Y-39325764D01*
X162911788Y-39093729D01*
X162960786Y-38847402D01*
X162960786Y-38596248D01*
X162911788Y-38349921D01*
X162815676Y-38117886D01*
X162676143Y-37909060D01*
X162498551Y-37731468D01*
X162289725Y-37591935D01*
X162057690Y-37495823D01*
X161811363Y-37446825D01*
X161560209Y-37446825D01*
X161313882Y-37495823D01*
X161081847Y-37591935D01*
X160873021Y-37731468D01*
X160695429Y-37909060D01*
X160555896Y-38117886D01*
X160459784Y-38349921D01*
X160410786Y-38596248D01*
X109593019Y-38596248D01*
X109593019Y-38592442D01*
X109544021Y-38346115D01*
X109447909Y-38114080D01*
X109308376Y-37905254D01*
X109130784Y-37727662D01*
X108921958Y-37588129D01*
X108689923Y-37492017D01*
X108443596Y-37443019D01*
X108192442Y-37443019D01*
X107946115Y-37492017D01*
X107714080Y-37588129D01*
X107505254Y-37727662D01*
X107327662Y-37905254D01*
X107188129Y-38114080D01*
X107092017Y-38346115D01*
X107043019Y-38592442D01*
X95582980Y-38592442D01*
X95609393Y-38447821D01*
X95991260Y-37218009D01*
X96518106Y-36042983D01*
X97182300Y-34939760D01*
X97974217Y-33924326D01*
X98882396Y-33011379D01*
X99893679Y-32214148D01*
X100993405Y-31544190D01*
X102165663Y-31011196D01*
X103393451Y-30622898D01*
X104658997Y-30384913D01*
X105952622Y-30300125D01*
X106000405Y-30300000D01*
X163990971Y-30300000D01*
X165285393Y-30378036D01*
X165285393Y-30378036D01*
G37*
X165285393Y-30378036D02*
X166552179Y-30609393D01*
X167781991Y-30991260D01*
X168957017Y-31518106D01*
X170060240Y-32182300D01*
X171075674Y-32974217D01*
X171988621Y-33882396D01*
X172785852Y-34893679D01*
X173455810Y-35993405D01*
X173988804Y-37165663D01*
X174377102Y-38393451D01*
X174615087Y-39658997D01*
X174699875Y-40952622D01*
X174700001Y-41000786D01*
X174700000Y-98990971D01*
X174621964Y-100285393D01*
X174390607Y-101552182D01*
X174008740Y-102781991D01*
X173481896Y-103957014D01*
X172817704Y-105060235D01*
X172025783Y-106075674D01*
X171117600Y-106988624D01*
X170106324Y-107785849D01*
X169006601Y-108455808D01*
X167834337Y-108988804D01*
X166606549Y-109377102D01*
X165341002Y-109615087D01*
X164047378Y-109699875D01*
X163999594Y-109700000D01*
X106009029Y-109700000D01*
X104714607Y-109621964D01*
X103447818Y-109390607D01*
X102218009Y-109008740D01*
X101042986Y-108481896D01*
X99939765Y-107817704D01*
X98924326Y-107025783D01*
X98011376Y-106117600D01*
X97214151Y-105106324D01*
X96544192Y-104006601D01*
X96011196Y-102834337D01*
X95622898Y-101606549D01*
X95537533Y-101152598D01*
X107039214Y-101152598D01*
X107039214Y-101403752D01*
X107088212Y-101650079D01*
X107184324Y-101882114D01*
X107323857Y-102090940D01*
X107501449Y-102268532D01*
X107710275Y-102408065D01*
X107942310Y-102504177D01*
X108188637Y-102553175D01*
X108439791Y-102553175D01*
X108686118Y-102504177D01*
X108918153Y-102408065D01*
X109126979Y-102268532D01*
X109304571Y-102090940D01*
X109444104Y-101882114D01*
X109540216Y-101650079D01*
X109589214Y-101403752D01*
X109589214Y-101156404D01*
X160406981Y-101156404D01*
X160406981Y-101407558D01*
X160455979Y-101653885D01*
X160552091Y-101885920D01*
X160691624Y-102094746D01*
X160869216Y-102272338D01*
X161078042Y-102411871D01*
X161310077Y-102507983D01*
X161556404Y-102556981D01*
X161807558Y-102556981D01*
X162053885Y-102507983D01*
X162285920Y-102411871D01*
X162494746Y-102272338D01*
X162672338Y-102094746D01*
X162811871Y-101885920D01*
X162907983Y-101653885D01*
X162956981Y-101407558D01*
X162956981Y-101156404D01*
X162907983Y-100910077D01*
X162811871Y-100678042D01*
X162672338Y-100469216D01*
X162494746Y-100291624D01*
X162285920Y-100152091D01*
X162053885Y-100055979D01*
X161807558Y-100006981D01*
X161556404Y-100006981D01*
X161310077Y-100055979D01*
X161078042Y-100152091D01*
X160869216Y-100291624D01*
X160691624Y-100469216D01*
X160552091Y-100678042D01*
X160455979Y-100910077D01*
X160406981Y-101156404D01*
X109589214Y-101156404D01*
X109589214Y-101152598D01*
X109540216Y-100906271D01*
X109444104Y-100674236D01*
X109304571Y-100465410D01*
X109126979Y-100287818D01*
X108918153Y-100148285D01*
X108686118Y-100052173D01*
X108439791Y-100003175D01*
X108188637Y-100003175D01*
X107942310Y-100052173D01*
X107710275Y-100148285D01*
X107501449Y-100287818D01*
X107323857Y-100465410D01*
X107184324Y-100674236D01*
X107088212Y-100906271D01*
X107039214Y-101152598D01*
X95537533Y-101152598D01*
X95384913Y-100341002D01*
X95300125Y-99047378D01*
X95300000Y-98999594D01*
X95300000Y-98386090D01*
X110145296Y-98386090D01*
X110227809Y-98644067D01*
X110359065Y-98880989D01*
X110534021Y-99087752D01*
X110745952Y-99256410D01*
X110986715Y-99380482D01*
X111206298Y-99447092D01*
X111421194Y-99381911D01*
X111421194Y-98171194D01*
X111571194Y-98171194D01*
X111571194Y-99381911D01*
X111786090Y-99447092D01*
X112044067Y-99364579D01*
X112280989Y-99233323D01*
X112487752Y-99058367D01*
X112656410Y-98846436D01*
X112780482Y-98605673D01*
X112845937Y-98389896D01*
X157149102Y-98389896D01*
X157231615Y-98647873D01*
X157362871Y-98884795D01*
X157537827Y-99091558D01*
X157749758Y-99260216D01*
X157990521Y-99384288D01*
X158210104Y-99450898D01*
X158425000Y-99385717D01*
X158425000Y-98175000D01*
X158575000Y-98175000D01*
X158575000Y-99385717D01*
X158789896Y-99450898D01*
X159047873Y-99368385D01*
X159284795Y-99237129D01*
X159491558Y-99062173D01*
X159660216Y-98850242D01*
X159784288Y-98609479D01*
X159850898Y-98389896D01*
X159785717Y-98175000D01*
X158575000Y-98175000D01*
X158425000Y-98175000D01*
X157214283Y-98175000D01*
X157149102Y-98389896D01*
X112845937Y-98389896D01*
X112847092Y-98386090D01*
X112781911Y-98171194D01*
X111571194Y-98171194D01*
X111421194Y-98171194D01*
X110210477Y-98171194D01*
X110145296Y-98386090D01*
X95300000Y-98386090D01*
X95300000Y-96556404D01*
X102443019Y-96556404D01*
X102443019Y-96807558D01*
X102492017Y-97053885D01*
X102588129Y-97285920D01*
X102727662Y-97494746D01*
X102905254Y-97672338D01*
X103114080Y-97811871D01*
X103346115Y-97907983D01*
X103592442Y-97956981D01*
X103843596Y-97956981D01*
X104089923Y-97907983D01*
X104321958Y-97811871D01*
X104330298Y-97806298D01*
X110145296Y-97806298D01*
X110210477Y-98021194D01*
X111421194Y-98021194D01*
X111421194Y-96810477D01*
X111571194Y-96810477D01*
X111571194Y-98021194D01*
X112781911Y-98021194D01*
X112845937Y-97810104D01*
X157149102Y-97810104D01*
X157214283Y-98025000D01*
X158425000Y-98025000D01*
X158425000Y-96814283D01*
X158575000Y-96814283D01*
X158575000Y-98025000D01*
X159785717Y-98025000D01*
X159850898Y-97810104D01*
X159768385Y-97552127D01*
X159637129Y-97315205D01*
X159462173Y-97108442D01*
X159250242Y-96939784D01*
X159009479Y-96815712D01*
X158789896Y-96749102D01*
X158575000Y-96814283D01*
X158425000Y-96814283D01*
X158210104Y-96749102D01*
X157952127Y-96831615D01*
X157715205Y-96962871D01*
X157508442Y-97137827D01*
X157339784Y-97349758D01*
X157215712Y-97590521D01*
X157149102Y-97810104D01*
X112845937Y-97810104D01*
X112847092Y-97806298D01*
X112764579Y-97548321D01*
X112633323Y-97311399D01*
X112458367Y-97104636D01*
X112246436Y-96935978D01*
X112005673Y-96811906D01*
X111786090Y-96745296D01*
X111571194Y-96810477D01*
X111421194Y-96810477D01*
X111206298Y-96745296D01*
X110948321Y-96827809D01*
X110711399Y-96959065D01*
X110504636Y-97134021D01*
X110335978Y-97345952D01*
X110211906Y-97586715D01*
X110145296Y-97806298D01*
X104330298Y-97806298D01*
X104530784Y-97672338D01*
X104708376Y-97494746D01*
X104847909Y-97285920D01*
X104944021Y-97053885D01*
X104993019Y-96807558D01*
X104993019Y-96556404D01*
X104944021Y-96310077D01*
X104847909Y-96078042D01*
X104708376Y-95869216D01*
X104530784Y-95691624D01*
X104321958Y-95552091D01*
X104089923Y-95455979D01*
X104068019Y-95451622D01*
X104068019Y-93789896D01*
X105549102Y-93789896D01*
X105631615Y-94047873D01*
X105762871Y-94284795D01*
X105937827Y-94491558D01*
X106149758Y-94660216D01*
X106390521Y-94784288D01*
X106610104Y-94850898D01*
X106825000Y-94785717D01*
X106825000Y-93575000D01*
X106975000Y-93575000D01*
X106975000Y-94785717D01*
X107189896Y-94850898D01*
X107447873Y-94768385D01*
X107684795Y-94637129D01*
X107891558Y-94462173D01*
X108060216Y-94250242D01*
X108184288Y-94009479D01*
X108249743Y-93793702D01*
X161745296Y-93793702D01*
X161827809Y-94051679D01*
X161959065Y-94288601D01*
X162134021Y-94495364D01*
X162345952Y-94664022D01*
X162586715Y-94788094D01*
X162806298Y-94854704D01*
X163021194Y-94789523D01*
X163021194Y-93578806D01*
X163171194Y-93578806D01*
X163171194Y-94789523D01*
X163386090Y-94854704D01*
X163644067Y-94772191D01*
X163880989Y-94640935D01*
X164087752Y-94465979D01*
X164256410Y-94254048D01*
X164380482Y-94013285D01*
X164447092Y-93793702D01*
X164381911Y-93578806D01*
X163171194Y-93578806D01*
X163021194Y-93578806D01*
X161810477Y-93578806D01*
X161745296Y-93793702D01*
X108249743Y-93793702D01*
X108250898Y-93789896D01*
X108185717Y-93575000D01*
X106975000Y-93575000D01*
X106825000Y-93575000D01*
X105614283Y-93575000D01*
X105549102Y-93789896D01*
X104068019Y-93789896D01*
X104068019Y-93210104D01*
X105549102Y-93210104D01*
X105614283Y-93425000D01*
X106825000Y-93425000D01*
X106825000Y-92214283D01*
X106975000Y-92214283D01*
X106975000Y-93425000D01*
X108185717Y-93425000D01*
X108249743Y-93213910D01*
X161745296Y-93213910D01*
X161810477Y-93428806D01*
X163021194Y-93428806D01*
X163021194Y-92218089D01*
X163171194Y-92218089D01*
X163171194Y-93428806D01*
X164381911Y-93428806D01*
X164447092Y-93213910D01*
X164364579Y-92955933D01*
X164233323Y-92719011D01*
X164058367Y-92512248D01*
X163846436Y-92343590D01*
X163605673Y-92219518D01*
X163386090Y-92152908D01*
X163171194Y-92218089D01*
X163021194Y-92218089D01*
X162806298Y-92152908D01*
X162548321Y-92235421D01*
X162311399Y-92366677D01*
X162104636Y-92541633D01*
X161935978Y-92753564D01*
X161811906Y-92994327D01*
X161745296Y-93213910D01*
X108249743Y-93213910D01*
X108250898Y-93210104D01*
X108168385Y-92952127D01*
X108037129Y-92715205D01*
X107862173Y-92508442D01*
X107650242Y-92339784D01*
X107409479Y-92215712D01*
X107189896Y-92149102D01*
X106975000Y-92214283D01*
X106825000Y-92214283D01*
X106610104Y-92149102D01*
X106352127Y-92231615D01*
X106115205Y-92362871D01*
X105908442Y-92537827D01*
X105739784Y-92749758D01*
X105615712Y-92990521D01*
X105549102Y-93210104D01*
X104068019Y-93210104D01*
X104068019Y-89726954D01*
X113130841Y-80664132D01*
X143529700Y-80664132D01*
X143529700Y-80815868D01*
X143559302Y-80964688D01*
X143617369Y-81104874D01*
X143701669Y-81231038D01*
X143808962Y-81338331D01*
X143935126Y-81422631D01*
X144075312Y-81480698D01*
X144224132Y-81510300D01*
X144375868Y-81510300D01*
X144524688Y-81480698D01*
X144664874Y-81422631D01*
X144791038Y-81338331D01*
X144898331Y-81231038D01*
X144982631Y-81104874D01*
X145040698Y-80964688D01*
X145070300Y-80815868D01*
X145070300Y-80664132D01*
X145040698Y-80515312D01*
X144982631Y-80375126D01*
X144898331Y-80248962D01*
X144791038Y-80141669D01*
X144664874Y-80057369D01*
X144524688Y-79999302D01*
X144375868Y-79969700D01*
X144224132Y-79969700D01*
X144075312Y-79999302D01*
X143935126Y-80057369D01*
X143808962Y-80141669D01*
X143701669Y-80248962D01*
X143617369Y-80375126D01*
X143559302Y-80515312D01*
X143529700Y-80664132D01*
X113130841Y-80664132D01*
X126661456Y-67133518D01*
X127725000Y-67133518D01*
X127725000Y-67266482D01*
X127750940Y-67396890D01*
X127801823Y-67519732D01*
X127875693Y-67630287D01*
X127969713Y-67724307D01*
X127975001Y-67727840D01*
X127975000Y-74441135D01*
X127972945Y-74462002D01*
X127975000Y-74482869D01*
X127975000Y-74482875D01*
X127981150Y-74545315D01*
X127986212Y-74562003D01*
X127981150Y-74578690D01*
X127972945Y-74662004D01*
X127975001Y-74682880D01*
X127975000Y-75372160D01*
X127969713Y-75375693D01*
X127875693Y-75469713D01*
X127801823Y-75580268D01*
X127750940Y-75703110D01*
X127725000Y-75833518D01*
X127725000Y-75966482D01*
X127750940Y-76096890D01*
X127801823Y-76219732D01*
X127875693Y-76330287D01*
X127969713Y-76424307D01*
X128080268Y-76498177D01*
X128203110Y-76549060D01*
X128333518Y-76575000D01*
X128466482Y-76575000D01*
X128596890Y-76549060D01*
X128719732Y-76498177D01*
X128830287Y-76424307D01*
X128924307Y-76330287D01*
X128998177Y-76219732D01*
X129049060Y-76096890D01*
X129075000Y-75966482D01*
X129075000Y-75833518D01*
X129051293Y-75714335D01*
X131822719Y-78485762D01*
X131836024Y-78501974D01*
X131900738Y-78555084D01*
X131948853Y-78580801D01*
X131974570Y-78594548D01*
X132054684Y-78618850D01*
X132117124Y-78625000D01*
X132117131Y-78625000D01*
X132137998Y-78627055D01*
X132158865Y-78625000D01*
X141472160Y-78625000D01*
X141475693Y-78630287D01*
X141569713Y-78724307D01*
X141680268Y-78798177D01*
X141803110Y-78849060D01*
X141933518Y-78875000D01*
X142066482Y-78875000D01*
X142196890Y-78849060D01*
X142319732Y-78798177D01*
X142430287Y-78724307D01*
X142524307Y-78630287D01*
X142598177Y-78519732D01*
X142649060Y-78396890D01*
X142675000Y-78266482D01*
X142675000Y-78133518D01*
X142649060Y-78003110D01*
X142598177Y-77880268D01*
X142524307Y-77769713D01*
X142430287Y-77675693D01*
X142319732Y-77601823D01*
X142196890Y-77550940D01*
X142066482Y-77525000D01*
X141933518Y-77525000D01*
X141927281Y-77526241D01*
X141225000Y-76823960D01*
X141225000Y-73327840D01*
X141230287Y-73324307D01*
X141324307Y-73230287D01*
X141398177Y-73119732D01*
X141449060Y-72996890D01*
X141475000Y-72866482D01*
X141475000Y-72733518D01*
X141449060Y-72603110D01*
X141398177Y-72480268D01*
X141324307Y-72369713D01*
X141230287Y-72275693D01*
X141119732Y-72201823D01*
X140996890Y-72150940D01*
X140866482Y-72125000D01*
X140733518Y-72125000D01*
X140603110Y-72150940D01*
X140480268Y-72201823D01*
X140369713Y-72275693D01*
X140275693Y-72369713D01*
X140201823Y-72480268D01*
X140150940Y-72603110D01*
X140125000Y-72733518D01*
X140125000Y-72866482D01*
X140150940Y-72996890D01*
X140201823Y-73119732D01*
X140275693Y-73230287D01*
X140369713Y-73324307D01*
X140375000Y-73327840D01*
X140375001Y-76979123D01*
X140372945Y-77000000D01*
X140381150Y-77083314D01*
X140405453Y-77163427D01*
X140444917Y-77237260D01*
X140498027Y-77301974D01*
X140514239Y-77315279D01*
X140973960Y-77775000D01*
X132314039Y-77775000D01*
X131184848Y-76645809D01*
X131272365Y-76609558D01*
X131366541Y-76546632D01*
X131446632Y-76466541D01*
X131509558Y-76372365D01*
X131552903Y-76267721D01*
X131575000Y-76156633D01*
X131575000Y-76043367D01*
X131552903Y-75932279D01*
X131509558Y-75827635D01*
X131446632Y-75733459D01*
X131366541Y-75653368D01*
X131350000Y-75642316D01*
X131350000Y-71344973D01*
X134523855Y-68171119D01*
X134543367Y-68175000D01*
X134656633Y-68175000D01*
X134767721Y-68152903D01*
X134872365Y-68109558D01*
X134966541Y-68046632D01*
X135046632Y-67966541D01*
X135057684Y-67950000D01*
X139455027Y-67950000D01*
X142150001Y-70644976D01*
X142150000Y-74142316D01*
X142133459Y-74153368D01*
X142053368Y-74233459D01*
X141990442Y-74327635D01*
X141947097Y-74432279D01*
X141925000Y-74543367D01*
X141925000Y-74656633D01*
X141947097Y-74767721D01*
X141990442Y-74872365D01*
X142053368Y-74966541D01*
X142133459Y-75046632D01*
X142227635Y-75109558D01*
X142332279Y-75152903D01*
X142443367Y-75175000D01*
X142556633Y-75175000D01*
X142667721Y-75152903D01*
X142725775Y-75128856D01*
X142685669Y-75168962D01*
X142601369Y-75295126D01*
X142543302Y-75435312D01*
X142513700Y-75584132D01*
X142513700Y-75735868D01*
X142543302Y-75884688D01*
X142601369Y-76024874D01*
X142685669Y-76151038D01*
X142792962Y-76258331D01*
X142919126Y-76342631D01*
X143059312Y-76400698D01*
X143208132Y-76430300D01*
X143359868Y-76430300D01*
X143508688Y-76400698D01*
X143648874Y-76342631D01*
X143775038Y-76258331D01*
X143882331Y-76151038D01*
X143966631Y-76024874D01*
X144024698Y-75884688D01*
X144054300Y-75735868D01*
X144054300Y-75584132D01*
X144545700Y-75584132D01*
X144545700Y-75735868D01*
X144575302Y-75884688D01*
X144633369Y-76024874D01*
X144717669Y-76151038D01*
X144824962Y-76258331D01*
X144951126Y-76342631D01*
X145091312Y-76400698D01*
X145240132Y-76430300D01*
X145391868Y-76430300D01*
X145540688Y-76400698D01*
X145680874Y-76342631D01*
X145807038Y-76258331D01*
X145914331Y-76151038D01*
X145998631Y-76024874D01*
X146056698Y-75884688D01*
X146086300Y-75735868D01*
X146086300Y-75584132D01*
X146056698Y-75435312D01*
X145998631Y-75295126D01*
X145914331Y-75168962D01*
X145807038Y-75061669D01*
X145680874Y-74977369D01*
X145540688Y-74919302D01*
X145391868Y-74889700D01*
X145240132Y-74889700D01*
X145091312Y-74919302D01*
X144951126Y-74977369D01*
X144824962Y-75061669D01*
X144717669Y-75168962D01*
X144633369Y-75295126D01*
X144575302Y-75435312D01*
X144545700Y-75584132D01*
X144054300Y-75584132D01*
X144024698Y-75435312D01*
X143966631Y-75295126D01*
X143882331Y-75168962D01*
X143775038Y-75061669D01*
X143648874Y-74977369D01*
X143508688Y-74919302D01*
X143359868Y-74889700D01*
X143208132Y-74889700D01*
X143059312Y-74919302D01*
X142947154Y-74965759D01*
X143009558Y-74872365D01*
X143052903Y-74767721D01*
X143075000Y-74656633D01*
X143075000Y-74543367D01*
X143052903Y-74432279D01*
X143009558Y-74327635D01*
X142946632Y-74233459D01*
X142866541Y-74153368D01*
X142850000Y-74142316D01*
X142850000Y-70517185D01*
X142851693Y-70499999D01*
X142850000Y-70482811D01*
X142844935Y-70431388D01*
X142824922Y-70365413D01*
X142792422Y-70304610D01*
X142748685Y-70251315D01*
X142735330Y-70240356D01*
X141067760Y-68572787D01*
X141076146Y-68571119D01*
X165928176Y-93423150D01*
X165928175Y-95455427D01*
X165906271Y-95459784D01*
X165674236Y-95555896D01*
X165465410Y-95695429D01*
X165287818Y-95873021D01*
X165148285Y-96081847D01*
X165052173Y-96313882D01*
X165003175Y-96560209D01*
X165003175Y-96811363D01*
X165052173Y-97057690D01*
X165148285Y-97289725D01*
X165287818Y-97498551D01*
X165465410Y-97676143D01*
X165674236Y-97815676D01*
X165906271Y-97911788D01*
X166152598Y-97960786D01*
X166403752Y-97960786D01*
X166650079Y-97911788D01*
X166882114Y-97815676D01*
X167090940Y-97676143D01*
X167268532Y-97498551D01*
X167408065Y-97289725D01*
X167504177Y-97057690D01*
X167553175Y-96811363D01*
X167553175Y-96560209D01*
X167504177Y-96313882D01*
X167408065Y-96081847D01*
X167268532Y-95873021D01*
X167090940Y-95695429D01*
X166882114Y-95555896D01*
X166650079Y-95459784D01*
X166628175Y-95455427D01*
X166628175Y-93295364D01*
X166629868Y-93278175D01*
X166623110Y-93209563D01*
X166603097Y-93143588D01*
X166570597Y-93082785D01*
X166526860Y-93029490D01*
X166513500Y-93018526D01*
X145344974Y-71850000D01*
X165773186Y-71850000D01*
X165780426Y-71923513D01*
X165801869Y-71994200D01*
X165836691Y-72059347D01*
X165883552Y-72116448D01*
X165940653Y-72163309D01*
X166005800Y-72198131D01*
X166076487Y-72219574D01*
X166150000Y-72226814D01*
X166831250Y-72225000D01*
X166925000Y-72131250D01*
X166925000Y-71075000D01*
X167075000Y-71075000D01*
X167075000Y-72131250D01*
X167168750Y-72225000D01*
X167850000Y-72226814D01*
X167923513Y-72219574D01*
X167994200Y-72198131D01*
X168059347Y-72163309D01*
X168116448Y-72116448D01*
X168163309Y-72059347D01*
X168198131Y-71994200D01*
X168219574Y-71923513D01*
X168226814Y-71850000D01*
X168225000Y-71168750D01*
X168131250Y-71075000D01*
X167075000Y-71075000D01*
X166925000Y-71075000D01*
X165868750Y-71075000D01*
X165775000Y-71168750D01*
X165773186Y-71850000D01*
X145344974Y-71850000D01*
X143644974Y-70150000D01*
X165773186Y-70150000D01*
X165775000Y-70831250D01*
X165868750Y-70925000D01*
X166925000Y-70925000D01*
X166925000Y-69868750D01*
X167075000Y-69868750D01*
X167075000Y-70925000D01*
X168131250Y-70925000D01*
X168225000Y-70831250D01*
X168226814Y-70150000D01*
X168219574Y-70076487D01*
X168198131Y-70005800D01*
X168163309Y-69940653D01*
X168116448Y-69883552D01*
X168059347Y-69836691D01*
X167994200Y-69801869D01*
X167923513Y-69780426D01*
X167850000Y-69773186D01*
X167168750Y-69775000D01*
X167075000Y-69868750D01*
X166925000Y-69868750D01*
X166831250Y-69775000D01*
X166150000Y-69773186D01*
X166076487Y-69780426D01*
X166005800Y-69801869D01*
X165940653Y-69836691D01*
X165883552Y-69883552D01*
X165836691Y-69940653D01*
X165801869Y-70005800D01*
X165780426Y-70076487D01*
X165773186Y-70150000D01*
X143644974Y-70150000D01*
X142328492Y-68833518D01*
X149425000Y-68833518D01*
X149425000Y-68966482D01*
X149450940Y-69096890D01*
X149501823Y-69219732D01*
X149575693Y-69330287D01*
X149669713Y-69424307D01*
X149780268Y-69498177D01*
X149903110Y-69549060D01*
X150033518Y-69575000D01*
X150166482Y-69575000D01*
X150296890Y-69549060D01*
X150419732Y-69498177D01*
X150530287Y-69424307D01*
X150624307Y-69330287D01*
X150698177Y-69219732D01*
X150749060Y-69096890D01*
X150775000Y-68966482D01*
X150775000Y-68833518D01*
X150773759Y-68827281D01*
X150827281Y-68773759D01*
X150833518Y-68775000D01*
X150966482Y-68775000D01*
X151096890Y-68749060D01*
X151219732Y-68698177D01*
X151330287Y-68624307D01*
X151424307Y-68530287D01*
X151498177Y-68419732D01*
X151549060Y-68296890D01*
X151575000Y-68166482D01*
X151575000Y-68033518D01*
X151573759Y-68027281D01*
X152076041Y-67525000D01*
X166365954Y-67525000D01*
X166200656Y-67660656D01*
X166060071Y-67831960D01*
X165955607Y-68027398D01*
X165891278Y-68239462D01*
X165869557Y-68460000D01*
X165891278Y-68680538D01*
X165955607Y-68892602D01*
X166060071Y-69088040D01*
X166200656Y-69259344D01*
X166371960Y-69399929D01*
X166567398Y-69504393D01*
X166779462Y-69568722D01*
X166944736Y-69585000D01*
X167055264Y-69585000D01*
X167220538Y-69568722D01*
X167432602Y-69504393D01*
X167628040Y-69399929D01*
X167799344Y-69259344D01*
X167939929Y-69088040D01*
X168044393Y-68892602D01*
X168108722Y-68680538D01*
X168130443Y-68460000D01*
X168108722Y-68239462D01*
X168044393Y-68027398D01*
X167939929Y-67831960D01*
X167799344Y-67660656D01*
X167634046Y-67525000D01*
X167723960Y-67525000D01*
X168484721Y-68285762D01*
X168498026Y-68301974D01*
X168562740Y-68355084D01*
X168636573Y-68394548D01*
X168692383Y-68411478D01*
X168716685Y-68418850D01*
X168725098Y-68419679D01*
X168779126Y-68425000D01*
X168779132Y-68425000D01*
X168799999Y-68427055D01*
X168820866Y-68425000D01*
X171064933Y-68425000D01*
X171143620Y-68572215D01*
X171271709Y-68728291D01*
X171427785Y-68856380D01*
X171605852Y-68951558D01*
X171765543Y-69000000D01*
X171605852Y-69048442D01*
X171427785Y-69143620D01*
X171271709Y-69271709D01*
X171143620Y-69427785D01*
X171048442Y-69605852D01*
X170989831Y-69799065D01*
X170970041Y-70000000D01*
X170989831Y-70200935D01*
X171048442Y-70394148D01*
X171143620Y-70572215D01*
X171271709Y-70728291D01*
X171427785Y-70856380D01*
X171605852Y-70951558D01*
X171678745Y-70973670D01*
X171250000Y-70973670D01*
X171196091Y-70978980D01*
X171144253Y-70994704D01*
X171096479Y-71020240D01*
X171054605Y-71054605D01*
X171020240Y-71096479D01*
X170994704Y-71144253D01*
X170978980Y-71196091D01*
X170973670Y-71250000D01*
X170973670Y-72750000D01*
X170978980Y-72803909D01*
X170994704Y-72855747D01*
X171020240Y-72903521D01*
X171054605Y-72945395D01*
X171072036Y-72959700D01*
X170873024Y-73123024D01*
X170701198Y-73332395D01*
X170573519Y-73571264D01*
X170494895Y-73830453D01*
X170468347Y-74100000D01*
X170494895Y-74369547D01*
X170573519Y-74628736D01*
X170701198Y-74867605D01*
X170873024Y-75076976D01*
X171082395Y-75248802D01*
X171321264Y-75376481D01*
X171580453Y-75455105D01*
X171782451Y-75475000D01*
X173217549Y-75475000D01*
X173419547Y-75455105D01*
X173678736Y-75376481D01*
X173917605Y-75248802D01*
X174126976Y-75076976D01*
X174298802Y-74867605D01*
X174426481Y-74628736D01*
X174505105Y-74369547D01*
X174531653Y-74100000D01*
X174505105Y-73830453D01*
X174426481Y-73571264D01*
X174298802Y-73332395D01*
X174126976Y-73123024D01*
X173927964Y-72959700D01*
X173945395Y-72945395D01*
X173979760Y-72903521D01*
X174005296Y-72855747D01*
X174021020Y-72803909D01*
X174026330Y-72750000D01*
X174026330Y-71250000D01*
X174021020Y-71196091D01*
X174005296Y-71144253D01*
X173979760Y-71096479D01*
X173945395Y-71054605D01*
X173903521Y-71020240D01*
X173855747Y-70994704D01*
X173803909Y-70978980D01*
X173750000Y-70973670D01*
X173321255Y-70973670D01*
X173394148Y-70951558D01*
X173572215Y-70856380D01*
X173728291Y-70728291D01*
X173856380Y-70572215D01*
X173951558Y-70394148D01*
X174010169Y-70200935D01*
X174029959Y-70000000D01*
X174010169Y-69799065D01*
X173951558Y-69605852D01*
X173856380Y-69427785D01*
X173728291Y-69271709D01*
X173572215Y-69143620D01*
X173394148Y-69048442D01*
X173234457Y-69000000D01*
X173394148Y-68951558D01*
X173572215Y-68856380D01*
X173728291Y-68728291D01*
X173856380Y-68572215D01*
X173951558Y-68394148D01*
X174010169Y-68200935D01*
X174029959Y-68000000D01*
X174010169Y-67799065D01*
X173951558Y-67605852D01*
X173856380Y-67427785D01*
X173728291Y-67271709D01*
X173630197Y-67191205D01*
X173678736Y-67176481D01*
X173917605Y-67048802D01*
X174126976Y-66876976D01*
X174298802Y-66667605D01*
X174426481Y-66428736D01*
X174505105Y-66169547D01*
X174531653Y-65900000D01*
X174505105Y-65630453D01*
X174426481Y-65371264D01*
X174298802Y-65132395D01*
X174126976Y-64923024D01*
X173917605Y-64751198D01*
X173678736Y-64623519D01*
X173419547Y-64544895D01*
X173217549Y-64525000D01*
X171782451Y-64525000D01*
X171580453Y-64544895D01*
X171321264Y-64623519D01*
X171082395Y-64751198D01*
X170873024Y-64923024D01*
X170701198Y-65132395D01*
X170573519Y-65371264D01*
X170494895Y-65630453D01*
X170468347Y-65900000D01*
X170494895Y-66169547D01*
X170573519Y-66428736D01*
X170701198Y-66667605D01*
X170873024Y-66876976D01*
X171082395Y-67048802D01*
X171321264Y-67176481D01*
X171369803Y-67191205D01*
X171271709Y-67271709D01*
X171143620Y-67427785D01*
X171064933Y-67575000D01*
X168976041Y-67575000D01*
X168215283Y-66814243D01*
X168201974Y-66798026D01*
X168137260Y-66744916D01*
X168063427Y-66705452D01*
X167983314Y-66681150D01*
X167920874Y-66675000D01*
X167920867Y-66675000D01*
X167900000Y-66672945D01*
X167879133Y-66675000D01*
X151920866Y-66675000D01*
X151899999Y-66672945D01*
X151879132Y-66675000D01*
X151879126Y-66675000D01*
X151825098Y-66680321D01*
X151816685Y-66681150D01*
X151792383Y-66688522D01*
X151736573Y-66705452D01*
X151662740Y-66744916D01*
X151598026Y-66798026D01*
X151584721Y-66814238D01*
X150972719Y-67426241D01*
X150966482Y-67425000D01*
X150833518Y-67425000D01*
X150703110Y-67450940D01*
X150580268Y-67501823D01*
X150469713Y-67575693D01*
X150375693Y-67669713D01*
X150301823Y-67780268D01*
X150250940Y-67903110D01*
X150225000Y-68033518D01*
X150225000Y-68166482D01*
X150226241Y-68172719D01*
X150172719Y-68226241D01*
X150166482Y-68225000D01*
X150033518Y-68225000D01*
X149903110Y-68250940D01*
X149780268Y-68301823D01*
X149669713Y-68375693D01*
X149575693Y-68469713D01*
X149501823Y-68580268D01*
X149450940Y-68703110D01*
X149425000Y-68833518D01*
X142328492Y-68833518D01*
X141571119Y-68076146D01*
X141575000Y-68056633D01*
X141575000Y-67943367D01*
X141552903Y-67832279D01*
X141509558Y-67727635D01*
X141446632Y-67633459D01*
X141366541Y-67553368D01*
X141272365Y-67490442D01*
X141167721Y-67447097D01*
X141056633Y-67425000D01*
X140943367Y-67425000D01*
X140832279Y-67447097D01*
X140727635Y-67490442D01*
X140633459Y-67553368D01*
X140553368Y-67633459D01*
X140490442Y-67727635D01*
X140447097Y-67832279D01*
X140427213Y-67932240D01*
X139859653Y-67364680D01*
X139848685Y-67351315D01*
X139795390Y-67307578D01*
X139734587Y-67275078D01*
X139668612Y-67255065D01*
X139617189Y-67250000D01*
X139617188Y-67250000D01*
X139600000Y-67248307D01*
X139582812Y-67250000D01*
X135057684Y-67250000D01*
X135046632Y-67233459D01*
X134966541Y-67153368D01*
X134872365Y-67090442D01*
X134767721Y-67047097D01*
X134656633Y-67025000D01*
X134543367Y-67025000D01*
X134432279Y-67047097D01*
X134327635Y-67090442D01*
X134233459Y-67153368D01*
X134153368Y-67233459D01*
X134090442Y-67327635D01*
X134047097Y-67432279D01*
X134025000Y-67543367D01*
X134025000Y-67656633D01*
X134028881Y-67676145D01*
X130764676Y-70940351D01*
X130751316Y-70951315D01*
X130707579Y-71004610D01*
X130680856Y-71054605D01*
X130675079Y-71065413D01*
X130655065Y-71131389D01*
X130648307Y-71200000D01*
X130650001Y-71217198D01*
X130650000Y-75642316D01*
X130633459Y-75653368D01*
X130553368Y-75733459D01*
X130490442Y-75827635D01*
X130454191Y-75915153D01*
X128825000Y-74285962D01*
X128825000Y-67727840D01*
X128830287Y-67724307D01*
X128924307Y-67630287D01*
X128998177Y-67519732D01*
X129049060Y-67396890D01*
X129075000Y-67266482D01*
X129075000Y-67133518D01*
X129049060Y-67003110D01*
X128998177Y-66880268D01*
X128924307Y-66769713D01*
X128830287Y-66675693D01*
X128719732Y-66601823D01*
X128596890Y-66550940D01*
X128466482Y-66525000D01*
X128333518Y-66525000D01*
X128203110Y-66550940D01*
X128080268Y-66601823D01*
X127969713Y-66675693D01*
X127875693Y-66769713D01*
X127801823Y-66880268D01*
X127750940Y-67003110D01*
X127725000Y-67133518D01*
X126661456Y-67133518D01*
X130394975Y-63400000D01*
X135680763Y-63400000D01*
X136316091Y-64035330D01*
X136327051Y-64048685D01*
X136380346Y-64092422D01*
X136441149Y-64124922D01*
X136487110Y-64138864D01*
X136507123Y-64144935D01*
X136541172Y-64148289D01*
X136553368Y-64166541D01*
X136633459Y-64246632D01*
X136727635Y-64309558D01*
X136832279Y-64352903D01*
X136943367Y-64375000D01*
X137056633Y-64375000D01*
X137167721Y-64352903D01*
X137272365Y-64309558D01*
X137366541Y-64246632D01*
X137446632Y-64166541D01*
X137509558Y-64072365D01*
X137552903Y-63967721D01*
X137575000Y-63856633D01*
X137575000Y-63743367D01*
X137552903Y-63632279D01*
X137509558Y-63527635D01*
X137446632Y-63433459D01*
X137366541Y-63353368D01*
X137272365Y-63290442D01*
X137167721Y-63247097D01*
X137056633Y-63225000D01*
X136943367Y-63225000D01*
X136832279Y-63247097D01*
X136727635Y-63290442D01*
X136633459Y-63353368D01*
X136628769Y-63358058D01*
X136085389Y-62814680D01*
X136074421Y-62801315D01*
X136021126Y-62757578D01*
X135960323Y-62725078D01*
X135894348Y-62705065D01*
X135842925Y-62700000D01*
X135842924Y-62700000D01*
X135825736Y-62698307D01*
X135808548Y-62700000D01*
X130267185Y-62700000D01*
X130249999Y-62698307D01*
X130232813Y-62700000D01*
X130232811Y-62700000D01*
X130181388Y-62705065D01*
X130115413Y-62725078D01*
X130054610Y-62757578D01*
X130001315Y-62801315D01*
X129990356Y-62814669D01*
X103482695Y-89322332D01*
X103469335Y-89333296D01*
X103425598Y-89386591D01*
X103393098Y-89447394D01*
X103373084Y-89513370D01*
X103366326Y-89581981D01*
X103368020Y-89599179D01*
X103368019Y-95451622D01*
X103346115Y-95455979D01*
X103114080Y-95552091D01*
X102905254Y-95691624D01*
X102727662Y-95869216D01*
X102588129Y-96078042D01*
X102492017Y-96310077D01*
X102443019Y-96556404D01*
X95300000Y-96556404D01*
X95300000Y-72279046D01*
X117475000Y-72279046D01*
X117475000Y-72480954D01*
X117514390Y-72678982D01*
X117591656Y-72865520D01*
X117703830Y-73033400D01*
X117846600Y-73176170D01*
X118014480Y-73288344D01*
X118201018Y-73365610D01*
X118399046Y-73405000D01*
X118600954Y-73405000D01*
X118798982Y-73365610D01*
X118985520Y-73288344D01*
X119153400Y-73176170D01*
X119296170Y-73033400D01*
X119408344Y-72865520D01*
X119485610Y-72678982D01*
X119525000Y-72480954D01*
X119525000Y-72279046D01*
X119485610Y-72081018D01*
X119408344Y-71894480D01*
X119296170Y-71726600D01*
X119153400Y-71583830D01*
X118985520Y-71471656D01*
X118798982Y-71394390D01*
X118600954Y-71355000D01*
X118399046Y-71355000D01*
X118201018Y-71394390D01*
X118014480Y-71471656D01*
X117846600Y-71583830D01*
X117703830Y-71726600D01*
X117591656Y-71894480D01*
X117514390Y-72081018D01*
X117475000Y-72279046D01*
X95300000Y-72279046D01*
X95300000Y-67399046D01*
X117475000Y-67399046D01*
X117475000Y-67600954D01*
X117514390Y-67798982D01*
X117591656Y-67985520D01*
X117703830Y-68153400D01*
X117846600Y-68296170D01*
X118014480Y-68408344D01*
X118201018Y-68485610D01*
X118399046Y-68525000D01*
X118600954Y-68525000D01*
X118798982Y-68485610D01*
X118985520Y-68408344D01*
X119153400Y-68296170D01*
X119296170Y-68153400D01*
X119408344Y-67985520D01*
X119485610Y-67798982D01*
X119525000Y-67600954D01*
X119525000Y-67399046D01*
X119485610Y-67201018D01*
X119408344Y-67014480D01*
X119296170Y-66846600D01*
X119153400Y-66703830D01*
X118985520Y-66591656D01*
X118798982Y-66514390D01*
X118600954Y-66475000D01*
X118399046Y-66475000D01*
X118201018Y-66514390D01*
X118014480Y-66591656D01*
X117846600Y-66703830D01*
X117703830Y-66846600D01*
X117591656Y-67014480D01*
X117514390Y-67201018D01*
X117475000Y-67399046D01*
X95300000Y-67399046D01*
X95300000Y-55000000D01*
X132604557Y-55000000D01*
X132626278Y-55220538D01*
X132690607Y-55432602D01*
X132795071Y-55628040D01*
X132935656Y-55799344D01*
X133106960Y-55939929D01*
X133302398Y-56044393D01*
X133514462Y-56108722D01*
X133679736Y-56125000D01*
X133790264Y-56125000D01*
X133955538Y-56108722D01*
X134167602Y-56044393D01*
X134363040Y-55939929D01*
X134472619Y-55850000D01*
X135048186Y-55850000D01*
X135055426Y-55923513D01*
X135076869Y-55994200D01*
X135111691Y-56059347D01*
X135158552Y-56116448D01*
X135215653Y-56163309D01*
X135280800Y-56198131D01*
X135351487Y-56219574D01*
X135425000Y-56226814D01*
X136106250Y-56225000D01*
X136200000Y-56131250D01*
X136200000Y-55075000D01*
X136350000Y-55075000D01*
X136350000Y-56131250D01*
X136443750Y-56225000D01*
X137125000Y-56226814D01*
X137198513Y-56219574D01*
X137269200Y-56198131D01*
X137334347Y-56163309D01*
X137391448Y-56116448D01*
X137438309Y-56059347D01*
X137473131Y-55994200D01*
X137494574Y-55923513D01*
X137501814Y-55850000D01*
X137500000Y-55168750D01*
X137406250Y-55075000D01*
X136350000Y-55075000D01*
X136200000Y-55075000D01*
X135143750Y-55075000D01*
X135050000Y-55168750D01*
X135048186Y-55850000D01*
X134472619Y-55850000D01*
X134534344Y-55799344D01*
X134674929Y-55628040D01*
X134779393Y-55432602D01*
X134843722Y-55220538D01*
X134865443Y-55000000D01*
X134843722Y-54779462D01*
X134779393Y-54567398D01*
X134674929Y-54371960D01*
X134534344Y-54200656D01*
X134472620Y-54150000D01*
X135048186Y-54150000D01*
X135050000Y-54831250D01*
X135143750Y-54925000D01*
X136200000Y-54925000D01*
X136200000Y-53868750D01*
X136350000Y-53868750D01*
X136350000Y-54925000D01*
X137406250Y-54925000D01*
X137500000Y-54831250D01*
X137501814Y-54150000D01*
X137494574Y-54076487D01*
X137473131Y-54005800D01*
X137438309Y-53940653D01*
X137391448Y-53883552D01*
X137334347Y-53836691D01*
X137269200Y-53801869D01*
X137198513Y-53780426D01*
X137125000Y-53773186D01*
X136443750Y-53775000D01*
X136350000Y-53868750D01*
X136200000Y-53868750D01*
X136106250Y-53775000D01*
X135425000Y-53773186D01*
X135351487Y-53780426D01*
X135280800Y-53801869D01*
X135215653Y-53836691D01*
X135158552Y-53883552D01*
X135111691Y-53940653D01*
X135076869Y-54005800D01*
X135055426Y-54076487D01*
X135048186Y-54150000D01*
X134472620Y-54150000D01*
X134363040Y-54060071D01*
X134167602Y-53955607D01*
X133955538Y-53891278D01*
X133790264Y-53875000D01*
X133679736Y-53875000D01*
X133514462Y-53891278D01*
X133302398Y-53955607D01*
X133106960Y-54060071D01*
X132935656Y-54200656D01*
X132795071Y-54371960D01*
X132690607Y-54567398D01*
X132626278Y-54779462D01*
X132604557Y-55000000D01*
X95300000Y-55000000D01*
X95300000Y-46786090D01*
X105552908Y-46786090D01*
X105635421Y-47044067D01*
X105766677Y-47280989D01*
X105941633Y-47487752D01*
X106153564Y-47656410D01*
X106394327Y-47780482D01*
X106613910Y-47847092D01*
X106828806Y-47781911D01*
X106828806Y-46571194D01*
X106978806Y-46571194D01*
X106978806Y-47781911D01*
X107193702Y-47847092D01*
X107451679Y-47764579D01*
X107688601Y-47633323D01*
X107895364Y-47458367D01*
X108064022Y-47246436D01*
X108188094Y-47005673D01*
X108253549Y-46789896D01*
X161749102Y-46789896D01*
X161831615Y-47047873D01*
X161962871Y-47284795D01*
X162137827Y-47491558D01*
X162349758Y-47660216D01*
X162590521Y-47784288D01*
X162810104Y-47850898D01*
X163025000Y-47785717D01*
X163025000Y-46575000D01*
X163175000Y-46575000D01*
X163175000Y-47785717D01*
X163389896Y-47850898D01*
X163647873Y-47768385D01*
X163884795Y-47637129D01*
X164091558Y-47462173D01*
X164260216Y-47250242D01*
X164384288Y-47009479D01*
X164450898Y-46789896D01*
X164385717Y-46575000D01*
X163175000Y-46575000D01*
X163025000Y-46575000D01*
X161814283Y-46575000D01*
X161749102Y-46789896D01*
X108253549Y-46789896D01*
X108254704Y-46786090D01*
X108189523Y-46571194D01*
X106978806Y-46571194D01*
X106828806Y-46571194D01*
X105618089Y-46571194D01*
X105552908Y-46786090D01*
X95300000Y-46786090D01*
X95300000Y-46206298D01*
X105552908Y-46206298D01*
X105618089Y-46421194D01*
X106828806Y-46421194D01*
X106828806Y-45210477D01*
X106978806Y-45210477D01*
X106978806Y-46421194D01*
X108189523Y-46421194D01*
X108253549Y-46210104D01*
X161749102Y-46210104D01*
X161814283Y-46425000D01*
X163025000Y-46425000D01*
X163025000Y-45214283D01*
X163175000Y-45214283D01*
X163175000Y-46425000D01*
X164385717Y-46425000D01*
X164450898Y-46210104D01*
X164368385Y-45952127D01*
X164237129Y-45715205D01*
X164062173Y-45508442D01*
X163850242Y-45339784D01*
X163609479Y-45215712D01*
X163389896Y-45149102D01*
X163175000Y-45214283D01*
X163025000Y-45214283D01*
X162810104Y-45149102D01*
X162552127Y-45231615D01*
X162315205Y-45362871D01*
X162108442Y-45537827D01*
X161939784Y-45749758D01*
X161815712Y-45990521D01*
X161749102Y-46210104D01*
X108253549Y-46210104D01*
X108254704Y-46206298D01*
X108172191Y-45948321D01*
X108040935Y-45711399D01*
X107865979Y-45504636D01*
X107654048Y-45335978D01*
X107413285Y-45211906D01*
X107193702Y-45145296D01*
X106978806Y-45210477D01*
X106828806Y-45210477D01*
X106613910Y-45145296D01*
X106355933Y-45227809D01*
X106119011Y-45359065D01*
X105912248Y-45534021D01*
X105743590Y-45745952D01*
X105619518Y-45986715D01*
X105552908Y-46206298D01*
X95300000Y-46206298D01*
X95300000Y-43188637D01*
X102446825Y-43188637D01*
X102446825Y-43439791D01*
X102495823Y-43686118D01*
X102591935Y-43918153D01*
X102731468Y-44126979D01*
X102909060Y-44304571D01*
X103117886Y-44444104D01*
X103349921Y-44540216D01*
X103596248Y-44589214D01*
X103847402Y-44589214D01*
X104093729Y-44540216D01*
X104325764Y-44444104D01*
X104534590Y-44304571D01*
X104712182Y-44126979D01*
X104851715Y-43918153D01*
X104947827Y-43686118D01*
X104996825Y-43439791D01*
X104996825Y-43188637D01*
X104947827Y-42942310D01*
X104851715Y-42710275D01*
X104712182Y-42501449D01*
X104534590Y-42323857D01*
X104334104Y-42189896D01*
X110149102Y-42189896D01*
X110231615Y-42447873D01*
X110362871Y-42684795D01*
X110537827Y-42891558D01*
X110749758Y-43060216D01*
X110990521Y-43184288D01*
X111210104Y-43250898D01*
X111425000Y-43185717D01*
X111425000Y-41975000D01*
X111575000Y-41975000D01*
X111575000Y-43185717D01*
X111789896Y-43250898D01*
X112047873Y-43168385D01*
X112284795Y-43037129D01*
X112491558Y-42862173D01*
X112660216Y-42650242D01*
X112784288Y-42409479D01*
X112849743Y-42193702D01*
X157152908Y-42193702D01*
X157235421Y-42451679D01*
X157366677Y-42688601D01*
X157541633Y-42895364D01*
X157753564Y-43064022D01*
X157994327Y-43188094D01*
X158213910Y-43254704D01*
X158428806Y-43189523D01*
X158428806Y-41978806D01*
X158578806Y-41978806D01*
X158578806Y-43189523D01*
X158793702Y-43254704D01*
X158988364Y-43192442D01*
X165006981Y-43192442D01*
X165006981Y-43443596D01*
X165055979Y-43689923D01*
X165152091Y-43921958D01*
X165291624Y-44130784D01*
X165469216Y-44308376D01*
X165678042Y-44447909D01*
X165910077Y-44544021D01*
X166156404Y-44593019D01*
X166407558Y-44593019D01*
X166653885Y-44544021D01*
X166885920Y-44447909D01*
X167094746Y-44308376D01*
X167272338Y-44130784D01*
X167411871Y-43921958D01*
X167507983Y-43689923D01*
X167556981Y-43443596D01*
X167556981Y-43192442D01*
X167507983Y-42946115D01*
X167411871Y-42714080D01*
X167272338Y-42505254D01*
X167094746Y-42327662D01*
X166885920Y-42188129D01*
X166653885Y-42092017D01*
X166407558Y-42043019D01*
X166156404Y-42043019D01*
X165910077Y-42092017D01*
X165678042Y-42188129D01*
X165469216Y-42327662D01*
X165291624Y-42505254D01*
X165152091Y-42714080D01*
X165055979Y-42946115D01*
X165006981Y-43192442D01*
X158988364Y-43192442D01*
X159051679Y-43172191D01*
X159288601Y-43040935D01*
X159495364Y-42865979D01*
X159664022Y-42654048D01*
X159788094Y-42413285D01*
X159854704Y-42193702D01*
X159789523Y-41978806D01*
X158578806Y-41978806D01*
X158428806Y-41978806D01*
X157218089Y-41978806D01*
X157152908Y-42193702D01*
X112849743Y-42193702D01*
X112850898Y-42189896D01*
X112785717Y-41975000D01*
X111575000Y-41975000D01*
X111425000Y-41975000D01*
X110214283Y-41975000D01*
X110149102Y-42189896D01*
X104334104Y-42189896D01*
X104325764Y-42184324D01*
X104093729Y-42088212D01*
X103847402Y-42039214D01*
X103596248Y-42039214D01*
X103349921Y-42088212D01*
X103117886Y-42184324D01*
X102909060Y-42323857D01*
X102731468Y-42501449D01*
X102591935Y-42710275D01*
X102495823Y-42942310D01*
X102446825Y-43188637D01*
X95300000Y-43188637D01*
X95300000Y-41610104D01*
X110149102Y-41610104D01*
X110214283Y-41825000D01*
X111425000Y-41825000D01*
X111425000Y-40614283D01*
X111575000Y-40614283D01*
X111575000Y-41825000D01*
X112785717Y-41825000D01*
X112849743Y-41613910D01*
X157152908Y-41613910D01*
X157218089Y-41828806D01*
X158428806Y-41828806D01*
X158428806Y-40618089D01*
X158578806Y-40618089D01*
X158578806Y-41828806D01*
X159789523Y-41828806D01*
X159854704Y-41613910D01*
X159772191Y-41355933D01*
X159640935Y-41119011D01*
X159465979Y-40912248D01*
X159254048Y-40743590D01*
X159013285Y-40619518D01*
X158793702Y-40552908D01*
X158578806Y-40618089D01*
X158428806Y-40618089D01*
X158213910Y-40552908D01*
X157955933Y-40635421D01*
X157719011Y-40766677D01*
X157512248Y-40941633D01*
X157343590Y-41153564D01*
X157219518Y-41394327D01*
X157152908Y-41613910D01*
X112849743Y-41613910D01*
X112850898Y-41610104D01*
X112768385Y-41352127D01*
X112637129Y-41115205D01*
X112462173Y-40908442D01*
X112250242Y-40739784D01*
X112009479Y-40615712D01*
X111789896Y-40549102D01*
X111575000Y-40614283D01*
X111425000Y-40614283D01*
X111210104Y-40549102D01*
X110952127Y-40631615D01*
X110715205Y-40762871D01*
X110508442Y-40937827D01*
X110339784Y-41149758D01*
X110215712Y-41390521D01*
X110149102Y-41610104D01*
X95300000Y-41610104D01*
X95300000Y-41009029D01*
X95378036Y-39714607D01*
X95582980Y-38592442D01*
X107043019Y-38592442D01*
X107043019Y-38843596D01*
X107092017Y-39089923D01*
X107188129Y-39321958D01*
X107327662Y-39530784D01*
X107505254Y-39708376D01*
X107714080Y-39847909D01*
X107946115Y-39944021D01*
X108192442Y-39993019D01*
X108443596Y-39993019D01*
X108689923Y-39944021D01*
X108921958Y-39847909D01*
X109130784Y-39708376D01*
X109308376Y-39530784D01*
X109447909Y-39321958D01*
X109544021Y-39089923D01*
X109593019Y-38843596D01*
X109593019Y-38596248D01*
X160410786Y-38596248D01*
X160410786Y-38847402D01*
X160459784Y-39093729D01*
X160555896Y-39325764D01*
X160695429Y-39534590D01*
X160873021Y-39712182D01*
X161081847Y-39851715D01*
X161313882Y-39947827D01*
X161560209Y-39996825D01*
X161811363Y-39996825D01*
X162057690Y-39947827D01*
X162289725Y-39851715D01*
X162498551Y-39712182D01*
X162676143Y-39534590D01*
X162815676Y-39325764D01*
X162911788Y-39093729D01*
X162960786Y-38847402D01*
X162960786Y-38596248D01*
X162911788Y-38349921D01*
X162815676Y-38117886D01*
X162676143Y-37909060D01*
X162498551Y-37731468D01*
X162289725Y-37591935D01*
X162057690Y-37495823D01*
X161811363Y-37446825D01*
X161560209Y-37446825D01*
X161313882Y-37495823D01*
X161081847Y-37591935D01*
X160873021Y-37731468D01*
X160695429Y-37909060D01*
X160555896Y-38117886D01*
X160459784Y-38349921D01*
X160410786Y-38596248D01*
X109593019Y-38596248D01*
X109593019Y-38592442D01*
X109544021Y-38346115D01*
X109447909Y-38114080D01*
X109308376Y-37905254D01*
X109130784Y-37727662D01*
X108921958Y-37588129D01*
X108689923Y-37492017D01*
X108443596Y-37443019D01*
X108192442Y-37443019D01*
X107946115Y-37492017D01*
X107714080Y-37588129D01*
X107505254Y-37727662D01*
X107327662Y-37905254D01*
X107188129Y-38114080D01*
X107092017Y-38346115D01*
X107043019Y-38592442D01*
X95582980Y-38592442D01*
X95609393Y-38447821D01*
X95991260Y-37218009D01*
X96518106Y-36042983D01*
X97182300Y-34939760D01*
X97974217Y-33924326D01*
X98882396Y-33011379D01*
X99893679Y-32214148D01*
X100993405Y-31544190D01*
X102165663Y-31011196D01*
X103393451Y-30622898D01*
X104658997Y-30384913D01*
X105952622Y-30300125D01*
X106000405Y-30300000D01*
X163990971Y-30300000D01*
X165285393Y-30378036D01*
M02*
