G04 #@! TF.GenerationSoftware,KiCad,Pcbnew,(5.1.4)-1*
G04 #@! TF.CreationDate,2019-10-23T12:43:35-04:00*
G04 #@! TF.ProjectId,RepeatGame,52657065-6174-4476-916d-652e6b696361,A*
G04 #@! TF.SameCoordinates,Original*
G04 #@! TF.FileFunction,Legend,Bot*
G04 #@! TF.FilePolarity,Positive*
%FSLAX46Y46*%
G04 Gerber Fmt 4.6, Leading zero omitted, Abs format (unit mm)*
G04 Created by KiCad (PCBNEW (5.1.4)-1) date 2019-10-23 12:43:35*
%MOMM*%
%LPD*%
G04 APERTURE LIST*
%ADD10C,0.150000*%
%ADD11C,0.120000*%
G04 APERTURE END LIST*
D10*
X139619047Y-106452380D02*
X139619047Y-107166666D01*
X139666666Y-107309523D01*
X139761904Y-107404761D01*
X139904761Y-107452380D01*
X140000000Y-107452380D01*
X138666666Y-107452380D02*
X139142857Y-107452380D01*
X139142857Y-106452380D01*
X137761904Y-107357142D02*
X137809523Y-107404761D01*
X137952380Y-107452380D01*
X138047619Y-107452380D01*
X138190476Y-107404761D01*
X138285714Y-107309523D01*
X138333333Y-107214285D01*
X138380952Y-107023809D01*
X138380952Y-106880952D01*
X138333333Y-106690476D01*
X138285714Y-106595238D01*
X138190476Y-106500000D01*
X138047619Y-106452380D01*
X137952380Y-106452380D01*
X137809523Y-106500000D01*
X137761904Y-106547619D01*
X137047619Y-106452380D02*
X137047619Y-107166666D01*
X137095238Y-107309523D01*
X137190476Y-107404761D01*
X137333333Y-107452380D01*
X137428571Y-107452380D01*
X136095238Y-107452380D02*
X136571428Y-107452380D01*
X136571428Y-106452380D01*
X135190476Y-107357142D02*
X135238095Y-107404761D01*
X135380952Y-107452380D01*
X135476190Y-107452380D01*
X135619047Y-107404761D01*
X135714285Y-107309523D01*
X135761904Y-107214285D01*
X135809523Y-107023809D01*
X135809523Y-106880952D01*
X135761904Y-106690476D01*
X135714285Y-106595238D01*
X135619047Y-106500000D01*
X135476190Y-106452380D01*
X135380952Y-106452380D01*
X135238095Y-106500000D01*
X135190476Y-106547619D01*
X134476190Y-106452380D02*
X134476190Y-107166666D01*
X134523809Y-107309523D01*
X134619047Y-107404761D01*
X134761904Y-107452380D01*
X134857142Y-107452380D01*
X133523809Y-107452380D02*
X134000000Y-107452380D01*
X134000000Y-106452380D01*
X132619047Y-107357142D02*
X132666666Y-107404761D01*
X132809523Y-107452380D01*
X132904761Y-107452380D01*
X133047619Y-107404761D01*
X133142857Y-107309523D01*
X133190476Y-107214285D01*
X133238095Y-107023809D01*
X133238095Y-106880952D01*
X133190476Y-106690476D01*
X133142857Y-106595238D01*
X133047619Y-106500000D01*
X132904761Y-106452380D01*
X132809523Y-106452380D01*
X132666666Y-106500000D01*
X132619047Y-106547619D01*
X131904761Y-106452380D02*
X131904761Y-107166666D01*
X131952380Y-107309523D01*
X132047619Y-107404761D01*
X132190476Y-107452380D01*
X132285714Y-107452380D01*
X130952380Y-107452380D02*
X131428571Y-107452380D01*
X131428571Y-106452380D01*
X130047619Y-107357142D02*
X130095238Y-107404761D01*
X130238095Y-107452380D01*
X130333333Y-107452380D01*
X130476190Y-107404761D01*
X130571428Y-107309523D01*
X130619047Y-107214285D01*
X130666666Y-107023809D01*
X130666666Y-106880952D01*
X130619047Y-106690476D01*
X130571428Y-106595238D01*
X130476190Y-106500000D01*
X130333333Y-106452380D01*
X130238095Y-106452380D01*
X130095238Y-106500000D01*
X130047619Y-106547619D01*
X143092976Y-33802380D02*
X143426309Y-33326190D01*
X143664404Y-33802380D02*
X143664404Y-32802380D01*
X143283452Y-32802380D01*
X143188214Y-32850000D01*
X143140595Y-32897619D01*
X143092976Y-32992857D01*
X143092976Y-33135714D01*
X143140595Y-33230952D01*
X143188214Y-33278571D01*
X143283452Y-33326190D01*
X143664404Y-33326190D01*
X142283452Y-33754761D02*
X142378690Y-33802380D01*
X142569166Y-33802380D01*
X142664404Y-33754761D01*
X142712023Y-33659523D01*
X142712023Y-33278571D01*
X142664404Y-33183333D01*
X142569166Y-33135714D01*
X142378690Y-33135714D01*
X142283452Y-33183333D01*
X142235833Y-33278571D01*
X142235833Y-33373809D01*
X142712023Y-33469047D01*
X141807261Y-33135714D02*
X141807261Y-34135714D01*
X141807261Y-33183333D02*
X141712023Y-33135714D01*
X141521547Y-33135714D01*
X141426309Y-33183333D01*
X141378690Y-33230952D01*
X141331071Y-33326190D01*
X141331071Y-33611904D01*
X141378690Y-33707142D01*
X141426309Y-33754761D01*
X141521547Y-33802380D01*
X141712023Y-33802380D01*
X141807261Y-33754761D01*
X140521547Y-33754761D02*
X140616785Y-33802380D01*
X140807261Y-33802380D01*
X140902500Y-33754761D01*
X140950119Y-33659523D01*
X140950119Y-33278571D01*
X140902500Y-33183333D01*
X140807261Y-33135714D01*
X140616785Y-33135714D01*
X140521547Y-33183333D01*
X140473928Y-33278571D01*
X140473928Y-33373809D01*
X140950119Y-33469047D01*
X139616785Y-33802380D02*
X139616785Y-33278571D01*
X139664404Y-33183333D01*
X139759642Y-33135714D01*
X139950119Y-33135714D01*
X140045357Y-33183333D01*
X139616785Y-33754761D02*
X139712023Y-33802380D01*
X139950119Y-33802380D01*
X140045357Y-33754761D01*
X140092976Y-33659523D01*
X140092976Y-33564285D01*
X140045357Y-33469047D01*
X139950119Y-33421428D01*
X139712023Y-33421428D01*
X139616785Y-33373809D01*
X139283452Y-33135714D02*
X138902500Y-33135714D01*
X139140595Y-32802380D02*
X139140595Y-33659523D01*
X139092976Y-33754761D01*
X138997738Y-33802380D01*
X138902500Y-33802380D01*
X137283452Y-32850000D02*
X137378690Y-32802380D01*
X137521547Y-32802380D01*
X137664404Y-32850000D01*
X137759642Y-32945238D01*
X137807261Y-33040476D01*
X137854880Y-33230952D01*
X137854880Y-33373809D01*
X137807261Y-33564285D01*
X137759642Y-33659523D01*
X137664404Y-33754761D01*
X137521547Y-33802380D01*
X137426309Y-33802380D01*
X137283452Y-33754761D01*
X137235833Y-33707142D01*
X137235833Y-33373809D01*
X137426309Y-33373809D01*
X136378690Y-33802380D02*
X136378690Y-33278571D01*
X136426309Y-33183333D01*
X136521547Y-33135714D01*
X136712023Y-33135714D01*
X136807261Y-33183333D01*
X136378690Y-33754761D02*
X136473928Y-33802380D01*
X136712023Y-33802380D01*
X136807261Y-33754761D01*
X136854880Y-33659523D01*
X136854880Y-33564285D01*
X136807261Y-33469047D01*
X136712023Y-33421428D01*
X136473928Y-33421428D01*
X136378690Y-33373809D01*
X135902500Y-33802380D02*
X135902500Y-33135714D01*
X135902500Y-33230952D02*
X135854880Y-33183333D01*
X135759642Y-33135714D01*
X135616785Y-33135714D01*
X135521547Y-33183333D01*
X135473928Y-33278571D01*
X135473928Y-33802380D01*
X135473928Y-33278571D02*
X135426309Y-33183333D01*
X135331071Y-33135714D01*
X135188214Y-33135714D01*
X135092976Y-33183333D01*
X135045357Y-33278571D01*
X135045357Y-33802380D01*
X134188214Y-33754761D02*
X134283452Y-33802380D01*
X134473928Y-33802380D01*
X134569166Y-33754761D01*
X134616785Y-33659523D01*
X134616785Y-33278571D01*
X134569166Y-33183333D01*
X134473928Y-33135714D01*
X134283452Y-33135714D01*
X134188214Y-33183333D01*
X134140595Y-33278571D01*
X134140595Y-33373809D01*
X134616785Y-33469047D01*
X132378690Y-33802380D02*
X132712023Y-33326190D01*
X132950119Y-33802380D02*
X132950119Y-32802380D01*
X132569166Y-32802380D01*
X132473928Y-32850000D01*
X132426309Y-32897619D01*
X132378690Y-32992857D01*
X132378690Y-33135714D01*
X132426309Y-33230952D01*
X132473928Y-33278571D01*
X132569166Y-33326190D01*
X132950119Y-33326190D01*
X131569166Y-33754761D02*
X131664404Y-33802380D01*
X131854880Y-33802380D01*
X131950119Y-33754761D01*
X131997738Y-33659523D01*
X131997738Y-33278571D01*
X131950119Y-33183333D01*
X131854880Y-33135714D01*
X131664404Y-33135714D01*
X131569166Y-33183333D01*
X131521547Y-33278571D01*
X131521547Y-33373809D01*
X131997738Y-33469047D01*
X131188214Y-33135714D02*
X130950119Y-33802380D01*
X130712023Y-33135714D01*
X129616785Y-33516666D02*
X129140595Y-33516666D01*
X129712023Y-33802380D02*
X129378690Y-32802380D01*
X129045357Y-33802380D01*
X143712023Y-34547619D02*
X143664404Y-34500000D01*
X143569166Y-34452380D01*
X143331071Y-34452380D01*
X143235833Y-34500000D01*
X143188214Y-34547619D01*
X143140595Y-34642857D01*
X143140595Y-34738095D01*
X143188214Y-34880952D01*
X143759642Y-35452380D01*
X143140595Y-35452380D01*
X142521547Y-34452380D02*
X142426309Y-34452380D01*
X142331071Y-34500000D01*
X142283452Y-34547619D01*
X142235833Y-34642857D01*
X142188214Y-34833333D01*
X142188214Y-35071428D01*
X142235833Y-35261904D01*
X142283452Y-35357142D01*
X142331071Y-35404761D01*
X142426309Y-35452380D01*
X142521547Y-35452380D01*
X142616785Y-35404761D01*
X142664404Y-35357142D01*
X142712023Y-35261904D01*
X142759642Y-35071428D01*
X142759642Y-34833333D01*
X142712023Y-34642857D01*
X142664404Y-34547619D01*
X142616785Y-34500000D01*
X142521547Y-34452380D01*
X141235833Y-35452380D02*
X141807261Y-35452380D01*
X141521547Y-35452380D02*
X141521547Y-34452380D01*
X141616785Y-34595238D01*
X141712023Y-34690476D01*
X141807261Y-34738095D01*
X140759642Y-35452380D02*
X140569166Y-35452380D01*
X140473928Y-35404761D01*
X140426309Y-35357142D01*
X140331071Y-35214285D01*
X140283452Y-35023809D01*
X140283452Y-34642857D01*
X140331071Y-34547619D01*
X140378690Y-34500000D01*
X140473928Y-34452380D01*
X140664404Y-34452380D01*
X140759642Y-34500000D01*
X140807261Y-34547619D01*
X140854880Y-34642857D01*
X140854880Y-34880952D01*
X140807261Y-34976190D01*
X140759642Y-35023809D01*
X140664404Y-35071428D01*
X140473928Y-35071428D01*
X140378690Y-35023809D01*
X140331071Y-34976190D01*
X140283452Y-34880952D01*
X139092976Y-35452380D02*
X139092976Y-34452380D01*
X138854880Y-34452380D01*
X138712023Y-34500000D01*
X138616785Y-34595238D01*
X138569166Y-34690476D01*
X138521547Y-34880952D01*
X138521547Y-35023809D01*
X138569166Y-35214285D01*
X138616785Y-35309523D01*
X138712023Y-35404761D01*
X138854880Y-35452380D01*
X139092976Y-35452380D01*
X137950119Y-35452380D02*
X138045357Y-35404761D01*
X138092976Y-35357142D01*
X138140595Y-35261904D01*
X138140595Y-34976190D01*
X138092976Y-34880952D01*
X138045357Y-34833333D01*
X137950119Y-34785714D01*
X137807261Y-34785714D01*
X137712023Y-34833333D01*
X137664404Y-34880952D01*
X137616785Y-34976190D01*
X137616785Y-35261904D01*
X137664404Y-35357142D01*
X137712023Y-35404761D01*
X137807261Y-35452380D01*
X137950119Y-35452380D01*
X137188214Y-35452380D02*
X137188214Y-34785714D01*
X137188214Y-34880952D02*
X137140595Y-34833333D01*
X137045357Y-34785714D01*
X136902500Y-34785714D01*
X136807261Y-34833333D01*
X136759642Y-34928571D01*
X136759642Y-35452380D01*
X136759642Y-34928571D02*
X136712023Y-34833333D01*
X136616785Y-34785714D01*
X136473928Y-34785714D01*
X136378690Y-34833333D01*
X136331071Y-34928571D01*
X136331071Y-35452380D01*
X135854880Y-35452380D02*
X135854880Y-34785714D01*
X135854880Y-34452380D02*
X135902500Y-34500000D01*
X135854880Y-34547619D01*
X135807261Y-34500000D01*
X135854880Y-34452380D01*
X135854880Y-34547619D01*
X135378690Y-34785714D02*
X135378690Y-35452380D01*
X135378690Y-34880952D02*
X135331071Y-34833333D01*
X135235833Y-34785714D01*
X135092976Y-34785714D01*
X134997738Y-34833333D01*
X134950119Y-34928571D01*
X134950119Y-35452380D01*
X134473928Y-35452380D02*
X134473928Y-34785714D01*
X134473928Y-34452380D02*
X134521547Y-34500000D01*
X134473928Y-34547619D01*
X134426309Y-34500000D01*
X134473928Y-34452380D01*
X134473928Y-34547619D01*
X133569166Y-35404761D02*
X133664404Y-35452380D01*
X133854880Y-35452380D01*
X133950119Y-35404761D01*
X133997738Y-35357142D01*
X134045357Y-35261904D01*
X134045357Y-34976190D01*
X133997738Y-34880952D01*
X133950119Y-34833333D01*
X133854880Y-34785714D01*
X133664404Y-34785714D01*
X133569166Y-34833333D01*
X132521547Y-34452380D02*
X131950119Y-34452380D01*
X132235833Y-35452380D02*
X132235833Y-34452380D01*
X131616785Y-35452380D02*
X131616785Y-34452380D01*
X131188214Y-35452380D02*
X131188214Y-34928571D01*
X131235833Y-34833333D01*
X131331071Y-34785714D01*
X131473928Y-34785714D01*
X131569166Y-34833333D01*
X131616785Y-34880952D01*
X130712023Y-35452380D02*
X130712023Y-34785714D01*
X130712023Y-34452380D02*
X130759642Y-34500000D01*
X130712023Y-34547619D01*
X130664404Y-34500000D01*
X130712023Y-34452380D01*
X130712023Y-34547619D01*
X130235833Y-35452380D02*
X130235833Y-34452380D01*
X130235833Y-34833333D02*
X130140595Y-34785714D01*
X129950119Y-34785714D01*
X129854880Y-34833333D01*
X129807261Y-34880952D01*
X129759642Y-34976190D01*
X129759642Y-35261904D01*
X129807261Y-35357142D01*
X129854880Y-35404761D01*
X129950119Y-35452380D01*
X130140595Y-35452380D01*
X130235833Y-35404761D01*
X129188214Y-35452380D02*
X129283452Y-35404761D01*
X129331071Y-35357142D01*
X129378690Y-35261904D01*
X129378690Y-34976190D01*
X129331071Y-34880952D01*
X129283452Y-34833333D01*
X129188214Y-34785714D01*
X129045357Y-34785714D01*
X128950119Y-34833333D01*
X128902500Y-34880952D01*
X128854880Y-34976190D01*
X128854880Y-35261904D01*
X128902500Y-35357142D01*
X128950119Y-35404761D01*
X129045357Y-35452380D01*
X129188214Y-35452380D01*
X127997738Y-35452380D02*
X127997738Y-34452380D01*
X127997738Y-35404761D02*
X128092976Y-35452380D01*
X128283452Y-35452380D01*
X128378690Y-35404761D01*
X128426309Y-35357142D01*
X128473928Y-35261904D01*
X128473928Y-34976190D01*
X128426309Y-34880952D01*
X128378690Y-34833333D01*
X128283452Y-34785714D01*
X128092976Y-34785714D01*
X127997738Y-34833333D01*
X127140595Y-35404761D02*
X127235833Y-35452380D01*
X127426309Y-35452380D01*
X127521547Y-35404761D01*
X127569166Y-35309523D01*
X127569166Y-34928571D01*
X127521547Y-34833333D01*
X127426309Y-34785714D01*
X127235833Y-34785714D01*
X127140595Y-34833333D01*
X127092976Y-34928571D01*
X127092976Y-35023809D01*
X127569166Y-35119047D01*
X126235833Y-35452380D02*
X126235833Y-34928571D01*
X126283452Y-34833333D01*
X126378690Y-34785714D01*
X126569166Y-34785714D01*
X126664404Y-34833333D01*
X126235833Y-35404761D02*
X126331071Y-35452380D01*
X126569166Y-35452380D01*
X126664404Y-35404761D01*
X126712023Y-35309523D01*
X126712023Y-35214285D01*
X126664404Y-35119047D01*
X126569166Y-35071428D01*
X126331071Y-35071428D01*
X126235833Y-35023809D01*
X125331071Y-34785714D02*
X125331071Y-35452380D01*
X125759642Y-34785714D02*
X125759642Y-35309523D01*
X125712023Y-35404761D01*
X125616785Y-35452380D01*
X125473928Y-35452380D01*
X125378690Y-35404761D01*
X125331071Y-35357142D01*
X143235833Y-37102380D02*
X143235833Y-36102380D01*
X143235833Y-37054761D02*
X143331071Y-37102380D01*
X143521547Y-37102380D01*
X143616785Y-37054761D01*
X143664404Y-37007142D01*
X143712023Y-36911904D01*
X143712023Y-36626190D01*
X143664404Y-36530952D01*
X143616785Y-36483333D01*
X143521547Y-36435714D01*
X143331071Y-36435714D01*
X143235833Y-36483333D01*
X142378690Y-37054761D02*
X142473928Y-37102380D01*
X142664404Y-37102380D01*
X142759642Y-37054761D01*
X142807261Y-36959523D01*
X142807261Y-36578571D01*
X142759642Y-36483333D01*
X142664404Y-36435714D01*
X142473928Y-36435714D01*
X142378690Y-36483333D01*
X142331071Y-36578571D01*
X142331071Y-36673809D01*
X142807261Y-36769047D01*
X141997738Y-36435714D02*
X141759642Y-37102380D01*
X141521547Y-36435714D01*
X140521547Y-36626190D02*
X140569166Y-36578571D01*
X140664404Y-36530952D01*
X140759642Y-36530952D01*
X140854880Y-36578571D01*
X140902500Y-36626190D01*
X140950119Y-36721428D01*
X140950119Y-36816666D01*
X140902500Y-36911904D01*
X140854880Y-36959523D01*
X140759642Y-37007142D01*
X140664404Y-37007142D01*
X140569166Y-36959523D01*
X140521547Y-36911904D01*
X140521547Y-36530952D02*
X140521547Y-36911904D01*
X140473928Y-36959523D01*
X140426309Y-36959523D01*
X140331071Y-36911904D01*
X140283452Y-36816666D01*
X140283452Y-36578571D01*
X140378690Y-36435714D01*
X140521547Y-36340476D01*
X140712023Y-36292857D01*
X140902500Y-36340476D01*
X141045357Y-36435714D01*
X141140595Y-36578571D01*
X141188214Y-36769047D01*
X141140595Y-36959523D01*
X141045357Y-37102380D01*
X140902500Y-37197619D01*
X140712023Y-37245238D01*
X140521547Y-37197619D01*
X140378690Y-37102380D01*
X139854880Y-37102380D02*
X139854880Y-36102380D01*
X139426309Y-37102380D02*
X139426309Y-36578571D01*
X139473928Y-36483333D01*
X139569166Y-36435714D01*
X139712023Y-36435714D01*
X139807261Y-36483333D01*
X139854880Y-36530952D01*
X138807261Y-37102380D02*
X138902500Y-37054761D01*
X138950119Y-37007142D01*
X138997738Y-36911904D01*
X138997738Y-36626190D01*
X138950119Y-36530952D01*
X138902500Y-36483333D01*
X138807261Y-36435714D01*
X138664404Y-36435714D01*
X138569166Y-36483333D01*
X138521547Y-36530952D01*
X138473928Y-36626190D01*
X138473928Y-36911904D01*
X138521547Y-37007142D01*
X138569166Y-37054761D01*
X138664404Y-37102380D01*
X138807261Y-37102380D01*
X138188214Y-36435714D02*
X137807261Y-36435714D01*
X138045357Y-36102380D02*
X138045357Y-36959523D01*
X137997738Y-37054761D01*
X137902500Y-37102380D01*
X137807261Y-37102380D01*
X137473928Y-37102380D02*
X137473928Y-36102380D01*
X137378690Y-36721428D02*
X137092976Y-37102380D01*
X137092976Y-36435714D02*
X137473928Y-36816666D01*
X136283452Y-37054761D02*
X136378690Y-37102380D01*
X136569166Y-37102380D01*
X136664404Y-37054761D01*
X136712023Y-36959523D01*
X136712023Y-36578571D01*
X136664404Y-36483333D01*
X136569166Y-36435714D01*
X136378690Y-36435714D01*
X136283452Y-36483333D01*
X136235833Y-36578571D01*
X136235833Y-36673809D01*
X136712023Y-36769047D01*
X135902500Y-36435714D02*
X135664404Y-37102380D01*
X135426309Y-36435714D02*
X135664404Y-37102380D01*
X135759642Y-37340476D01*
X135807261Y-37388095D01*
X135902500Y-37435714D01*
X135092976Y-37054761D02*
X134997738Y-37102380D01*
X134807261Y-37102380D01*
X134712023Y-37054761D01*
X134664404Y-36959523D01*
X134664404Y-36911904D01*
X134712023Y-36816666D01*
X134807261Y-36769047D01*
X134950119Y-36769047D01*
X135045357Y-36721428D01*
X135092976Y-36626190D01*
X135092976Y-36578571D01*
X135045357Y-36483333D01*
X134950119Y-36435714D01*
X134807261Y-36435714D01*
X134712023Y-36483333D01*
X134092976Y-37102380D02*
X134188214Y-37054761D01*
X134235833Y-37007142D01*
X134283452Y-36911904D01*
X134283452Y-36626190D01*
X134235833Y-36530952D01*
X134188214Y-36483333D01*
X134092976Y-36435714D01*
X133950119Y-36435714D01*
X133854880Y-36483333D01*
X133807261Y-36530952D01*
X133759642Y-36626190D01*
X133759642Y-36911904D01*
X133807261Y-37007142D01*
X133854880Y-37054761D01*
X133950119Y-37102380D01*
X134092976Y-37102380D01*
X133473928Y-36435714D02*
X133092976Y-36435714D01*
X133331071Y-37102380D02*
X133331071Y-36245238D01*
X133283452Y-36150000D01*
X133188214Y-36102380D01*
X133092976Y-36102380D01*
X132902500Y-36435714D02*
X132521547Y-36435714D01*
X132759642Y-36102380D02*
X132759642Y-36959523D01*
X132712023Y-37054761D01*
X132616785Y-37102380D01*
X132521547Y-37102380D01*
X132188214Y-37007142D02*
X132140595Y-37054761D01*
X132188214Y-37102380D01*
X132235833Y-37054761D01*
X132188214Y-37007142D01*
X132188214Y-37102380D01*
X131712023Y-36435714D02*
X131712023Y-37102380D01*
X131712023Y-36530952D02*
X131664404Y-36483333D01*
X131569166Y-36435714D01*
X131426309Y-36435714D01*
X131331071Y-36483333D01*
X131283452Y-36578571D01*
X131283452Y-37102380D01*
X130426309Y-37054761D02*
X130521547Y-37102380D01*
X130712023Y-37102380D01*
X130807261Y-37054761D01*
X130854880Y-36959523D01*
X130854880Y-36578571D01*
X130807261Y-36483333D01*
X130712023Y-36435714D01*
X130521547Y-36435714D01*
X130426309Y-36483333D01*
X130378690Y-36578571D01*
X130378690Y-36673809D01*
X130854880Y-36769047D01*
X130092976Y-36435714D02*
X129712023Y-36435714D01*
X129950119Y-36102380D02*
X129950119Y-36959523D01*
X129902500Y-37054761D01*
X129807261Y-37102380D01*
X129712023Y-37102380D01*
D11*
X165670000Y-72330000D02*
X167000000Y-72330000D01*
X165670000Y-71000000D02*
X165670000Y-72330000D01*
X165670000Y-69730000D02*
X168330000Y-69730000D01*
X168330000Y-69730000D02*
X168330000Y-67130000D01*
X165670000Y-69730000D02*
X165670000Y-67130000D01*
X165670000Y-67130000D02*
X168330000Y-67130000D01*
X137605000Y-56330000D02*
X137605000Y-55000000D01*
X136275000Y-56330000D02*
X137605000Y-56330000D01*
X135005000Y-56330000D02*
X135005000Y-53670000D01*
X135005000Y-53670000D02*
X132405000Y-53670000D01*
X135005000Y-56330000D02*
X132405000Y-56330000D01*
X132405000Y-56330000D02*
X132405000Y-53670000D01*
D10*
X164741428Y-72230000D02*
X164693809Y-72087142D01*
X164646190Y-72039523D01*
X164550952Y-71991904D01*
X164408095Y-71991904D01*
X164312857Y-72039523D01*
X164265238Y-72087142D01*
X164217619Y-72182380D01*
X164217619Y-72563333D01*
X165217619Y-72563333D01*
X165217619Y-72230000D01*
X165170000Y-72134761D01*
X165122380Y-72087142D01*
X165027142Y-72039523D01*
X164931904Y-72039523D01*
X164836666Y-72087142D01*
X164789047Y-72134761D01*
X164741428Y-72230000D01*
X164741428Y-72563333D01*
X164503333Y-71610952D02*
X164503333Y-71134761D01*
X164217619Y-71706190D02*
X165217619Y-71372857D01*
X164217619Y-71039523D01*
X165217619Y-70849047D02*
X165217619Y-70277619D01*
X164217619Y-70563333D02*
X165217619Y-70563333D01*
X165217619Y-70087142D02*
X165217619Y-69515714D01*
X164217619Y-69801428D02*
X165217619Y-69801428D01*
X164741428Y-69182380D02*
X164741428Y-68849047D01*
X164217619Y-68706190D02*
X164217619Y-69182380D01*
X165217619Y-69182380D01*
X165217619Y-68706190D01*
X164217619Y-67706190D02*
X164693809Y-68039523D01*
X164217619Y-68277619D02*
X165217619Y-68277619D01*
X165217619Y-67896666D01*
X165170000Y-67801428D01*
X165122380Y-67753809D01*
X165027142Y-67706190D01*
X164884285Y-67706190D01*
X164789047Y-67753809D01*
X164741428Y-67801428D01*
X164693809Y-67896666D01*
X164693809Y-68277619D01*
X164693809Y-67087142D02*
X164217619Y-67087142D01*
X165217619Y-67420476D02*
X164693809Y-67087142D01*
X165217619Y-66753809D01*
X138124047Y-57734761D02*
X137981190Y-57782380D01*
X137743095Y-57782380D01*
X137647857Y-57734761D01*
X137600238Y-57687142D01*
X137552619Y-57591904D01*
X137552619Y-57496666D01*
X137600238Y-57401428D01*
X137647857Y-57353809D01*
X137743095Y-57306190D01*
X137933571Y-57258571D01*
X138028809Y-57210952D01*
X138076428Y-57163333D01*
X138124047Y-57068095D01*
X138124047Y-56972857D01*
X138076428Y-56877619D01*
X138028809Y-56830000D01*
X137933571Y-56782380D01*
X137695476Y-56782380D01*
X137552619Y-56830000D01*
X137124047Y-57782380D02*
X137124047Y-56782380D01*
X136743095Y-56782380D01*
X136647857Y-56830000D01*
X136600238Y-56877619D01*
X136552619Y-56972857D01*
X136552619Y-57115714D01*
X136600238Y-57210952D01*
X136647857Y-57258571D01*
X136743095Y-57306190D01*
X137124047Y-57306190D01*
X136124047Y-57258571D02*
X135790714Y-57258571D01*
X135647857Y-57782380D02*
X136124047Y-57782380D01*
X136124047Y-56782380D01*
X135647857Y-56782380D01*
X135266904Y-57496666D02*
X134790714Y-57496666D01*
X135362142Y-57782380D02*
X135028809Y-56782380D01*
X134695476Y-57782380D01*
X134362142Y-57782380D02*
X134362142Y-56782380D01*
X133790714Y-57782380D02*
X134219285Y-57210952D01*
X133790714Y-56782380D02*
X134362142Y-57353809D01*
X133362142Y-57258571D02*
X133028809Y-57258571D01*
X132885952Y-57782380D02*
X133362142Y-57782380D01*
X133362142Y-56782380D01*
X132885952Y-56782380D01*
X131885952Y-57782380D02*
X132219285Y-57306190D01*
X132457380Y-57782380D02*
X132457380Y-56782380D01*
X132076428Y-56782380D01*
X131981190Y-56830000D01*
X131933571Y-56877619D01*
X131885952Y-56972857D01*
X131885952Y-57115714D01*
X131933571Y-57210952D01*
X131981190Y-57258571D01*
X132076428Y-57306190D01*
X132457380Y-57306190D01*
M02*
