M48
; DRILL file {KiCad (5.1.4)-1} date 2019-10-23 12:43:34
; FORMAT={-:-/ absolute / inch / decimal}
; #@! TF.CreationDate,2019-10-23T12:43:34-04:00
; #@! TF.GenerationSoftware,Kicad,Pcbnew,(5.1.4)-1
; #@! TF.FileFunction,Plated,1,2,PTH
FMAT,2
INCH
T1C0.0118
T2C0.0157
T3C0.0315
T4C0.0354
T5C0.0394
T6C0.0433
T7C0.0591
%
G90
G05
T1
X5.1575Y-2.9961
X5.2992Y-2.6614
X5.3937Y-2.5118
X5.5512Y-2.6772
X5.6102Y-2.937
T2
X4.811Y-2.8583
X4.9882Y-2.9488
X5.0551Y-2.6457
X5.0551Y-2.9882
X5.1063Y-2.9291
X5.1969Y-2.4409
X5.1969Y-2.5197
X5.2165Y-2.8071
X5.3976Y-2.7402
X5.4213Y-2.9803
X5.5079Y-2.9882
X5.5433Y-2.8661
X5.5787Y-2.9764
X5.5906Y-3.0787
X5.8976Y-2.8346
X5.9094Y-2.7126
X5.9409Y-2.6811
T3
X4.6654Y-2.6575
X4.6654Y-2.8496
T4
X6.7913Y-2.6772
X6.7913Y-2.7559
X6.7913Y-2.8346
T5
X5.2652Y-2.1654
X5.3652Y-2.1654
X6.5748Y-2.6953
X6.5748Y-2.7953
T6
X6.2402Y-3.8622
X6.3654Y-3.9875
X6.4211Y-3.6813
X6.5464Y-3.8065
X4.0835Y-1.7053
X4.2088Y-1.8306
X4.2645Y-1.5243
X4.3898Y-1.6496
X4.0834Y-3.8064
X4.2087Y-3.6811
X4.2643Y-3.9873
X4.3896Y-3.8621
X6.2403Y-1.6498
X6.3656Y-1.5245
X6.4213Y-1.8307
X6.5465Y-1.7054
T7
X6.7913Y-2.5945
X6.7913Y-2.9173
T0
M30
