G04 #@! TF.GenerationSoftware,KiCad,Pcbnew,(5.1.4)-1*
G04 #@! TF.CreationDate,2019-10-23T12:43:35-04:00*
G04 #@! TF.ProjectId,RepeatGame,52657065-6174-4476-916d-652e6b696361,A*
G04 #@! TF.SameCoordinates,Original*
G04 #@! TF.FileFunction,Soldermask,Top*
G04 #@! TF.FilePolarity,Negative*
%FSLAX46Y46*%
G04 Gerber Fmt 4.6, Leading zero omitted, Abs format (unit mm)*
G04 Created by KiCad (PCBNEW (5.1.4)-1) date 2019-10-23 12:43:35*
%MOMM*%
%LPD*%
G04 APERTURE LIST*
%ADD10O,3.700000X2.400000*%
%ADD11O,2.700000X1.700000*%
%ADD12R,2.700000X1.700000*%
%ADD13C,2.200000*%
%ADD14C,0.100000*%
%ADD15C,1.350000*%
%ADD16C,0.987400*%
%ADD17C,1.190600*%
%ADD18O,1.900000X1.900000*%
%ADD19R,1.900000X1.900000*%
%ADD20C,1.450000*%
%ADD21C,1.700000*%
%ADD22R,0.750000X1.800000*%
%ADD23R,1.800000X0.750000*%
G04 APERTURE END LIST*
D10*
X172500000Y-65900000D03*
X172500000Y-74100000D03*
D11*
X172500000Y-68000000D03*
X172500000Y-70000000D03*
D12*
X172500000Y-72000000D03*
D13*
X111496194Y-98096194D03*
X108314214Y-101278175D03*
X106900000Y-93500000D03*
X103718019Y-96681981D03*
X106903806Y-46496194D03*
X103721825Y-43314214D03*
X111500000Y-41900000D03*
X108318019Y-38718019D03*
X158503806Y-41903806D03*
X161685786Y-38721825D03*
X163100000Y-46500000D03*
X166281981Y-43318019D03*
X163096194Y-93503806D03*
X166278175Y-96685786D03*
X158500000Y-98100000D03*
X161681981Y-101281981D03*
D14*
G36*
X139535289Y-78851413D02*
G01*
X139563778Y-78855639D01*
X139591715Y-78862637D01*
X139618832Y-78872340D01*
X139644867Y-78884653D01*
X139669570Y-78899460D01*
X139692703Y-78916616D01*
X139714043Y-78935957D01*
X139733384Y-78957297D01*
X139750540Y-78980430D01*
X139765347Y-79005133D01*
X139777660Y-79031168D01*
X139787363Y-79058285D01*
X139794361Y-79086222D01*
X139798587Y-79114711D01*
X139800000Y-79143477D01*
X139800000Y-79906523D01*
X139798587Y-79935289D01*
X139794361Y-79963778D01*
X139787363Y-79991715D01*
X139777660Y-80018832D01*
X139765347Y-80044867D01*
X139750540Y-80069570D01*
X139733384Y-80092703D01*
X139714043Y-80114043D01*
X139692703Y-80133384D01*
X139669570Y-80150540D01*
X139644867Y-80165347D01*
X139618832Y-80177660D01*
X139591715Y-80187363D01*
X139563778Y-80194361D01*
X139535289Y-80198587D01*
X139506523Y-80200000D01*
X138493477Y-80200000D01*
X138464711Y-80198587D01*
X138436222Y-80194361D01*
X138408285Y-80187363D01*
X138381168Y-80177660D01*
X138355133Y-80165347D01*
X138330430Y-80150540D01*
X138307297Y-80133384D01*
X138285957Y-80114043D01*
X138266616Y-80092703D01*
X138249460Y-80069570D01*
X138234653Y-80044867D01*
X138222340Y-80018832D01*
X138212637Y-79991715D01*
X138205639Y-79963778D01*
X138201413Y-79935289D01*
X138200000Y-79906523D01*
X138200000Y-79143477D01*
X138201413Y-79114711D01*
X138205639Y-79086222D01*
X138212637Y-79058285D01*
X138222340Y-79031168D01*
X138234653Y-79005133D01*
X138249460Y-78980430D01*
X138266616Y-78957297D01*
X138285957Y-78935957D01*
X138307297Y-78916616D01*
X138330430Y-78899460D01*
X138355133Y-78884653D01*
X138381168Y-78872340D01*
X138408285Y-78862637D01*
X138436222Y-78855639D01*
X138464711Y-78851413D01*
X138493477Y-78850000D01*
X139506523Y-78850000D01*
X139535289Y-78851413D01*
X139535289Y-78851413D01*
G37*
D15*
X139000000Y-79525000D03*
D14*
G36*
X139535289Y-76801413D02*
G01*
X139563778Y-76805639D01*
X139591715Y-76812637D01*
X139618832Y-76822340D01*
X139644867Y-76834653D01*
X139669570Y-76849460D01*
X139692703Y-76866616D01*
X139714043Y-76885957D01*
X139733384Y-76907297D01*
X139750540Y-76930430D01*
X139765347Y-76955133D01*
X139777660Y-76981168D01*
X139787363Y-77008285D01*
X139794361Y-77036222D01*
X139798587Y-77064711D01*
X139800000Y-77093477D01*
X139800000Y-77856523D01*
X139798587Y-77885289D01*
X139794361Y-77913778D01*
X139787363Y-77941715D01*
X139777660Y-77968832D01*
X139765347Y-77994867D01*
X139750540Y-78019570D01*
X139733384Y-78042703D01*
X139714043Y-78064043D01*
X139692703Y-78083384D01*
X139669570Y-78100540D01*
X139644867Y-78115347D01*
X139618832Y-78127660D01*
X139591715Y-78137363D01*
X139563778Y-78144361D01*
X139535289Y-78148587D01*
X139506523Y-78150000D01*
X138493477Y-78150000D01*
X138464711Y-78148587D01*
X138436222Y-78144361D01*
X138408285Y-78137363D01*
X138381168Y-78127660D01*
X138355133Y-78115347D01*
X138330430Y-78100540D01*
X138307297Y-78083384D01*
X138285957Y-78064043D01*
X138266616Y-78042703D01*
X138249460Y-78019570D01*
X138234653Y-77994867D01*
X138222340Y-77968832D01*
X138212637Y-77941715D01*
X138205639Y-77913778D01*
X138201413Y-77885289D01*
X138200000Y-77856523D01*
X138200000Y-77093477D01*
X138201413Y-77064711D01*
X138205639Y-77036222D01*
X138212637Y-77008285D01*
X138222340Y-76981168D01*
X138234653Y-76955133D01*
X138249460Y-76930430D01*
X138266616Y-76907297D01*
X138285957Y-76885957D01*
X138307297Y-76866616D01*
X138330430Y-76849460D01*
X138355133Y-76834653D01*
X138381168Y-76822340D01*
X138408285Y-76812637D01*
X138436222Y-76805639D01*
X138464711Y-76801413D01*
X138493477Y-76800000D01*
X139506523Y-76800000D01*
X139535289Y-76801413D01*
X139535289Y-76801413D01*
G37*
D15*
X139000000Y-77475000D03*
D14*
G36*
X137535289Y-78851413D02*
G01*
X137563778Y-78855639D01*
X137591715Y-78862637D01*
X137618832Y-78872340D01*
X137644867Y-78884653D01*
X137669570Y-78899460D01*
X137692703Y-78916616D01*
X137714043Y-78935957D01*
X137733384Y-78957297D01*
X137750540Y-78980430D01*
X137765347Y-79005133D01*
X137777660Y-79031168D01*
X137787363Y-79058285D01*
X137794361Y-79086222D01*
X137798587Y-79114711D01*
X137800000Y-79143477D01*
X137800000Y-79906523D01*
X137798587Y-79935289D01*
X137794361Y-79963778D01*
X137787363Y-79991715D01*
X137777660Y-80018832D01*
X137765347Y-80044867D01*
X137750540Y-80069570D01*
X137733384Y-80092703D01*
X137714043Y-80114043D01*
X137692703Y-80133384D01*
X137669570Y-80150540D01*
X137644867Y-80165347D01*
X137618832Y-80177660D01*
X137591715Y-80187363D01*
X137563778Y-80194361D01*
X137535289Y-80198587D01*
X137506523Y-80200000D01*
X136493477Y-80200000D01*
X136464711Y-80198587D01*
X136436222Y-80194361D01*
X136408285Y-80187363D01*
X136381168Y-80177660D01*
X136355133Y-80165347D01*
X136330430Y-80150540D01*
X136307297Y-80133384D01*
X136285957Y-80114043D01*
X136266616Y-80092703D01*
X136249460Y-80069570D01*
X136234653Y-80044867D01*
X136222340Y-80018832D01*
X136212637Y-79991715D01*
X136205639Y-79963778D01*
X136201413Y-79935289D01*
X136200000Y-79906523D01*
X136200000Y-79143477D01*
X136201413Y-79114711D01*
X136205639Y-79086222D01*
X136212637Y-79058285D01*
X136222340Y-79031168D01*
X136234653Y-79005133D01*
X136249460Y-78980430D01*
X136266616Y-78957297D01*
X136285957Y-78935957D01*
X136307297Y-78916616D01*
X136330430Y-78899460D01*
X136355133Y-78884653D01*
X136381168Y-78872340D01*
X136408285Y-78862637D01*
X136436222Y-78855639D01*
X136464711Y-78851413D01*
X136493477Y-78850000D01*
X137506523Y-78850000D01*
X137535289Y-78851413D01*
X137535289Y-78851413D01*
G37*
D15*
X137000000Y-79525000D03*
D14*
G36*
X137535289Y-76801413D02*
G01*
X137563778Y-76805639D01*
X137591715Y-76812637D01*
X137618832Y-76822340D01*
X137644867Y-76834653D01*
X137669570Y-76849460D01*
X137692703Y-76866616D01*
X137714043Y-76885957D01*
X137733384Y-76907297D01*
X137750540Y-76930430D01*
X137765347Y-76955133D01*
X137777660Y-76981168D01*
X137787363Y-77008285D01*
X137794361Y-77036222D01*
X137798587Y-77064711D01*
X137800000Y-77093477D01*
X137800000Y-77856523D01*
X137798587Y-77885289D01*
X137794361Y-77913778D01*
X137787363Y-77941715D01*
X137777660Y-77968832D01*
X137765347Y-77994867D01*
X137750540Y-78019570D01*
X137733384Y-78042703D01*
X137714043Y-78064043D01*
X137692703Y-78083384D01*
X137669570Y-78100540D01*
X137644867Y-78115347D01*
X137618832Y-78127660D01*
X137591715Y-78137363D01*
X137563778Y-78144361D01*
X137535289Y-78148587D01*
X137506523Y-78150000D01*
X136493477Y-78150000D01*
X136464711Y-78148587D01*
X136436222Y-78144361D01*
X136408285Y-78137363D01*
X136381168Y-78127660D01*
X136355133Y-78115347D01*
X136330430Y-78100540D01*
X136307297Y-78083384D01*
X136285957Y-78064043D01*
X136266616Y-78042703D01*
X136249460Y-78019570D01*
X136234653Y-77994867D01*
X136222340Y-77968832D01*
X136212637Y-77941715D01*
X136205639Y-77913778D01*
X136201413Y-77885289D01*
X136200000Y-77856523D01*
X136200000Y-77093477D01*
X136201413Y-77064711D01*
X136205639Y-77036222D01*
X136212637Y-77008285D01*
X136222340Y-76981168D01*
X136234653Y-76955133D01*
X136249460Y-76930430D01*
X136266616Y-76907297D01*
X136285957Y-76885957D01*
X136307297Y-76866616D01*
X136330430Y-76849460D01*
X136355133Y-76834653D01*
X136381168Y-76822340D01*
X136408285Y-76812637D01*
X136436222Y-76805639D01*
X136464711Y-76801413D01*
X136493477Y-76800000D01*
X137506523Y-76800000D01*
X137535289Y-76801413D01*
X137535289Y-76801413D01*
G37*
D15*
X137000000Y-77475000D03*
D14*
G36*
X135535289Y-78851413D02*
G01*
X135563778Y-78855639D01*
X135591715Y-78862637D01*
X135618832Y-78872340D01*
X135644867Y-78884653D01*
X135669570Y-78899460D01*
X135692703Y-78916616D01*
X135714043Y-78935957D01*
X135733384Y-78957297D01*
X135750540Y-78980430D01*
X135765347Y-79005133D01*
X135777660Y-79031168D01*
X135787363Y-79058285D01*
X135794361Y-79086222D01*
X135798587Y-79114711D01*
X135800000Y-79143477D01*
X135800000Y-79906523D01*
X135798587Y-79935289D01*
X135794361Y-79963778D01*
X135787363Y-79991715D01*
X135777660Y-80018832D01*
X135765347Y-80044867D01*
X135750540Y-80069570D01*
X135733384Y-80092703D01*
X135714043Y-80114043D01*
X135692703Y-80133384D01*
X135669570Y-80150540D01*
X135644867Y-80165347D01*
X135618832Y-80177660D01*
X135591715Y-80187363D01*
X135563778Y-80194361D01*
X135535289Y-80198587D01*
X135506523Y-80200000D01*
X134493477Y-80200000D01*
X134464711Y-80198587D01*
X134436222Y-80194361D01*
X134408285Y-80187363D01*
X134381168Y-80177660D01*
X134355133Y-80165347D01*
X134330430Y-80150540D01*
X134307297Y-80133384D01*
X134285957Y-80114043D01*
X134266616Y-80092703D01*
X134249460Y-80069570D01*
X134234653Y-80044867D01*
X134222340Y-80018832D01*
X134212637Y-79991715D01*
X134205639Y-79963778D01*
X134201413Y-79935289D01*
X134200000Y-79906523D01*
X134200000Y-79143477D01*
X134201413Y-79114711D01*
X134205639Y-79086222D01*
X134212637Y-79058285D01*
X134222340Y-79031168D01*
X134234653Y-79005133D01*
X134249460Y-78980430D01*
X134266616Y-78957297D01*
X134285957Y-78935957D01*
X134307297Y-78916616D01*
X134330430Y-78899460D01*
X134355133Y-78884653D01*
X134381168Y-78872340D01*
X134408285Y-78862637D01*
X134436222Y-78855639D01*
X134464711Y-78851413D01*
X134493477Y-78850000D01*
X135506523Y-78850000D01*
X135535289Y-78851413D01*
X135535289Y-78851413D01*
G37*
D15*
X135000000Y-79525000D03*
D14*
G36*
X135535289Y-76801413D02*
G01*
X135563778Y-76805639D01*
X135591715Y-76812637D01*
X135618832Y-76822340D01*
X135644867Y-76834653D01*
X135669570Y-76849460D01*
X135692703Y-76866616D01*
X135714043Y-76885957D01*
X135733384Y-76907297D01*
X135750540Y-76930430D01*
X135765347Y-76955133D01*
X135777660Y-76981168D01*
X135787363Y-77008285D01*
X135794361Y-77036222D01*
X135798587Y-77064711D01*
X135800000Y-77093477D01*
X135800000Y-77856523D01*
X135798587Y-77885289D01*
X135794361Y-77913778D01*
X135787363Y-77941715D01*
X135777660Y-77968832D01*
X135765347Y-77994867D01*
X135750540Y-78019570D01*
X135733384Y-78042703D01*
X135714043Y-78064043D01*
X135692703Y-78083384D01*
X135669570Y-78100540D01*
X135644867Y-78115347D01*
X135618832Y-78127660D01*
X135591715Y-78137363D01*
X135563778Y-78144361D01*
X135535289Y-78148587D01*
X135506523Y-78150000D01*
X134493477Y-78150000D01*
X134464711Y-78148587D01*
X134436222Y-78144361D01*
X134408285Y-78137363D01*
X134381168Y-78127660D01*
X134355133Y-78115347D01*
X134330430Y-78100540D01*
X134307297Y-78083384D01*
X134285957Y-78064043D01*
X134266616Y-78042703D01*
X134249460Y-78019570D01*
X134234653Y-77994867D01*
X134222340Y-77968832D01*
X134212637Y-77941715D01*
X134205639Y-77913778D01*
X134201413Y-77885289D01*
X134200000Y-77856523D01*
X134200000Y-77093477D01*
X134201413Y-77064711D01*
X134205639Y-77036222D01*
X134212637Y-77008285D01*
X134222340Y-76981168D01*
X134234653Y-76955133D01*
X134249460Y-76930430D01*
X134266616Y-76907297D01*
X134285957Y-76885957D01*
X134307297Y-76866616D01*
X134330430Y-76849460D01*
X134355133Y-76834653D01*
X134381168Y-76822340D01*
X134408285Y-76812637D01*
X134436222Y-76805639D01*
X134464711Y-76801413D01*
X134493477Y-76800000D01*
X135506523Y-76800000D01*
X135535289Y-76801413D01*
X135535289Y-76801413D01*
G37*
D15*
X135000000Y-77475000D03*
D14*
G36*
X133535289Y-78851413D02*
G01*
X133563778Y-78855639D01*
X133591715Y-78862637D01*
X133618832Y-78872340D01*
X133644867Y-78884653D01*
X133669570Y-78899460D01*
X133692703Y-78916616D01*
X133714043Y-78935957D01*
X133733384Y-78957297D01*
X133750540Y-78980430D01*
X133765347Y-79005133D01*
X133777660Y-79031168D01*
X133787363Y-79058285D01*
X133794361Y-79086222D01*
X133798587Y-79114711D01*
X133800000Y-79143477D01*
X133800000Y-79906523D01*
X133798587Y-79935289D01*
X133794361Y-79963778D01*
X133787363Y-79991715D01*
X133777660Y-80018832D01*
X133765347Y-80044867D01*
X133750540Y-80069570D01*
X133733384Y-80092703D01*
X133714043Y-80114043D01*
X133692703Y-80133384D01*
X133669570Y-80150540D01*
X133644867Y-80165347D01*
X133618832Y-80177660D01*
X133591715Y-80187363D01*
X133563778Y-80194361D01*
X133535289Y-80198587D01*
X133506523Y-80200000D01*
X132493477Y-80200000D01*
X132464711Y-80198587D01*
X132436222Y-80194361D01*
X132408285Y-80187363D01*
X132381168Y-80177660D01*
X132355133Y-80165347D01*
X132330430Y-80150540D01*
X132307297Y-80133384D01*
X132285957Y-80114043D01*
X132266616Y-80092703D01*
X132249460Y-80069570D01*
X132234653Y-80044867D01*
X132222340Y-80018832D01*
X132212637Y-79991715D01*
X132205639Y-79963778D01*
X132201413Y-79935289D01*
X132200000Y-79906523D01*
X132200000Y-79143477D01*
X132201413Y-79114711D01*
X132205639Y-79086222D01*
X132212637Y-79058285D01*
X132222340Y-79031168D01*
X132234653Y-79005133D01*
X132249460Y-78980430D01*
X132266616Y-78957297D01*
X132285957Y-78935957D01*
X132307297Y-78916616D01*
X132330430Y-78899460D01*
X132355133Y-78884653D01*
X132381168Y-78872340D01*
X132408285Y-78862637D01*
X132436222Y-78855639D01*
X132464711Y-78851413D01*
X132493477Y-78850000D01*
X133506523Y-78850000D01*
X133535289Y-78851413D01*
X133535289Y-78851413D01*
G37*
D15*
X133000000Y-79525000D03*
D14*
G36*
X133535289Y-76801413D02*
G01*
X133563778Y-76805639D01*
X133591715Y-76812637D01*
X133618832Y-76822340D01*
X133644867Y-76834653D01*
X133669570Y-76849460D01*
X133692703Y-76866616D01*
X133714043Y-76885957D01*
X133733384Y-76907297D01*
X133750540Y-76930430D01*
X133765347Y-76955133D01*
X133777660Y-76981168D01*
X133787363Y-77008285D01*
X133794361Y-77036222D01*
X133798587Y-77064711D01*
X133800000Y-77093477D01*
X133800000Y-77856523D01*
X133798587Y-77885289D01*
X133794361Y-77913778D01*
X133787363Y-77941715D01*
X133777660Y-77968832D01*
X133765347Y-77994867D01*
X133750540Y-78019570D01*
X133733384Y-78042703D01*
X133714043Y-78064043D01*
X133692703Y-78083384D01*
X133669570Y-78100540D01*
X133644867Y-78115347D01*
X133618832Y-78127660D01*
X133591715Y-78137363D01*
X133563778Y-78144361D01*
X133535289Y-78148587D01*
X133506523Y-78150000D01*
X132493477Y-78150000D01*
X132464711Y-78148587D01*
X132436222Y-78144361D01*
X132408285Y-78137363D01*
X132381168Y-78127660D01*
X132355133Y-78115347D01*
X132330430Y-78100540D01*
X132307297Y-78083384D01*
X132285957Y-78064043D01*
X132266616Y-78042703D01*
X132249460Y-78019570D01*
X132234653Y-77994867D01*
X132222340Y-77968832D01*
X132212637Y-77941715D01*
X132205639Y-77913778D01*
X132201413Y-77885289D01*
X132200000Y-77856523D01*
X132200000Y-77093477D01*
X132201413Y-77064711D01*
X132205639Y-77036222D01*
X132212637Y-77008285D01*
X132222340Y-76981168D01*
X132234653Y-76955133D01*
X132249460Y-76930430D01*
X132266616Y-76907297D01*
X132285957Y-76885957D01*
X132307297Y-76866616D01*
X132330430Y-76849460D01*
X132355133Y-76834653D01*
X132381168Y-76822340D01*
X132408285Y-76812637D01*
X132436222Y-76805639D01*
X132464711Y-76801413D01*
X132493477Y-76800000D01*
X133506523Y-76800000D01*
X133535289Y-76801413D01*
X133535289Y-76801413D01*
G37*
D15*
X133000000Y-77475000D03*
D16*
X143665000Y-76930000D03*
X144935000Y-76930000D03*
X143665000Y-78200000D03*
X144935000Y-78200000D03*
X143665000Y-79470000D03*
X144935000Y-79470000D03*
D17*
X144300000Y-80740000D03*
X145316000Y-75660000D03*
X143284000Y-75660000D03*
D18*
X167000000Y-68460000D03*
D19*
X167000000Y-71000000D03*
D14*
G36*
X118195151Y-87909385D02*
G01*
X118223302Y-87913561D01*
X118250909Y-87920476D01*
X118277704Y-87930064D01*
X118303431Y-87942232D01*
X118327841Y-87956863D01*
X118350700Y-87973816D01*
X118371787Y-87992928D01*
X118986970Y-88608111D01*
X119006082Y-88629198D01*
X119023035Y-88652057D01*
X119037666Y-88676467D01*
X119049834Y-88702194D01*
X119059422Y-88728989D01*
X119066337Y-88756596D01*
X119070513Y-88784747D01*
X119071909Y-88813172D01*
X119070513Y-88841597D01*
X119066337Y-88869748D01*
X119059422Y-88897355D01*
X119049834Y-88924150D01*
X119037666Y-88949877D01*
X119023035Y-88974287D01*
X119006082Y-88997146D01*
X118986970Y-89018233D01*
X118018233Y-89986970D01*
X117997146Y-90006082D01*
X117974287Y-90023035D01*
X117949877Y-90037666D01*
X117924150Y-90049834D01*
X117897355Y-90059422D01*
X117869748Y-90066337D01*
X117841597Y-90070513D01*
X117813172Y-90071909D01*
X117784747Y-90070513D01*
X117756596Y-90066337D01*
X117728989Y-90059422D01*
X117702194Y-90049834D01*
X117676467Y-90037666D01*
X117652057Y-90023035D01*
X117629198Y-90006082D01*
X117608111Y-89986970D01*
X116992928Y-89371787D01*
X116973816Y-89350700D01*
X116956863Y-89327841D01*
X116942232Y-89303431D01*
X116930064Y-89277704D01*
X116920476Y-89250909D01*
X116913561Y-89223302D01*
X116909385Y-89195151D01*
X116907989Y-89166726D01*
X116909385Y-89138301D01*
X116913561Y-89110150D01*
X116920476Y-89082543D01*
X116930064Y-89055748D01*
X116942232Y-89030021D01*
X116956863Y-89005611D01*
X116973816Y-88982752D01*
X116992928Y-88961665D01*
X117961665Y-87992928D01*
X117982752Y-87973816D01*
X118005611Y-87956863D01*
X118030021Y-87942232D01*
X118055748Y-87930064D01*
X118082543Y-87920476D01*
X118110150Y-87913561D01*
X118138301Y-87909385D01*
X118166726Y-87907989D01*
X118195151Y-87909385D01*
X118195151Y-87909385D01*
G37*
D20*
X117989949Y-88989949D03*
D14*
G36*
X116215253Y-85929487D02*
G01*
X116243404Y-85933663D01*
X116271011Y-85940578D01*
X116297806Y-85950166D01*
X116323533Y-85962334D01*
X116347943Y-85976965D01*
X116370802Y-85993918D01*
X116391889Y-86013030D01*
X117007072Y-86628213D01*
X117026184Y-86649300D01*
X117043137Y-86672159D01*
X117057768Y-86696569D01*
X117069936Y-86722296D01*
X117079524Y-86749091D01*
X117086439Y-86776698D01*
X117090615Y-86804849D01*
X117092011Y-86833274D01*
X117090615Y-86861699D01*
X117086439Y-86889850D01*
X117079524Y-86917457D01*
X117069936Y-86944252D01*
X117057768Y-86969979D01*
X117043137Y-86994389D01*
X117026184Y-87017248D01*
X117007072Y-87038335D01*
X116038335Y-88007072D01*
X116017248Y-88026184D01*
X115994389Y-88043137D01*
X115969979Y-88057768D01*
X115944252Y-88069936D01*
X115917457Y-88079524D01*
X115889850Y-88086439D01*
X115861699Y-88090615D01*
X115833274Y-88092011D01*
X115804849Y-88090615D01*
X115776698Y-88086439D01*
X115749091Y-88079524D01*
X115722296Y-88069936D01*
X115696569Y-88057768D01*
X115672159Y-88043137D01*
X115649300Y-88026184D01*
X115628213Y-88007072D01*
X115013030Y-87391889D01*
X114993918Y-87370802D01*
X114976965Y-87347943D01*
X114962334Y-87323533D01*
X114950166Y-87297806D01*
X114940578Y-87271011D01*
X114933663Y-87243404D01*
X114929487Y-87215253D01*
X114928091Y-87186828D01*
X114929487Y-87158403D01*
X114933663Y-87130252D01*
X114940578Y-87102645D01*
X114950166Y-87075850D01*
X114962334Y-87050123D01*
X114976965Y-87025713D01*
X114993918Y-87002854D01*
X115013030Y-86981767D01*
X115981767Y-86013030D01*
X116002854Y-85993918D01*
X116025713Y-85976965D01*
X116050123Y-85962334D01*
X116075850Y-85950166D01*
X116102645Y-85940578D01*
X116130252Y-85933663D01*
X116158403Y-85929487D01*
X116186828Y-85928091D01*
X116215253Y-85929487D01*
X116215253Y-85929487D01*
G37*
D20*
X116010051Y-87010051D03*
D14*
G36*
X115861699Y-51909385D02*
G01*
X115889850Y-51913561D01*
X115917457Y-51920476D01*
X115944252Y-51930064D01*
X115969979Y-51942232D01*
X115994389Y-51956863D01*
X116017248Y-51973816D01*
X116038335Y-51992928D01*
X117007072Y-52961665D01*
X117026184Y-52982752D01*
X117043137Y-53005611D01*
X117057768Y-53030021D01*
X117069936Y-53055748D01*
X117079524Y-53082543D01*
X117086439Y-53110150D01*
X117090615Y-53138301D01*
X117092011Y-53166726D01*
X117090615Y-53195151D01*
X117086439Y-53223302D01*
X117079524Y-53250909D01*
X117069936Y-53277704D01*
X117057768Y-53303431D01*
X117043137Y-53327841D01*
X117026184Y-53350700D01*
X117007072Y-53371787D01*
X116391889Y-53986970D01*
X116370802Y-54006082D01*
X116347943Y-54023035D01*
X116323533Y-54037666D01*
X116297806Y-54049834D01*
X116271011Y-54059422D01*
X116243404Y-54066337D01*
X116215253Y-54070513D01*
X116186828Y-54071909D01*
X116158403Y-54070513D01*
X116130252Y-54066337D01*
X116102645Y-54059422D01*
X116075850Y-54049834D01*
X116050123Y-54037666D01*
X116025713Y-54023035D01*
X116002854Y-54006082D01*
X115981767Y-53986970D01*
X115013030Y-53018233D01*
X114993918Y-52997146D01*
X114976965Y-52974287D01*
X114962334Y-52949877D01*
X114950166Y-52924150D01*
X114940578Y-52897355D01*
X114933663Y-52869748D01*
X114929487Y-52841597D01*
X114928091Y-52813172D01*
X114929487Y-52784747D01*
X114933663Y-52756596D01*
X114940578Y-52728989D01*
X114950166Y-52702194D01*
X114962334Y-52676467D01*
X114976965Y-52652057D01*
X114993918Y-52629198D01*
X115013030Y-52608111D01*
X115628213Y-51992928D01*
X115649300Y-51973816D01*
X115672159Y-51956863D01*
X115696569Y-51942232D01*
X115722296Y-51930064D01*
X115749091Y-51920476D01*
X115776698Y-51913561D01*
X115804849Y-51909385D01*
X115833274Y-51907989D01*
X115861699Y-51909385D01*
X115861699Y-51909385D01*
G37*
D20*
X116010051Y-52989949D03*
D14*
G36*
X117841597Y-49929487D02*
G01*
X117869748Y-49933663D01*
X117897355Y-49940578D01*
X117924150Y-49950166D01*
X117949877Y-49962334D01*
X117974287Y-49976965D01*
X117997146Y-49993918D01*
X118018233Y-50013030D01*
X118986970Y-50981767D01*
X119006082Y-51002854D01*
X119023035Y-51025713D01*
X119037666Y-51050123D01*
X119049834Y-51075850D01*
X119059422Y-51102645D01*
X119066337Y-51130252D01*
X119070513Y-51158403D01*
X119071909Y-51186828D01*
X119070513Y-51215253D01*
X119066337Y-51243404D01*
X119059422Y-51271011D01*
X119049834Y-51297806D01*
X119037666Y-51323533D01*
X119023035Y-51347943D01*
X119006082Y-51370802D01*
X118986970Y-51391889D01*
X118371787Y-52007072D01*
X118350700Y-52026184D01*
X118327841Y-52043137D01*
X118303431Y-52057768D01*
X118277704Y-52069936D01*
X118250909Y-52079524D01*
X118223302Y-52086439D01*
X118195151Y-52090615D01*
X118166726Y-52092011D01*
X118138301Y-52090615D01*
X118110150Y-52086439D01*
X118082543Y-52079524D01*
X118055748Y-52069936D01*
X118030021Y-52057768D01*
X118005611Y-52043137D01*
X117982752Y-52026184D01*
X117961665Y-52007072D01*
X116992928Y-51038335D01*
X116973816Y-51017248D01*
X116956863Y-50994389D01*
X116942232Y-50969979D01*
X116930064Y-50944252D01*
X116920476Y-50917457D01*
X116913561Y-50889850D01*
X116909385Y-50861699D01*
X116907989Y-50833274D01*
X116909385Y-50804849D01*
X116913561Y-50776698D01*
X116920476Y-50749091D01*
X116930064Y-50722296D01*
X116942232Y-50696569D01*
X116956863Y-50672159D01*
X116973816Y-50649300D01*
X116992928Y-50628213D01*
X117608111Y-50013030D01*
X117629198Y-49993918D01*
X117652057Y-49976965D01*
X117676467Y-49962334D01*
X117702194Y-49950166D01*
X117728989Y-49940578D01*
X117756596Y-49933663D01*
X117784747Y-49929487D01*
X117813172Y-49928091D01*
X117841597Y-49929487D01*
X117841597Y-49929487D01*
G37*
D20*
X117989949Y-51010051D03*
D14*
G36*
X152215253Y-49929487D02*
G01*
X152243404Y-49933663D01*
X152271011Y-49940578D01*
X152297806Y-49950166D01*
X152323533Y-49962334D01*
X152347943Y-49976965D01*
X152370802Y-49993918D01*
X152391889Y-50013030D01*
X153007072Y-50628213D01*
X153026184Y-50649300D01*
X153043137Y-50672159D01*
X153057768Y-50696569D01*
X153069936Y-50722296D01*
X153079524Y-50749091D01*
X153086439Y-50776698D01*
X153090615Y-50804849D01*
X153092011Y-50833274D01*
X153090615Y-50861699D01*
X153086439Y-50889850D01*
X153079524Y-50917457D01*
X153069936Y-50944252D01*
X153057768Y-50969979D01*
X153043137Y-50994389D01*
X153026184Y-51017248D01*
X153007072Y-51038335D01*
X152038335Y-52007072D01*
X152017248Y-52026184D01*
X151994389Y-52043137D01*
X151969979Y-52057768D01*
X151944252Y-52069936D01*
X151917457Y-52079524D01*
X151889850Y-52086439D01*
X151861699Y-52090615D01*
X151833274Y-52092011D01*
X151804849Y-52090615D01*
X151776698Y-52086439D01*
X151749091Y-52079524D01*
X151722296Y-52069936D01*
X151696569Y-52057768D01*
X151672159Y-52043137D01*
X151649300Y-52026184D01*
X151628213Y-52007072D01*
X151013030Y-51391889D01*
X150993918Y-51370802D01*
X150976965Y-51347943D01*
X150962334Y-51323533D01*
X150950166Y-51297806D01*
X150940578Y-51271011D01*
X150933663Y-51243404D01*
X150929487Y-51215253D01*
X150928091Y-51186828D01*
X150929487Y-51158403D01*
X150933663Y-51130252D01*
X150940578Y-51102645D01*
X150950166Y-51075850D01*
X150962334Y-51050123D01*
X150976965Y-51025713D01*
X150993918Y-51002854D01*
X151013030Y-50981767D01*
X151981767Y-50013030D01*
X152002854Y-49993918D01*
X152025713Y-49976965D01*
X152050123Y-49962334D01*
X152075850Y-49950166D01*
X152102645Y-49940578D01*
X152130252Y-49933663D01*
X152158403Y-49929487D01*
X152186828Y-49928091D01*
X152215253Y-49929487D01*
X152215253Y-49929487D01*
G37*
D20*
X152010051Y-51010051D03*
D14*
G36*
X154195151Y-51909385D02*
G01*
X154223302Y-51913561D01*
X154250909Y-51920476D01*
X154277704Y-51930064D01*
X154303431Y-51942232D01*
X154327841Y-51956863D01*
X154350700Y-51973816D01*
X154371787Y-51992928D01*
X154986970Y-52608111D01*
X155006082Y-52629198D01*
X155023035Y-52652057D01*
X155037666Y-52676467D01*
X155049834Y-52702194D01*
X155059422Y-52728989D01*
X155066337Y-52756596D01*
X155070513Y-52784747D01*
X155071909Y-52813172D01*
X155070513Y-52841597D01*
X155066337Y-52869748D01*
X155059422Y-52897355D01*
X155049834Y-52924150D01*
X155037666Y-52949877D01*
X155023035Y-52974287D01*
X155006082Y-52997146D01*
X154986970Y-53018233D01*
X154018233Y-53986970D01*
X153997146Y-54006082D01*
X153974287Y-54023035D01*
X153949877Y-54037666D01*
X153924150Y-54049834D01*
X153897355Y-54059422D01*
X153869748Y-54066337D01*
X153841597Y-54070513D01*
X153813172Y-54071909D01*
X153784747Y-54070513D01*
X153756596Y-54066337D01*
X153728989Y-54059422D01*
X153702194Y-54049834D01*
X153676467Y-54037666D01*
X153652057Y-54023035D01*
X153629198Y-54006082D01*
X153608111Y-53986970D01*
X152992928Y-53371787D01*
X152973816Y-53350700D01*
X152956863Y-53327841D01*
X152942232Y-53303431D01*
X152930064Y-53277704D01*
X152920476Y-53250909D01*
X152913561Y-53223302D01*
X152909385Y-53195151D01*
X152907989Y-53166726D01*
X152909385Y-53138301D01*
X152913561Y-53110150D01*
X152920476Y-53082543D01*
X152930064Y-53055748D01*
X152942232Y-53030021D01*
X152956863Y-53005611D01*
X152973816Y-52982752D01*
X152992928Y-52961665D01*
X153961665Y-51992928D01*
X153982752Y-51973816D01*
X154005611Y-51956863D01*
X154030021Y-51942232D01*
X154055748Y-51930064D01*
X154082543Y-51920476D01*
X154110150Y-51913561D01*
X154138301Y-51909385D01*
X154166726Y-51907989D01*
X154195151Y-51909385D01*
X154195151Y-51909385D01*
G37*
D20*
X153989949Y-52989949D03*
D14*
G36*
X153841597Y-85929487D02*
G01*
X153869748Y-85933663D01*
X153897355Y-85940578D01*
X153924150Y-85950166D01*
X153949877Y-85962334D01*
X153974287Y-85976965D01*
X153997146Y-85993918D01*
X154018233Y-86013030D01*
X154986970Y-86981767D01*
X155006082Y-87002854D01*
X155023035Y-87025713D01*
X155037666Y-87050123D01*
X155049834Y-87075850D01*
X155059422Y-87102645D01*
X155066337Y-87130252D01*
X155070513Y-87158403D01*
X155071909Y-87186828D01*
X155070513Y-87215253D01*
X155066337Y-87243404D01*
X155059422Y-87271011D01*
X155049834Y-87297806D01*
X155037666Y-87323533D01*
X155023035Y-87347943D01*
X155006082Y-87370802D01*
X154986970Y-87391889D01*
X154371787Y-88007072D01*
X154350700Y-88026184D01*
X154327841Y-88043137D01*
X154303431Y-88057768D01*
X154277704Y-88069936D01*
X154250909Y-88079524D01*
X154223302Y-88086439D01*
X154195151Y-88090615D01*
X154166726Y-88092011D01*
X154138301Y-88090615D01*
X154110150Y-88086439D01*
X154082543Y-88079524D01*
X154055748Y-88069936D01*
X154030021Y-88057768D01*
X154005611Y-88043137D01*
X153982752Y-88026184D01*
X153961665Y-88007072D01*
X152992928Y-87038335D01*
X152973816Y-87017248D01*
X152956863Y-86994389D01*
X152942232Y-86969979D01*
X152930064Y-86944252D01*
X152920476Y-86917457D01*
X152913561Y-86889850D01*
X152909385Y-86861699D01*
X152907989Y-86833274D01*
X152909385Y-86804849D01*
X152913561Y-86776698D01*
X152920476Y-86749091D01*
X152930064Y-86722296D01*
X152942232Y-86696569D01*
X152956863Y-86672159D01*
X152973816Y-86649300D01*
X152992928Y-86628213D01*
X153608111Y-86013030D01*
X153629198Y-85993918D01*
X153652057Y-85976965D01*
X153676467Y-85962334D01*
X153702194Y-85950166D01*
X153728989Y-85940578D01*
X153756596Y-85933663D01*
X153784747Y-85929487D01*
X153813172Y-85928091D01*
X153841597Y-85929487D01*
X153841597Y-85929487D01*
G37*
D20*
X153989949Y-87010051D03*
D14*
G36*
X151861699Y-87909385D02*
G01*
X151889850Y-87913561D01*
X151917457Y-87920476D01*
X151944252Y-87930064D01*
X151969979Y-87942232D01*
X151994389Y-87956863D01*
X152017248Y-87973816D01*
X152038335Y-87992928D01*
X153007072Y-88961665D01*
X153026184Y-88982752D01*
X153043137Y-89005611D01*
X153057768Y-89030021D01*
X153069936Y-89055748D01*
X153079524Y-89082543D01*
X153086439Y-89110150D01*
X153090615Y-89138301D01*
X153092011Y-89166726D01*
X153090615Y-89195151D01*
X153086439Y-89223302D01*
X153079524Y-89250909D01*
X153069936Y-89277704D01*
X153057768Y-89303431D01*
X153043137Y-89327841D01*
X153026184Y-89350700D01*
X153007072Y-89371787D01*
X152391889Y-89986970D01*
X152370802Y-90006082D01*
X152347943Y-90023035D01*
X152323533Y-90037666D01*
X152297806Y-90049834D01*
X152271011Y-90059422D01*
X152243404Y-90066337D01*
X152215253Y-90070513D01*
X152186828Y-90071909D01*
X152158403Y-90070513D01*
X152130252Y-90066337D01*
X152102645Y-90059422D01*
X152075850Y-90049834D01*
X152050123Y-90037666D01*
X152025713Y-90023035D01*
X152002854Y-90006082D01*
X151981767Y-89986970D01*
X151013030Y-89018233D01*
X150993918Y-88997146D01*
X150976965Y-88974287D01*
X150962334Y-88949877D01*
X150950166Y-88924150D01*
X150940578Y-88897355D01*
X150933663Y-88869748D01*
X150929487Y-88841597D01*
X150928091Y-88813172D01*
X150929487Y-88784747D01*
X150933663Y-88756596D01*
X150940578Y-88728989D01*
X150950166Y-88702194D01*
X150962334Y-88676467D01*
X150976965Y-88652057D01*
X150993918Y-88629198D01*
X151013030Y-88608111D01*
X151628213Y-87992928D01*
X151649300Y-87973816D01*
X151672159Y-87956863D01*
X151696569Y-87942232D01*
X151722296Y-87930064D01*
X151749091Y-87920476D01*
X151776698Y-87913561D01*
X151804849Y-87909385D01*
X151833274Y-87907989D01*
X151861699Y-87909385D01*
X151861699Y-87909385D01*
G37*
D20*
X152010051Y-88989949D03*
D21*
X118500000Y-72380000D03*
X118500000Y-67500000D03*
D22*
X132200000Y-65750000D03*
X133000000Y-65750000D03*
X133800000Y-65750000D03*
X134600000Y-65750000D03*
X135400000Y-65750000D03*
X136200000Y-65750000D03*
X137000000Y-65750000D03*
X137800000Y-65750000D03*
D23*
X139250000Y-67200000D03*
X139250000Y-68000000D03*
X139250000Y-68800000D03*
X139250000Y-69600000D03*
X139250000Y-70400000D03*
X139250000Y-71200000D03*
X139250000Y-72000000D03*
X139250000Y-72800000D03*
D22*
X137800000Y-74250000D03*
X137000000Y-74250000D03*
X136200000Y-74250000D03*
X135400000Y-74250000D03*
X134600000Y-74250000D03*
X133800000Y-74250000D03*
X133000000Y-74250000D03*
X132200000Y-74250000D03*
D23*
X130750000Y-72800000D03*
X130750000Y-72000000D03*
X130750000Y-71200000D03*
X130750000Y-70400000D03*
X130750000Y-69600000D03*
X130750000Y-68800000D03*
X130750000Y-68000000D03*
X130750000Y-67200000D03*
D14*
G36*
X131535289Y-78851413D02*
G01*
X131563778Y-78855639D01*
X131591715Y-78862637D01*
X131618832Y-78872340D01*
X131644867Y-78884653D01*
X131669570Y-78899460D01*
X131692703Y-78916616D01*
X131714043Y-78935957D01*
X131733384Y-78957297D01*
X131750540Y-78980430D01*
X131765347Y-79005133D01*
X131777660Y-79031168D01*
X131787363Y-79058285D01*
X131794361Y-79086222D01*
X131798587Y-79114711D01*
X131800000Y-79143477D01*
X131800000Y-79906523D01*
X131798587Y-79935289D01*
X131794361Y-79963778D01*
X131787363Y-79991715D01*
X131777660Y-80018832D01*
X131765347Y-80044867D01*
X131750540Y-80069570D01*
X131733384Y-80092703D01*
X131714043Y-80114043D01*
X131692703Y-80133384D01*
X131669570Y-80150540D01*
X131644867Y-80165347D01*
X131618832Y-80177660D01*
X131591715Y-80187363D01*
X131563778Y-80194361D01*
X131535289Y-80198587D01*
X131506523Y-80200000D01*
X130493477Y-80200000D01*
X130464711Y-80198587D01*
X130436222Y-80194361D01*
X130408285Y-80187363D01*
X130381168Y-80177660D01*
X130355133Y-80165347D01*
X130330430Y-80150540D01*
X130307297Y-80133384D01*
X130285957Y-80114043D01*
X130266616Y-80092703D01*
X130249460Y-80069570D01*
X130234653Y-80044867D01*
X130222340Y-80018832D01*
X130212637Y-79991715D01*
X130205639Y-79963778D01*
X130201413Y-79935289D01*
X130200000Y-79906523D01*
X130200000Y-79143477D01*
X130201413Y-79114711D01*
X130205639Y-79086222D01*
X130212637Y-79058285D01*
X130222340Y-79031168D01*
X130234653Y-79005133D01*
X130249460Y-78980430D01*
X130266616Y-78957297D01*
X130285957Y-78935957D01*
X130307297Y-78916616D01*
X130330430Y-78899460D01*
X130355133Y-78884653D01*
X130381168Y-78872340D01*
X130408285Y-78862637D01*
X130436222Y-78855639D01*
X130464711Y-78851413D01*
X130493477Y-78850000D01*
X131506523Y-78850000D01*
X131535289Y-78851413D01*
X131535289Y-78851413D01*
G37*
D15*
X131000000Y-79525000D03*
D14*
G36*
X131535289Y-76801413D02*
G01*
X131563778Y-76805639D01*
X131591715Y-76812637D01*
X131618832Y-76822340D01*
X131644867Y-76834653D01*
X131669570Y-76849460D01*
X131692703Y-76866616D01*
X131714043Y-76885957D01*
X131733384Y-76907297D01*
X131750540Y-76930430D01*
X131765347Y-76955133D01*
X131777660Y-76981168D01*
X131787363Y-77008285D01*
X131794361Y-77036222D01*
X131798587Y-77064711D01*
X131800000Y-77093477D01*
X131800000Y-77856523D01*
X131798587Y-77885289D01*
X131794361Y-77913778D01*
X131787363Y-77941715D01*
X131777660Y-77968832D01*
X131765347Y-77994867D01*
X131750540Y-78019570D01*
X131733384Y-78042703D01*
X131714043Y-78064043D01*
X131692703Y-78083384D01*
X131669570Y-78100540D01*
X131644867Y-78115347D01*
X131618832Y-78127660D01*
X131591715Y-78137363D01*
X131563778Y-78144361D01*
X131535289Y-78148587D01*
X131506523Y-78150000D01*
X130493477Y-78150000D01*
X130464711Y-78148587D01*
X130436222Y-78144361D01*
X130408285Y-78137363D01*
X130381168Y-78127660D01*
X130355133Y-78115347D01*
X130330430Y-78100540D01*
X130307297Y-78083384D01*
X130285957Y-78064043D01*
X130266616Y-78042703D01*
X130249460Y-78019570D01*
X130234653Y-77994867D01*
X130222340Y-77968832D01*
X130212637Y-77941715D01*
X130205639Y-77913778D01*
X130201413Y-77885289D01*
X130200000Y-77856523D01*
X130200000Y-77093477D01*
X130201413Y-77064711D01*
X130205639Y-77036222D01*
X130212637Y-77008285D01*
X130222340Y-76981168D01*
X130234653Y-76955133D01*
X130249460Y-76930430D01*
X130266616Y-76907297D01*
X130285957Y-76885957D01*
X130307297Y-76866616D01*
X130330430Y-76849460D01*
X130355133Y-76834653D01*
X130381168Y-76822340D01*
X130408285Y-76812637D01*
X130436222Y-76805639D01*
X130464711Y-76801413D01*
X130493477Y-76800000D01*
X131506523Y-76800000D01*
X131535289Y-76801413D01*
X131535289Y-76801413D01*
G37*
D15*
X131000000Y-77475000D03*
D14*
G36*
X143885289Y-66201413D02*
G01*
X143913778Y-66205639D01*
X143941715Y-66212637D01*
X143968832Y-66222340D01*
X143994867Y-66234653D01*
X144019570Y-66249460D01*
X144042703Y-66266616D01*
X144064043Y-66285957D01*
X144083384Y-66307297D01*
X144100540Y-66330430D01*
X144115347Y-66355133D01*
X144127660Y-66381168D01*
X144137363Y-66408285D01*
X144144361Y-66436222D01*
X144148587Y-66464711D01*
X144150000Y-66493477D01*
X144150000Y-67506523D01*
X144148587Y-67535289D01*
X144144361Y-67563778D01*
X144137363Y-67591715D01*
X144127660Y-67618832D01*
X144115347Y-67644867D01*
X144100540Y-67669570D01*
X144083384Y-67692703D01*
X144064043Y-67714043D01*
X144042703Y-67733384D01*
X144019570Y-67750540D01*
X143994867Y-67765347D01*
X143968832Y-67777660D01*
X143941715Y-67787363D01*
X143913778Y-67794361D01*
X143885289Y-67798587D01*
X143856523Y-67800000D01*
X143093477Y-67800000D01*
X143064711Y-67798587D01*
X143036222Y-67794361D01*
X143008285Y-67787363D01*
X142981168Y-67777660D01*
X142955133Y-67765347D01*
X142930430Y-67750540D01*
X142907297Y-67733384D01*
X142885957Y-67714043D01*
X142866616Y-67692703D01*
X142849460Y-67669570D01*
X142834653Y-67644867D01*
X142822340Y-67618832D01*
X142812637Y-67591715D01*
X142805639Y-67563778D01*
X142801413Y-67535289D01*
X142800000Y-67506523D01*
X142800000Y-66493477D01*
X142801413Y-66464711D01*
X142805639Y-66436222D01*
X142812637Y-66408285D01*
X142822340Y-66381168D01*
X142834653Y-66355133D01*
X142849460Y-66330430D01*
X142866616Y-66307297D01*
X142885957Y-66285957D01*
X142907297Y-66266616D01*
X142930430Y-66249460D01*
X142955133Y-66234653D01*
X142981168Y-66222340D01*
X143008285Y-66212637D01*
X143036222Y-66205639D01*
X143064711Y-66201413D01*
X143093477Y-66200000D01*
X143856523Y-66200000D01*
X143885289Y-66201413D01*
X143885289Y-66201413D01*
G37*
D15*
X143475000Y-67000000D03*
D14*
G36*
X145935289Y-66201413D02*
G01*
X145963778Y-66205639D01*
X145991715Y-66212637D01*
X146018832Y-66222340D01*
X146044867Y-66234653D01*
X146069570Y-66249460D01*
X146092703Y-66266616D01*
X146114043Y-66285957D01*
X146133384Y-66307297D01*
X146150540Y-66330430D01*
X146165347Y-66355133D01*
X146177660Y-66381168D01*
X146187363Y-66408285D01*
X146194361Y-66436222D01*
X146198587Y-66464711D01*
X146200000Y-66493477D01*
X146200000Y-67506523D01*
X146198587Y-67535289D01*
X146194361Y-67563778D01*
X146187363Y-67591715D01*
X146177660Y-67618832D01*
X146165347Y-67644867D01*
X146150540Y-67669570D01*
X146133384Y-67692703D01*
X146114043Y-67714043D01*
X146092703Y-67733384D01*
X146069570Y-67750540D01*
X146044867Y-67765347D01*
X146018832Y-67777660D01*
X145991715Y-67787363D01*
X145963778Y-67794361D01*
X145935289Y-67798587D01*
X145906523Y-67800000D01*
X145143477Y-67800000D01*
X145114711Y-67798587D01*
X145086222Y-67794361D01*
X145058285Y-67787363D01*
X145031168Y-67777660D01*
X145005133Y-67765347D01*
X144980430Y-67750540D01*
X144957297Y-67733384D01*
X144935957Y-67714043D01*
X144916616Y-67692703D01*
X144899460Y-67669570D01*
X144884653Y-67644867D01*
X144872340Y-67618832D01*
X144862637Y-67591715D01*
X144855639Y-67563778D01*
X144851413Y-67535289D01*
X144850000Y-67506523D01*
X144850000Y-66493477D01*
X144851413Y-66464711D01*
X144855639Y-66436222D01*
X144862637Y-66408285D01*
X144872340Y-66381168D01*
X144884653Y-66355133D01*
X144899460Y-66330430D01*
X144916616Y-66307297D01*
X144935957Y-66285957D01*
X144957297Y-66266616D01*
X144980430Y-66249460D01*
X145005133Y-66234653D01*
X145031168Y-66222340D01*
X145058285Y-66212637D01*
X145086222Y-66205639D01*
X145114711Y-66201413D01*
X145143477Y-66200000D01*
X145906523Y-66200000D01*
X145935289Y-66201413D01*
X145935289Y-66201413D01*
G37*
D15*
X145525000Y-67000000D03*
D14*
G36*
X145935289Y-68201413D02*
G01*
X145963778Y-68205639D01*
X145991715Y-68212637D01*
X146018832Y-68222340D01*
X146044867Y-68234653D01*
X146069570Y-68249460D01*
X146092703Y-68266616D01*
X146114043Y-68285957D01*
X146133384Y-68307297D01*
X146150540Y-68330430D01*
X146165347Y-68355133D01*
X146177660Y-68381168D01*
X146187363Y-68408285D01*
X146194361Y-68436222D01*
X146198587Y-68464711D01*
X146200000Y-68493477D01*
X146200000Y-69506523D01*
X146198587Y-69535289D01*
X146194361Y-69563778D01*
X146187363Y-69591715D01*
X146177660Y-69618832D01*
X146165347Y-69644867D01*
X146150540Y-69669570D01*
X146133384Y-69692703D01*
X146114043Y-69714043D01*
X146092703Y-69733384D01*
X146069570Y-69750540D01*
X146044867Y-69765347D01*
X146018832Y-69777660D01*
X145991715Y-69787363D01*
X145963778Y-69794361D01*
X145935289Y-69798587D01*
X145906523Y-69800000D01*
X145143477Y-69800000D01*
X145114711Y-69798587D01*
X145086222Y-69794361D01*
X145058285Y-69787363D01*
X145031168Y-69777660D01*
X145005133Y-69765347D01*
X144980430Y-69750540D01*
X144957297Y-69733384D01*
X144935957Y-69714043D01*
X144916616Y-69692703D01*
X144899460Y-69669570D01*
X144884653Y-69644867D01*
X144872340Y-69618832D01*
X144862637Y-69591715D01*
X144855639Y-69563778D01*
X144851413Y-69535289D01*
X144850000Y-69506523D01*
X144850000Y-68493477D01*
X144851413Y-68464711D01*
X144855639Y-68436222D01*
X144862637Y-68408285D01*
X144872340Y-68381168D01*
X144884653Y-68355133D01*
X144899460Y-68330430D01*
X144916616Y-68307297D01*
X144935957Y-68285957D01*
X144957297Y-68266616D01*
X144980430Y-68249460D01*
X145005133Y-68234653D01*
X145031168Y-68222340D01*
X145058285Y-68212637D01*
X145086222Y-68205639D01*
X145114711Y-68201413D01*
X145143477Y-68200000D01*
X145906523Y-68200000D01*
X145935289Y-68201413D01*
X145935289Y-68201413D01*
G37*
D15*
X145525000Y-69000000D03*
D14*
G36*
X143885289Y-68201413D02*
G01*
X143913778Y-68205639D01*
X143941715Y-68212637D01*
X143968832Y-68222340D01*
X143994867Y-68234653D01*
X144019570Y-68249460D01*
X144042703Y-68266616D01*
X144064043Y-68285957D01*
X144083384Y-68307297D01*
X144100540Y-68330430D01*
X144115347Y-68355133D01*
X144127660Y-68381168D01*
X144137363Y-68408285D01*
X144144361Y-68436222D01*
X144148587Y-68464711D01*
X144150000Y-68493477D01*
X144150000Y-69506523D01*
X144148587Y-69535289D01*
X144144361Y-69563778D01*
X144137363Y-69591715D01*
X144127660Y-69618832D01*
X144115347Y-69644867D01*
X144100540Y-69669570D01*
X144083384Y-69692703D01*
X144064043Y-69714043D01*
X144042703Y-69733384D01*
X144019570Y-69750540D01*
X143994867Y-69765347D01*
X143968832Y-69777660D01*
X143941715Y-69787363D01*
X143913778Y-69794361D01*
X143885289Y-69798587D01*
X143856523Y-69800000D01*
X143093477Y-69800000D01*
X143064711Y-69798587D01*
X143036222Y-69794361D01*
X143008285Y-69787363D01*
X142981168Y-69777660D01*
X142955133Y-69765347D01*
X142930430Y-69750540D01*
X142907297Y-69733384D01*
X142885957Y-69714043D01*
X142866616Y-69692703D01*
X142849460Y-69669570D01*
X142834653Y-69644867D01*
X142822340Y-69618832D01*
X142812637Y-69591715D01*
X142805639Y-69563778D01*
X142801413Y-69535289D01*
X142800000Y-69506523D01*
X142800000Y-68493477D01*
X142801413Y-68464711D01*
X142805639Y-68436222D01*
X142812637Y-68408285D01*
X142822340Y-68381168D01*
X142834653Y-68355133D01*
X142849460Y-68330430D01*
X142866616Y-68307297D01*
X142885957Y-68285957D01*
X142907297Y-68266616D01*
X142930430Y-68249460D01*
X142955133Y-68234653D01*
X142981168Y-68222340D01*
X143008285Y-68212637D01*
X143036222Y-68205639D01*
X143064711Y-68201413D01*
X143093477Y-68200000D01*
X143856523Y-68200000D01*
X143885289Y-68201413D01*
X143885289Y-68201413D01*
G37*
D15*
X143475000Y-69000000D03*
D18*
X133735000Y-55000000D03*
D19*
X136275000Y-55000000D03*
D14*
G36*
X127435289Y-72201413D02*
G01*
X127463778Y-72205639D01*
X127491715Y-72212637D01*
X127518832Y-72222340D01*
X127544867Y-72234653D01*
X127569570Y-72249460D01*
X127592703Y-72266616D01*
X127614043Y-72285957D01*
X127633384Y-72307297D01*
X127650540Y-72330430D01*
X127665347Y-72355133D01*
X127677660Y-72381168D01*
X127687363Y-72408285D01*
X127694361Y-72436222D01*
X127698587Y-72464711D01*
X127700000Y-72493477D01*
X127700000Y-73506523D01*
X127698587Y-73535289D01*
X127694361Y-73563778D01*
X127687363Y-73591715D01*
X127677660Y-73618832D01*
X127665347Y-73644867D01*
X127650540Y-73669570D01*
X127633384Y-73692703D01*
X127614043Y-73714043D01*
X127592703Y-73733384D01*
X127569570Y-73750540D01*
X127544867Y-73765347D01*
X127518832Y-73777660D01*
X127491715Y-73787363D01*
X127463778Y-73794361D01*
X127435289Y-73798587D01*
X127406523Y-73800000D01*
X126643477Y-73800000D01*
X126614711Y-73798587D01*
X126586222Y-73794361D01*
X126558285Y-73787363D01*
X126531168Y-73777660D01*
X126505133Y-73765347D01*
X126480430Y-73750540D01*
X126457297Y-73733384D01*
X126435957Y-73714043D01*
X126416616Y-73692703D01*
X126399460Y-73669570D01*
X126384653Y-73644867D01*
X126372340Y-73618832D01*
X126362637Y-73591715D01*
X126355639Y-73563778D01*
X126351413Y-73535289D01*
X126350000Y-73506523D01*
X126350000Y-72493477D01*
X126351413Y-72464711D01*
X126355639Y-72436222D01*
X126362637Y-72408285D01*
X126372340Y-72381168D01*
X126384653Y-72355133D01*
X126399460Y-72330430D01*
X126416616Y-72307297D01*
X126435957Y-72285957D01*
X126457297Y-72266616D01*
X126480430Y-72249460D01*
X126505133Y-72234653D01*
X126531168Y-72222340D01*
X126558285Y-72212637D01*
X126586222Y-72205639D01*
X126614711Y-72201413D01*
X126643477Y-72200000D01*
X127406523Y-72200000D01*
X127435289Y-72201413D01*
X127435289Y-72201413D01*
G37*
D15*
X127025000Y-73000000D03*
D14*
G36*
X125385289Y-72201413D02*
G01*
X125413778Y-72205639D01*
X125441715Y-72212637D01*
X125468832Y-72222340D01*
X125494867Y-72234653D01*
X125519570Y-72249460D01*
X125542703Y-72266616D01*
X125564043Y-72285957D01*
X125583384Y-72307297D01*
X125600540Y-72330430D01*
X125615347Y-72355133D01*
X125627660Y-72381168D01*
X125637363Y-72408285D01*
X125644361Y-72436222D01*
X125648587Y-72464711D01*
X125650000Y-72493477D01*
X125650000Y-73506523D01*
X125648587Y-73535289D01*
X125644361Y-73563778D01*
X125637363Y-73591715D01*
X125627660Y-73618832D01*
X125615347Y-73644867D01*
X125600540Y-73669570D01*
X125583384Y-73692703D01*
X125564043Y-73714043D01*
X125542703Y-73733384D01*
X125519570Y-73750540D01*
X125494867Y-73765347D01*
X125468832Y-73777660D01*
X125441715Y-73787363D01*
X125413778Y-73794361D01*
X125385289Y-73798587D01*
X125356523Y-73800000D01*
X124593477Y-73800000D01*
X124564711Y-73798587D01*
X124536222Y-73794361D01*
X124508285Y-73787363D01*
X124481168Y-73777660D01*
X124455133Y-73765347D01*
X124430430Y-73750540D01*
X124407297Y-73733384D01*
X124385957Y-73714043D01*
X124366616Y-73692703D01*
X124349460Y-73669570D01*
X124334653Y-73644867D01*
X124322340Y-73618832D01*
X124312637Y-73591715D01*
X124305639Y-73563778D01*
X124301413Y-73535289D01*
X124300000Y-73506523D01*
X124300000Y-72493477D01*
X124301413Y-72464711D01*
X124305639Y-72436222D01*
X124312637Y-72408285D01*
X124322340Y-72381168D01*
X124334653Y-72355133D01*
X124349460Y-72330430D01*
X124366616Y-72307297D01*
X124385957Y-72285957D01*
X124407297Y-72266616D01*
X124430430Y-72249460D01*
X124455133Y-72234653D01*
X124481168Y-72222340D01*
X124508285Y-72212637D01*
X124536222Y-72205639D01*
X124564711Y-72201413D01*
X124593477Y-72200000D01*
X125356523Y-72200000D01*
X125385289Y-72201413D01*
X125385289Y-72201413D01*
G37*
D15*
X124975000Y-73000000D03*
D14*
G36*
X127435289Y-70201413D02*
G01*
X127463778Y-70205639D01*
X127491715Y-70212637D01*
X127518832Y-70222340D01*
X127544867Y-70234653D01*
X127569570Y-70249460D01*
X127592703Y-70266616D01*
X127614043Y-70285957D01*
X127633384Y-70307297D01*
X127650540Y-70330430D01*
X127665347Y-70355133D01*
X127677660Y-70381168D01*
X127687363Y-70408285D01*
X127694361Y-70436222D01*
X127698587Y-70464711D01*
X127700000Y-70493477D01*
X127700000Y-71506523D01*
X127698587Y-71535289D01*
X127694361Y-71563778D01*
X127687363Y-71591715D01*
X127677660Y-71618832D01*
X127665347Y-71644867D01*
X127650540Y-71669570D01*
X127633384Y-71692703D01*
X127614043Y-71714043D01*
X127592703Y-71733384D01*
X127569570Y-71750540D01*
X127544867Y-71765347D01*
X127518832Y-71777660D01*
X127491715Y-71787363D01*
X127463778Y-71794361D01*
X127435289Y-71798587D01*
X127406523Y-71800000D01*
X126643477Y-71800000D01*
X126614711Y-71798587D01*
X126586222Y-71794361D01*
X126558285Y-71787363D01*
X126531168Y-71777660D01*
X126505133Y-71765347D01*
X126480430Y-71750540D01*
X126457297Y-71733384D01*
X126435957Y-71714043D01*
X126416616Y-71692703D01*
X126399460Y-71669570D01*
X126384653Y-71644867D01*
X126372340Y-71618832D01*
X126362637Y-71591715D01*
X126355639Y-71563778D01*
X126351413Y-71535289D01*
X126350000Y-71506523D01*
X126350000Y-70493477D01*
X126351413Y-70464711D01*
X126355639Y-70436222D01*
X126362637Y-70408285D01*
X126372340Y-70381168D01*
X126384653Y-70355133D01*
X126399460Y-70330430D01*
X126416616Y-70307297D01*
X126435957Y-70285957D01*
X126457297Y-70266616D01*
X126480430Y-70249460D01*
X126505133Y-70234653D01*
X126531168Y-70222340D01*
X126558285Y-70212637D01*
X126586222Y-70205639D01*
X126614711Y-70201413D01*
X126643477Y-70200000D01*
X127406523Y-70200000D01*
X127435289Y-70201413D01*
X127435289Y-70201413D01*
G37*
D15*
X127025000Y-71000000D03*
D14*
G36*
X125385289Y-70201413D02*
G01*
X125413778Y-70205639D01*
X125441715Y-70212637D01*
X125468832Y-70222340D01*
X125494867Y-70234653D01*
X125519570Y-70249460D01*
X125542703Y-70266616D01*
X125564043Y-70285957D01*
X125583384Y-70307297D01*
X125600540Y-70330430D01*
X125615347Y-70355133D01*
X125627660Y-70381168D01*
X125637363Y-70408285D01*
X125644361Y-70436222D01*
X125648587Y-70464711D01*
X125650000Y-70493477D01*
X125650000Y-71506523D01*
X125648587Y-71535289D01*
X125644361Y-71563778D01*
X125637363Y-71591715D01*
X125627660Y-71618832D01*
X125615347Y-71644867D01*
X125600540Y-71669570D01*
X125583384Y-71692703D01*
X125564043Y-71714043D01*
X125542703Y-71733384D01*
X125519570Y-71750540D01*
X125494867Y-71765347D01*
X125468832Y-71777660D01*
X125441715Y-71787363D01*
X125413778Y-71794361D01*
X125385289Y-71798587D01*
X125356523Y-71800000D01*
X124593477Y-71800000D01*
X124564711Y-71798587D01*
X124536222Y-71794361D01*
X124508285Y-71787363D01*
X124481168Y-71777660D01*
X124455133Y-71765347D01*
X124430430Y-71750540D01*
X124407297Y-71733384D01*
X124385957Y-71714043D01*
X124366616Y-71692703D01*
X124349460Y-71669570D01*
X124334653Y-71644867D01*
X124322340Y-71618832D01*
X124312637Y-71591715D01*
X124305639Y-71563778D01*
X124301413Y-71535289D01*
X124300000Y-71506523D01*
X124300000Y-70493477D01*
X124301413Y-70464711D01*
X124305639Y-70436222D01*
X124312637Y-70408285D01*
X124322340Y-70381168D01*
X124334653Y-70355133D01*
X124349460Y-70330430D01*
X124366616Y-70307297D01*
X124385957Y-70285957D01*
X124407297Y-70266616D01*
X124430430Y-70249460D01*
X124455133Y-70234653D01*
X124481168Y-70222340D01*
X124508285Y-70212637D01*
X124536222Y-70205639D01*
X124564711Y-70201413D01*
X124593477Y-70200000D01*
X125356523Y-70200000D01*
X125385289Y-70201413D01*
X125385289Y-70201413D01*
G37*
D15*
X124975000Y-71000000D03*
D14*
G36*
X145935289Y-70201413D02*
G01*
X145963778Y-70205639D01*
X145991715Y-70212637D01*
X146018832Y-70222340D01*
X146044867Y-70234653D01*
X146069570Y-70249460D01*
X146092703Y-70266616D01*
X146114043Y-70285957D01*
X146133384Y-70307297D01*
X146150540Y-70330430D01*
X146165347Y-70355133D01*
X146177660Y-70381168D01*
X146187363Y-70408285D01*
X146194361Y-70436222D01*
X146198587Y-70464711D01*
X146200000Y-70493477D01*
X146200000Y-71506523D01*
X146198587Y-71535289D01*
X146194361Y-71563778D01*
X146187363Y-71591715D01*
X146177660Y-71618832D01*
X146165347Y-71644867D01*
X146150540Y-71669570D01*
X146133384Y-71692703D01*
X146114043Y-71714043D01*
X146092703Y-71733384D01*
X146069570Y-71750540D01*
X146044867Y-71765347D01*
X146018832Y-71777660D01*
X145991715Y-71787363D01*
X145963778Y-71794361D01*
X145935289Y-71798587D01*
X145906523Y-71800000D01*
X145143477Y-71800000D01*
X145114711Y-71798587D01*
X145086222Y-71794361D01*
X145058285Y-71787363D01*
X145031168Y-71777660D01*
X145005133Y-71765347D01*
X144980430Y-71750540D01*
X144957297Y-71733384D01*
X144935957Y-71714043D01*
X144916616Y-71692703D01*
X144899460Y-71669570D01*
X144884653Y-71644867D01*
X144872340Y-71618832D01*
X144862637Y-71591715D01*
X144855639Y-71563778D01*
X144851413Y-71535289D01*
X144850000Y-71506523D01*
X144850000Y-70493477D01*
X144851413Y-70464711D01*
X144855639Y-70436222D01*
X144862637Y-70408285D01*
X144872340Y-70381168D01*
X144884653Y-70355133D01*
X144899460Y-70330430D01*
X144916616Y-70307297D01*
X144935957Y-70285957D01*
X144957297Y-70266616D01*
X144980430Y-70249460D01*
X145005133Y-70234653D01*
X145031168Y-70222340D01*
X145058285Y-70212637D01*
X145086222Y-70205639D01*
X145114711Y-70201413D01*
X145143477Y-70200000D01*
X145906523Y-70200000D01*
X145935289Y-70201413D01*
X145935289Y-70201413D01*
G37*
D15*
X145525000Y-71000000D03*
D14*
G36*
X143885289Y-70201413D02*
G01*
X143913778Y-70205639D01*
X143941715Y-70212637D01*
X143968832Y-70222340D01*
X143994867Y-70234653D01*
X144019570Y-70249460D01*
X144042703Y-70266616D01*
X144064043Y-70285957D01*
X144083384Y-70307297D01*
X144100540Y-70330430D01*
X144115347Y-70355133D01*
X144127660Y-70381168D01*
X144137363Y-70408285D01*
X144144361Y-70436222D01*
X144148587Y-70464711D01*
X144150000Y-70493477D01*
X144150000Y-71506523D01*
X144148587Y-71535289D01*
X144144361Y-71563778D01*
X144137363Y-71591715D01*
X144127660Y-71618832D01*
X144115347Y-71644867D01*
X144100540Y-71669570D01*
X144083384Y-71692703D01*
X144064043Y-71714043D01*
X144042703Y-71733384D01*
X144019570Y-71750540D01*
X143994867Y-71765347D01*
X143968832Y-71777660D01*
X143941715Y-71787363D01*
X143913778Y-71794361D01*
X143885289Y-71798587D01*
X143856523Y-71800000D01*
X143093477Y-71800000D01*
X143064711Y-71798587D01*
X143036222Y-71794361D01*
X143008285Y-71787363D01*
X142981168Y-71777660D01*
X142955133Y-71765347D01*
X142930430Y-71750540D01*
X142907297Y-71733384D01*
X142885957Y-71714043D01*
X142866616Y-71692703D01*
X142849460Y-71669570D01*
X142834653Y-71644867D01*
X142822340Y-71618832D01*
X142812637Y-71591715D01*
X142805639Y-71563778D01*
X142801413Y-71535289D01*
X142800000Y-71506523D01*
X142800000Y-70493477D01*
X142801413Y-70464711D01*
X142805639Y-70436222D01*
X142812637Y-70408285D01*
X142822340Y-70381168D01*
X142834653Y-70355133D01*
X142849460Y-70330430D01*
X142866616Y-70307297D01*
X142885957Y-70285957D01*
X142907297Y-70266616D01*
X142930430Y-70249460D01*
X142955133Y-70234653D01*
X142981168Y-70222340D01*
X143008285Y-70212637D01*
X143036222Y-70205639D01*
X143064711Y-70201413D01*
X143093477Y-70200000D01*
X143856523Y-70200000D01*
X143885289Y-70201413D01*
X143885289Y-70201413D01*
G37*
D15*
X143475000Y-71000000D03*
D14*
G36*
X143885289Y-72201413D02*
G01*
X143913778Y-72205639D01*
X143941715Y-72212637D01*
X143968832Y-72222340D01*
X143994867Y-72234653D01*
X144019570Y-72249460D01*
X144042703Y-72266616D01*
X144064043Y-72285957D01*
X144083384Y-72307297D01*
X144100540Y-72330430D01*
X144115347Y-72355133D01*
X144127660Y-72381168D01*
X144137363Y-72408285D01*
X144144361Y-72436222D01*
X144148587Y-72464711D01*
X144150000Y-72493477D01*
X144150000Y-73506523D01*
X144148587Y-73535289D01*
X144144361Y-73563778D01*
X144137363Y-73591715D01*
X144127660Y-73618832D01*
X144115347Y-73644867D01*
X144100540Y-73669570D01*
X144083384Y-73692703D01*
X144064043Y-73714043D01*
X144042703Y-73733384D01*
X144019570Y-73750540D01*
X143994867Y-73765347D01*
X143968832Y-73777660D01*
X143941715Y-73787363D01*
X143913778Y-73794361D01*
X143885289Y-73798587D01*
X143856523Y-73800000D01*
X143093477Y-73800000D01*
X143064711Y-73798587D01*
X143036222Y-73794361D01*
X143008285Y-73787363D01*
X142981168Y-73777660D01*
X142955133Y-73765347D01*
X142930430Y-73750540D01*
X142907297Y-73733384D01*
X142885957Y-73714043D01*
X142866616Y-73692703D01*
X142849460Y-73669570D01*
X142834653Y-73644867D01*
X142822340Y-73618832D01*
X142812637Y-73591715D01*
X142805639Y-73563778D01*
X142801413Y-73535289D01*
X142800000Y-73506523D01*
X142800000Y-72493477D01*
X142801413Y-72464711D01*
X142805639Y-72436222D01*
X142812637Y-72408285D01*
X142822340Y-72381168D01*
X142834653Y-72355133D01*
X142849460Y-72330430D01*
X142866616Y-72307297D01*
X142885957Y-72285957D01*
X142907297Y-72266616D01*
X142930430Y-72249460D01*
X142955133Y-72234653D01*
X142981168Y-72222340D01*
X143008285Y-72212637D01*
X143036222Y-72205639D01*
X143064711Y-72201413D01*
X143093477Y-72200000D01*
X143856523Y-72200000D01*
X143885289Y-72201413D01*
X143885289Y-72201413D01*
G37*
D15*
X143475000Y-73000000D03*
D14*
G36*
X145935289Y-72201413D02*
G01*
X145963778Y-72205639D01*
X145991715Y-72212637D01*
X146018832Y-72222340D01*
X146044867Y-72234653D01*
X146069570Y-72249460D01*
X146092703Y-72266616D01*
X146114043Y-72285957D01*
X146133384Y-72307297D01*
X146150540Y-72330430D01*
X146165347Y-72355133D01*
X146177660Y-72381168D01*
X146187363Y-72408285D01*
X146194361Y-72436222D01*
X146198587Y-72464711D01*
X146200000Y-72493477D01*
X146200000Y-73506523D01*
X146198587Y-73535289D01*
X146194361Y-73563778D01*
X146187363Y-73591715D01*
X146177660Y-73618832D01*
X146165347Y-73644867D01*
X146150540Y-73669570D01*
X146133384Y-73692703D01*
X146114043Y-73714043D01*
X146092703Y-73733384D01*
X146069570Y-73750540D01*
X146044867Y-73765347D01*
X146018832Y-73777660D01*
X145991715Y-73787363D01*
X145963778Y-73794361D01*
X145935289Y-73798587D01*
X145906523Y-73800000D01*
X145143477Y-73800000D01*
X145114711Y-73798587D01*
X145086222Y-73794361D01*
X145058285Y-73787363D01*
X145031168Y-73777660D01*
X145005133Y-73765347D01*
X144980430Y-73750540D01*
X144957297Y-73733384D01*
X144935957Y-73714043D01*
X144916616Y-73692703D01*
X144899460Y-73669570D01*
X144884653Y-73644867D01*
X144872340Y-73618832D01*
X144862637Y-73591715D01*
X144855639Y-73563778D01*
X144851413Y-73535289D01*
X144850000Y-73506523D01*
X144850000Y-72493477D01*
X144851413Y-72464711D01*
X144855639Y-72436222D01*
X144862637Y-72408285D01*
X144872340Y-72381168D01*
X144884653Y-72355133D01*
X144899460Y-72330430D01*
X144916616Y-72307297D01*
X144935957Y-72285957D01*
X144957297Y-72266616D01*
X144980430Y-72249460D01*
X145005133Y-72234653D01*
X145031168Y-72222340D01*
X145058285Y-72212637D01*
X145086222Y-72205639D01*
X145114711Y-72201413D01*
X145143477Y-72200000D01*
X145906523Y-72200000D01*
X145935289Y-72201413D01*
X145935289Y-72201413D01*
G37*
D15*
X145525000Y-73000000D03*
D14*
G36*
X127435289Y-66201413D02*
G01*
X127463778Y-66205639D01*
X127491715Y-66212637D01*
X127518832Y-66222340D01*
X127544867Y-66234653D01*
X127569570Y-66249460D01*
X127592703Y-66266616D01*
X127614043Y-66285957D01*
X127633384Y-66307297D01*
X127650540Y-66330430D01*
X127665347Y-66355133D01*
X127677660Y-66381168D01*
X127687363Y-66408285D01*
X127694361Y-66436222D01*
X127698587Y-66464711D01*
X127700000Y-66493477D01*
X127700000Y-67506523D01*
X127698587Y-67535289D01*
X127694361Y-67563778D01*
X127687363Y-67591715D01*
X127677660Y-67618832D01*
X127665347Y-67644867D01*
X127650540Y-67669570D01*
X127633384Y-67692703D01*
X127614043Y-67714043D01*
X127592703Y-67733384D01*
X127569570Y-67750540D01*
X127544867Y-67765347D01*
X127518832Y-67777660D01*
X127491715Y-67787363D01*
X127463778Y-67794361D01*
X127435289Y-67798587D01*
X127406523Y-67800000D01*
X126643477Y-67800000D01*
X126614711Y-67798587D01*
X126586222Y-67794361D01*
X126558285Y-67787363D01*
X126531168Y-67777660D01*
X126505133Y-67765347D01*
X126480430Y-67750540D01*
X126457297Y-67733384D01*
X126435957Y-67714043D01*
X126416616Y-67692703D01*
X126399460Y-67669570D01*
X126384653Y-67644867D01*
X126372340Y-67618832D01*
X126362637Y-67591715D01*
X126355639Y-67563778D01*
X126351413Y-67535289D01*
X126350000Y-67506523D01*
X126350000Y-66493477D01*
X126351413Y-66464711D01*
X126355639Y-66436222D01*
X126362637Y-66408285D01*
X126372340Y-66381168D01*
X126384653Y-66355133D01*
X126399460Y-66330430D01*
X126416616Y-66307297D01*
X126435957Y-66285957D01*
X126457297Y-66266616D01*
X126480430Y-66249460D01*
X126505133Y-66234653D01*
X126531168Y-66222340D01*
X126558285Y-66212637D01*
X126586222Y-66205639D01*
X126614711Y-66201413D01*
X126643477Y-66200000D01*
X127406523Y-66200000D01*
X127435289Y-66201413D01*
X127435289Y-66201413D01*
G37*
D15*
X127025000Y-67000000D03*
D14*
G36*
X125385289Y-66201413D02*
G01*
X125413778Y-66205639D01*
X125441715Y-66212637D01*
X125468832Y-66222340D01*
X125494867Y-66234653D01*
X125519570Y-66249460D01*
X125542703Y-66266616D01*
X125564043Y-66285957D01*
X125583384Y-66307297D01*
X125600540Y-66330430D01*
X125615347Y-66355133D01*
X125627660Y-66381168D01*
X125637363Y-66408285D01*
X125644361Y-66436222D01*
X125648587Y-66464711D01*
X125650000Y-66493477D01*
X125650000Y-67506523D01*
X125648587Y-67535289D01*
X125644361Y-67563778D01*
X125637363Y-67591715D01*
X125627660Y-67618832D01*
X125615347Y-67644867D01*
X125600540Y-67669570D01*
X125583384Y-67692703D01*
X125564043Y-67714043D01*
X125542703Y-67733384D01*
X125519570Y-67750540D01*
X125494867Y-67765347D01*
X125468832Y-67777660D01*
X125441715Y-67787363D01*
X125413778Y-67794361D01*
X125385289Y-67798587D01*
X125356523Y-67800000D01*
X124593477Y-67800000D01*
X124564711Y-67798587D01*
X124536222Y-67794361D01*
X124508285Y-67787363D01*
X124481168Y-67777660D01*
X124455133Y-67765347D01*
X124430430Y-67750540D01*
X124407297Y-67733384D01*
X124385957Y-67714043D01*
X124366616Y-67692703D01*
X124349460Y-67669570D01*
X124334653Y-67644867D01*
X124322340Y-67618832D01*
X124312637Y-67591715D01*
X124305639Y-67563778D01*
X124301413Y-67535289D01*
X124300000Y-67506523D01*
X124300000Y-66493477D01*
X124301413Y-66464711D01*
X124305639Y-66436222D01*
X124312637Y-66408285D01*
X124322340Y-66381168D01*
X124334653Y-66355133D01*
X124349460Y-66330430D01*
X124366616Y-66307297D01*
X124385957Y-66285957D01*
X124407297Y-66266616D01*
X124430430Y-66249460D01*
X124455133Y-66234653D01*
X124481168Y-66222340D01*
X124508285Y-66212637D01*
X124536222Y-66205639D01*
X124564711Y-66201413D01*
X124593477Y-66200000D01*
X125356523Y-66200000D01*
X125385289Y-66201413D01*
X125385289Y-66201413D01*
G37*
D15*
X124975000Y-67000000D03*
D14*
G36*
X127435289Y-68201413D02*
G01*
X127463778Y-68205639D01*
X127491715Y-68212637D01*
X127518832Y-68222340D01*
X127544867Y-68234653D01*
X127569570Y-68249460D01*
X127592703Y-68266616D01*
X127614043Y-68285957D01*
X127633384Y-68307297D01*
X127650540Y-68330430D01*
X127665347Y-68355133D01*
X127677660Y-68381168D01*
X127687363Y-68408285D01*
X127694361Y-68436222D01*
X127698587Y-68464711D01*
X127700000Y-68493477D01*
X127700000Y-69506523D01*
X127698587Y-69535289D01*
X127694361Y-69563778D01*
X127687363Y-69591715D01*
X127677660Y-69618832D01*
X127665347Y-69644867D01*
X127650540Y-69669570D01*
X127633384Y-69692703D01*
X127614043Y-69714043D01*
X127592703Y-69733384D01*
X127569570Y-69750540D01*
X127544867Y-69765347D01*
X127518832Y-69777660D01*
X127491715Y-69787363D01*
X127463778Y-69794361D01*
X127435289Y-69798587D01*
X127406523Y-69800000D01*
X126643477Y-69800000D01*
X126614711Y-69798587D01*
X126586222Y-69794361D01*
X126558285Y-69787363D01*
X126531168Y-69777660D01*
X126505133Y-69765347D01*
X126480430Y-69750540D01*
X126457297Y-69733384D01*
X126435957Y-69714043D01*
X126416616Y-69692703D01*
X126399460Y-69669570D01*
X126384653Y-69644867D01*
X126372340Y-69618832D01*
X126362637Y-69591715D01*
X126355639Y-69563778D01*
X126351413Y-69535289D01*
X126350000Y-69506523D01*
X126350000Y-68493477D01*
X126351413Y-68464711D01*
X126355639Y-68436222D01*
X126362637Y-68408285D01*
X126372340Y-68381168D01*
X126384653Y-68355133D01*
X126399460Y-68330430D01*
X126416616Y-68307297D01*
X126435957Y-68285957D01*
X126457297Y-68266616D01*
X126480430Y-68249460D01*
X126505133Y-68234653D01*
X126531168Y-68222340D01*
X126558285Y-68212637D01*
X126586222Y-68205639D01*
X126614711Y-68201413D01*
X126643477Y-68200000D01*
X127406523Y-68200000D01*
X127435289Y-68201413D01*
X127435289Y-68201413D01*
G37*
D15*
X127025000Y-69000000D03*
D14*
G36*
X125385289Y-68201413D02*
G01*
X125413778Y-68205639D01*
X125441715Y-68212637D01*
X125468832Y-68222340D01*
X125494867Y-68234653D01*
X125519570Y-68249460D01*
X125542703Y-68266616D01*
X125564043Y-68285957D01*
X125583384Y-68307297D01*
X125600540Y-68330430D01*
X125615347Y-68355133D01*
X125627660Y-68381168D01*
X125637363Y-68408285D01*
X125644361Y-68436222D01*
X125648587Y-68464711D01*
X125650000Y-68493477D01*
X125650000Y-69506523D01*
X125648587Y-69535289D01*
X125644361Y-69563778D01*
X125637363Y-69591715D01*
X125627660Y-69618832D01*
X125615347Y-69644867D01*
X125600540Y-69669570D01*
X125583384Y-69692703D01*
X125564043Y-69714043D01*
X125542703Y-69733384D01*
X125519570Y-69750540D01*
X125494867Y-69765347D01*
X125468832Y-69777660D01*
X125441715Y-69787363D01*
X125413778Y-69794361D01*
X125385289Y-69798587D01*
X125356523Y-69800000D01*
X124593477Y-69800000D01*
X124564711Y-69798587D01*
X124536222Y-69794361D01*
X124508285Y-69787363D01*
X124481168Y-69777660D01*
X124455133Y-69765347D01*
X124430430Y-69750540D01*
X124407297Y-69733384D01*
X124385957Y-69714043D01*
X124366616Y-69692703D01*
X124349460Y-69669570D01*
X124334653Y-69644867D01*
X124322340Y-69618832D01*
X124312637Y-69591715D01*
X124305639Y-69563778D01*
X124301413Y-69535289D01*
X124300000Y-69506523D01*
X124300000Y-68493477D01*
X124301413Y-68464711D01*
X124305639Y-68436222D01*
X124312637Y-68408285D01*
X124322340Y-68381168D01*
X124334653Y-68355133D01*
X124349460Y-68330430D01*
X124366616Y-68307297D01*
X124385957Y-68285957D01*
X124407297Y-68266616D01*
X124430430Y-68249460D01*
X124455133Y-68234653D01*
X124481168Y-68222340D01*
X124508285Y-68212637D01*
X124536222Y-68205639D01*
X124564711Y-68201413D01*
X124593477Y-68200000D01*
X125356523Y-68200000D01*
X125385289Y-68201413D01*
X125385289Y-68201413D01*
G37*
D15*
X124975000Y-69000000D03*
M02*
