<?xml version="1.0" standalone="no"?>
 <!DOCTYPE svg PUBLIC "-//W3C//DTD SVG 1.1//EN" 
 "http://www.w3.org/Graphics/SVG/1.1/DTD/svg11.dtd"> 
<svg xmlns="http://www.w3.org/2000/svg" version="1.1" 
    width="8.61568cm" height="8.0137cm" viewBox="0 0 33920 31550 ">
<title>SVG Picture created as RepeatGame-brd.svg date 2020/07/28 14:41:31 </title>
  <desc>Picture generated by PCBNEW </desc>
<g style="fill:#000000; fill-opacity:1;stroke:#000000; stroke-opacity:1;
stroke-linecap:round; stroke-linejoin:round; "
 transform="translate(0 0) scale(1 1)">
</g>
<g style="fill:#000000; fill-opacity:0.0; 
stroke:#000000; stroke-width:-0.000393701; stroke-opacity:1; 
stroke-linecap:round; stroke-linejoin:round;">
</g>
<g style="fill:#840084; fill-opacity:0.0; 
stroke:#840084; stroke-width:-0.000393701; stroke-opacity:1; 
stroke-linecap:round; stroke-linejoin:round;">
</g>
<g style="fill:#840084; fill-opacity:0.0; 
stroke:#840084; stroke-width:59.0551; stroke-opacity:1; 
stroke-linecap:round; stroke-linejoin:round;">
<path d="M17596 30128
L17596 30410
L17614 30466
L17652 30503
L17708 30522
L17746 30522
" />
<path d="M17221 30522
L17408 30522
L17408 30128
" />
<path d="M16864 30485
L16883 30503
L16939 30522
L16977 30522
L17033 30503
L17071 30466
L17089 30428
L17108 30353
L17108 30297
L17089 30222
L17071 30185
L17033 30147
L16977 30128
L16939 30128
L16883 30147
L16864 30166
" />
<path d="M16583 30128
L16583 30410
L16602 30466
L16639 30503
L16696 30522
L16733 30522
" />
<path d="M16208 30522
L16396 30522
L16396 30128
" />
<path d="M15852 30485
L15871 30503
L15927 30522
L15965 30522
L16021 30503
L16058 30466
L16077 30428
L16096 30353
L16096 30297
L16077 30222
L16058 30185
L16021 30147
L15965 30128
L15927 30128
L15871 30147
L15852 30166
" />
<path d="M15571 30128
L15571 30410
L15590 30466
L15627 30503
L15683 30522
L15721 30522
" />
<path d="M15196 30522
L15383 30522
L15383 30128
" />
<path d="M14840 30485
L14858 30503
L14915 30522
L14952 30522
L15008 30503
L15046 30466
L15065 30428
L15083 30353
L15083 30297
L15065 30222
L15046 30185
L15008 30147
L14952 30128
L14915 30128
L14858 30147
L14840 30166
" />
<path d="M14558 30128
L14558 30410
L14577 30466
L14615 30503
L14671 30522
L14708 30522
" />
<path d="M14184 30522
L14371 30522
L14371 30128
" />
<path d="M13827 30485
L13846 30503
L13902 30522
L13940 30522
L13996 30503
L14034 30466
L14052 30428
L14071 30353
L14071 30297
L14052 30222
L14034 30185
L13996 30147
L13940 30128
L13902 30128
L13846 30147
L13827 30166
" />
<path d="M18963 1526
L19095 1339
" />
<path d="M19188 1526
L19188 1132
L19038 1132
L19001 1151
L18982 1170
L18963 1207
L18963 1264
L18982 1301
L19001 1320
L19038 1339
L19188 1339
" />
<path d="M18645 1507
L18682 1526
L18757 1526
L18795 1507
L18813 1470
L18813 1320
L18795 1282
L18757 1264
L18682 1264
L18645 1282
L18626 1320
L18626 1357
L18813 1395
" />
<path d="M18457 1264
L18457 1657
" />
<path d="M18457 1282
L18420 1264
L18345 1264
L18307 1282
L18288 1301
L18270 1339
L18270 1451
L18288 1489
L18307 1507
L18345 1526
L18420 1526
L18457 1507
" />
<path d="M17951 1507
L17988 1526
L18063 1526
L18101 1507
L18120 1470
L18120 1320
L18101 1282
L18063 1264
L17988 1264
L17951 1282
L17932 1320
L17932 1357
L18120 1395
" />
<path d="M17595 1526
L17595 1320
L17613 1282
L17651 1264
L17726 1264
L17763 1282
" />
<path d="M17595 1507
L17632 1526
L17726 1526
L17763 1507
L17782 1470
L17782 1432
L17763 1395
L17726 1376
L17632 1376
L17595 1357
" />
<path d="M17463 1264
L17313 1264
" />
<path d="M17407 1132
L17407 1470
L17388 1507
L17351 1526
L17313 1526
" />
<path d="M16676 1151
L16714 1132
L16770 1132
L16826 1151
L16864 1189
L16882 1226
L16901 1301
L16901 1357
L16882 1432
L16864 1470
L16826 1507
L16770 1526
L16732 1526
L16676 1507
L16657 1489
L16657 1357
L16732 1357
" />
<path d="M16320 1526
L16320 1320
L16339 1282
L16376 1264
L16451 1264
L16489 1282
" />
<path d="M16320 1507
L16357 1526
L16451 1526
L16489 1507
L16507 1470
L16507 1432
L16489 1395
L16451 1376
L16357 1376
L16320 1357
" />
<path d="M16132 1526
L16132 1264
" />
<path d="M16132 1301
L16114 1282
L16076 1264
L16020 1264
L15982 1282
L15964 1320
L15964 1526
" />
<path d="M15964 1320
L15945 1282
L15907 1264
L15851 1264
L15814 1282
L15795 1320
L15795 1526
" />
<path d="M15457 1507
L15495 1526
L15570 1526
L15607 1507
L15626 1470
L15626 1320
L15607 1282
L15570 1264
L15495 1264
L15457 1282
L15439 1320
L15439 1357
L15626 1395
" />
<path d="M14745 1526
L14876 1339
" />
<path d="M14970 1526
L14970 1132
L14820 1132
L14783 1151
L14764 1170
L14745 1207
L14745 1264
L14764 1301
L14783 1320
L14820 1339
L14970 1339
" />
<path d="M14426 1507
L14464 1526
L14539 1526
L14576 1507
L14595 1470
L14595 1320
L14576 1282
L14539 1264
L14464 1264
L14426 1282
L14408 1320
L14408 1357
L14595 1395
" />
<path d="M14276 1264
L14183 1526
L14089 1264
" />
<path d="M13658 1414
L13470 1414
" />
<path d="M13695 1526
L13564 1132
L13433 1526
" />
<path d="M19207 1819
L19188 1801
L19151 1782
L19057 1782
L19020 1801
L19001 1819
L18982 1857
L18982 1894
L19001 1951
L19226 2176
L18982 2176
" />
<path d="M18738 1782
L18701 1782
L18663 1801
L18645 1819
L18626 1857
L18607 1932
L18607 2026
L18626 2101
L18645 2138
L18663 2157
L18701 2176
L18738 2176
L18776 2157
L18795 2138
L18813 2101
L18832 2026
L18832 1932
L18813 1857
L18795 1819
L18776 1801
L18738 1782
" />
<path d="M18232 2176
L18457 2176
" />
<path d="M18345 2176
L18345 1782
L18382 1838
L18420 1876
L18457 1894
" />
<path d="M18045 2176
L17970 2176
L17932 2157
L17913 2138
L17876 2082
L17857 2007
L17857 1857
L17876 1819
L17895 1801
L17932 1782
L18007 1782
L18045 1801
L18063 1819
L18082 1857
L18082 1951
L18063 1988
L18045 2007
L18007 2026
L17932 2026
L17895 2007
L17876 1988
L17857 1951
" />
<path d="M17388 2176
L17388 1782
L17295 1782
L17238 1801
L17201 1838
L17182 1876
L17163 1951
L17163 2007
L17182 2082
L17201 2119
L17238 2157
L17295 2176
L17388 2176
" />
<path d="M16939 2176
L16976 2157
L16995 2138
L17014 2101
L17014 1988
L16995 1951
L16976 1932
L16939 1913
L16882 1913
L16845 1932
L16826 1951
L16807 1988
L16807 2101
L16826 2138
L16845 2157
L16882 2176
L16939 2176
" />
<path d="M16639 2176
L16639 1913
" />
<path d="M16639 1951
L16620 1932
L16582 1913
L16526 1913
L16489 1932
L16470 1969
L16470 2176
" />
<path d="M16470 1969
L16451 1932
L16414 1913
L16357 1913
L16320 1932
L16301 1969
L16301 2176
" />
<path d="M16114 2176
L16114 1913
" />
<path d="M16114 1782
L16132 1801
L16114 1819
L16095 1801
L16114 1782
L16114 1819
" />
<path d="M15926 1913
L15926 2176
" />
<path d="M15926 1951
L15907 1932
L15870 1913
L15814 1913
L15776 1932
L15757 1969
L15757 2176
" />
<path d="M15570 2176
L15570 1913
" />
<path d="M15570 1782
L15589 1801
L15570 1819
L15551 1801
L15570 1782
L15570 1819
" />
<path d="M15214 2157
L15251 2176
L15326 2176
L15364 2157
L15382 2138
L15401 2101
L15401 1988
L15382 1951
L15364 1932
L15326 1913
L15251 1913
L15214 1932
" />
<path d="M14801 1782
L14576 1782
" />
<path d="M14689 2176
L14689 1782
" />
<path d="M14445 2176
L14445 1782
" />
<path d="M14276 2176
L14276 1969
L14295 1932
L14333 1913
L14389 1913
L14426 1932
L14445 1951
" />
<path d="M14089 2176
L14089 1913
" />
<path d="M14089 1782
L14108 1801
L14089 1819
L14070 1801
L14089 1782
L14089 1819
" />
<path d="M13901 2176
L13901 1782
" />
<path d="M13901 1932
L13864 1913
L13789 1913
L13751 1932
L13733 1951
L13714 1988
L13714 2101
L13733 2138
L13751 2157
L13789 2176
L13864 2176
L13901 2157
" />
<path d="M13489 2176
L13526 2157
L13545 2138
L13564 2101
L13564 1988
L13545 1951
L13526 1932
L13489 1913
L13433 1913
L13395 1932
L13376 1951
L13358 1988
L13358 2101
L13376 2138
L13395 2157
L13433 2176
L13489 2176
" />
<path d="M13020 2176
L13020 1782
" />
<path d="M13020 2157
L13058 2176
L13133 2176
L13170 2157
L13189 2138
L13208 2101
L13208 1988
L13189 1951
L13170 1932
L13133 1913
L13058 1913
L13020 1932
" />
<path d="M12683 2157
L12720 2176
L12795 2176
L12833 2157
L12852 2119
L12852 1969
L12833 1932
L12795 1913
L12720 1913
L12683 1932
L12664 1969
L12664 2007
L12852 2044
" />
<path d="M12327 2176
L12327 1969
L12345 1932
L12383 1913
L12458 1913
L12495 1932
" />
<path d="M12327 2157
L12364 2176
L12458 2176
L12495 2157
L12514 2119
L12514 2082
L12495 2044
L12458 2026
L12364 2026
L12327 2007
" />
<path d="M11970 1913
L11970 2176
" />
<path d="M12139 1913
L12139 2119
L12120 2157
L12083 2176
L12027 2176
L11989 2157
L11970 2138
" />
<path d="M19020 2825
L19020 2432
" />
<path d="M19020 2806
L19057 2825
L19132 2825
L19169 2806
L19188 2788
L19207 2750
L19207 2638
L19188 2600
L19169 2582
L19132 2563
L19057 2563
L19020 2582
" />
<path d="M18682 2806
L18720 2825
L18795 2825
L18832 2806
L18851 2769
L18851 2619
L18832 2582
L18795 2563
L18720 2563
L18682 2582
L18663 2619
L18663 2657
L18851 2694
" />
<path d="M18532 2563
L18438 2825
L18345 2563
" />
<path d="M17951 2638
L17970 2619
L18007 2600
L18045 2600
L18082 2619
L18101 2638
L18120 2675
L18120 2713
L18101 2750
L18082 2769
L18045 2788
L18007 2788
L17970 2769
L17951 2750
" />
<path d="M17951 2600
L17951 2750
L17932 2769
L17913 2769
L17876 2750
L17857 2713
L17857 2619
L17895 2563
L17951 2525
L18026 2507
L18101 2525
L18157 2563
L18195 2619
L18213 2694
L18195 2769
L18157 2825
L18101 2863
L18026 2881
L17951 2863
L17895 2825
" />
<path d="M17688 2825
L17688 2432
" />
<path d="M17520 2825
L17520 2619
L17538 2582
L17576 2563
L17632 2563
L17670 2582
L17688 2600
" />
<path d="M17276 2825
L17313 2806
L17332 2788
L17351 2750
L17351 2638
L17332 2600
L17313 2582
L17276 2563
L17220 2563
L17182 2582
L17163 2600
L17145 2638
L17145 2750
L17163 2788
L17182 2806
L17220 2825
L17276 2825
" />
<path d="M17032 2563
L16882 2563
" />
<path d="M16976 2432
L16976 2769
L16957 2806
L16920 2825
L16882 2825
" />
<path d="M16751 2825
L16751 2432
" />
<path d="M16714 2675
L16601 2825
" />
<path d="M16601 2563
L16751 2713
" />
<path d="M16282 2806
L16320 2825
L16395 2825
L16432 2806
L16451 2769
L16451 2619
L16432 2582
L16395 2563
L16320 2563
L16282 2582
L16264 2619
L16264 2657
L16451 2694
" />
<path d="M16132 2563
L16039 2825
" />
<path d="M15945 2563
L16039 2825
L16076 2919
L16095 2938
L16132 2956
" />
<path d="M15814 2806
L15776 2825
L15701 2825
L15664 2806
L15645 2769
L15645 2750
L15664 2713
L15701 2694
L15757 2694
L15795 2675
L15814 2638
L15814 2619
L15795 2582
L15757 2563
L15701 2563
L15664 2582
" />
<path d="M15420 2825
L15457 2806
L15476 2788
L15495 2750
L15495 2638
L15476 2600
L15457 2582
L15420 2563
L15364 2563
L15326 2582
L15307 2600
L15289 2638
L15289 2750
L15307 2788
L15326 2806
L15364 2825
L15420 2825
" />
<path d="M15176 2563
L15026 2563
" />
<path d="M15120 2825
L15120 2488
L15101 2450
L15064 2432
L15026 2432
" />
<path d="M14951 2563
L14801 2563
" />
<path d="M14895 2432
L14895 2769
L14876 2806
L14839 2825
L14801 2825
" />
<path d="M14670 2788
L14651 2806
L14670 2825
L14689 2806
L14670 2788
L14670 2825
" />
<path d="M14483 2563
L14483 2825
" />
<path d="M14483 2600
L14464 2582
L14426 2563
L14370 2563
L14333 2582
L14314 2619
L14314 2825
" />
<path d="M13976 2806
L14014 2825
L14089 2825
L14126 2806
L14145 2769
L14145 2619
L14126 2582
L14089 2563
L14014 2563
L13976 2582
L13958 2619
L13958 2657
L14145 2694
" />
<path d="M13845 2563
L13695 2563
" />
<path d="M13789 2432
L13789 2769
L13770 2806
L13733 2825
L13695 2825
" />
</g>
<g style="fill:#840084; fill-opacity:0.0; 
stroke:#840084; stroke-width:47.2441; stroke-opacity:1; 
stroke-linecap:round; stroke-linejoin:round;">
<path d="M27852 16694
L28375 16694
" />
<path d="M27852 16171
L27852 16694
" />
<path d="M27852 15671
L28899 15671
" />
<path d="M28899 15671
L28899 14647
" />
<path d="M27852 15671
L27852 14647
" />
<path d="M27852 14647
L28899 14647
" />
<path d="M16803 10395
L16803 9872
" />
<path d="M16279 10395
L16803 10395
" />
<path d="M15779 10395
L15779 9348
" />
<path d="M15779 9348
L14755 9348
" />
<path d="M15779 10395
L14755 10395
" />
<path d="M14755 10395
L14755 9348
" />
</g>
<g style="fill:#840084; fill-opacity:0.0; 
stroke:#840084; stroke-width:59.0551; stroke-opacity:1; 
stroke-linecap:round; stroke-linejoin:round;">
<path d="M27486 16655
L27468 16599
L27449 16580
L27411 16561
L27355 16561
L27318 16580
L27299 16599
L27280 16636
L27280 16786
L27674 16786
L27674 16655
L27655 16618
L27636 16599
L27599 16580
L27561 16580
L27524 16599
L27505 16618
L27486 16655
L27486 16786
" />
<path d="M27393 16411
L27393 16224
" />
<path d="M27280 16449
L27674 16318
L27280 16186
" />
<path d="M27674 16111
L27674 15886
" />
<path d="M27280 15999
L27674 15999
" />
<path d="M27674 15811
L27674 15586
" />
<path d="M27280 15699
L27674 15699
" />
<path d="M27486 15455
L27486 15324
" />
<path d="M27280 15268
L27280 15455
L27674 15455
L27674 15268
" />
<path d="M27280 14874
L27468 15005
" />
<path d="M27280 15099
L27674 15099
L27674 14949
L27655 14911
L27636 14893
L27599 14874
L27543 14874
L27505 14893
L27486 14911
L27468 14949
L27468 15099
" />
<path d="M27468 14630
L27280 14630
" />
<path d="M27674 14761
L27468 14630
L27674 14499
" />
<path d="M17007 10948
L16951 10967
L16857 10967
L16820 10948
L16801 10929
L16782 10892
L16782 10854
L16801 10817
L16820 10798
L16857 10779
L16932 10761
L16970 10742
L16988 10723
L17007 10686
L17007 10648
L16988 10611
L16970 10592
L16932 10573
L16838 10573
L16782 10592
" />
<path d="M16613 10967
L16613 10573
L16463 10573
L16426 10592
L16407 10611
L16388 10648
L16388 10705
L16407 10742
L16426 10761
L16463 10779
L16613 10779
" />
<path d="M16220 10761
L16088 10761
" />
<path d="M16032 10967
L16220 10967
L16220 10573
L16032 10573
" />
<path d="M15882 10854
L15695 10854
" />
<path d="M15920 10967
L15788 10573
L15657 10967
" />
<path d="M15526 10967
L15526 10573
" />
<path d="M15301 10967
L15470 10742
" />
<path d="M15301 10573
L15526 10798
" />
<path d="M15132 10761
L15001 10761
" />
<path d="M14945 10967
L15132 10967
L15132 10573
L14945 10573
" />
<path d="M14551 10967
L14682 10779
" />
<path d="M14776 10967
L14776 10573
L14626 10573
L14589 10592
L14570 10611
L14551 10648
L14551 10705
L14570 10742
L14589 10761
L14626 10779
L14776 10779
" />
<g >
</g>
</g>
<g style="fill:#000000; fill-opacity:0.0; 
stroke:#000000; stroke-width:59.0551; stroke-opacity:1; 
stroke-linecap:round; stroke-linejoin:round;">
<g >
</g>
<g style="fill:#848400; fill-opacity:0.0; 
stroke:#848400; stroke-width:59.0551; stroke-opacity:1; 
stroke-linecap:round; stroke-linejoin:round;">
</g>
<g style="fill:#848400; fill-opacity:0.0; 
stroke:#848400; stroke-width:944.882; stroke-opacity:1; 
stroke-linecap:round; stroke-linejoin:round;">
<path d="M30285 14163
L30797 14163
" />
<path d="M30285 17391
L30797 17391
" />
</g>
<g style="fill:#848400; fill-opacity:0.0; 
stroke:#848400; stroke-width:669.291; stroke-opacity:1; 
stroke-linecap:round; stroke-linejoin:round;">
<path d="M30344 14990
L30738 14990
" />
<path d="M30344 15777
L30738 15777
" />
</g>
<g style="fill:#848400; fill-opacity:0.0; 
stroke:#848400; stroke-width:0; stroke-opacity:1; 
stroke-linecap:round; stroke-linejoin:round;">
</g>
<g style="fill:#848400; fill-opacity:1.0; 
stroke:#848400; stroke-width:0; stroke-opacity:1; 
stroke-linecap:round; stroke-linejoin:round;">
<path style="fill:#848400; fill-opacity:1.0; 
stroke:#848400; stroke-width:0; stroke-opacity:1; 
stroke-linecap:round; stroke-linejoin:round;fill-rule:evenodd;"
d="M 31072,16899
30009,16899
30009,16230
31072,16230
31072,16899
Z" /> 
</g>
<g >
</g>
<g style="fill:#848400; fill-opacity:1.0; 
stroke:#848400; stroke-width:0; stroke-opacity:1; 
stroke-linecap:round; stroke-linejoin:round;">
<circle cx="6524.09" cy="26839.1" r="433.071" /> 
</g>
<g style="fill:#848400; fill-opacity:1.0; 
stroke:#848400; stroke-width:39.3701; stroke-opacity:1; 
stroke-linecap:round; stroke-linejoin:round;">
</g>
<g style="fill:#848400; fill-opacity:1.0; 
stroke:#848400; stroke-width:0; stroke-opacity:1; 
stroke-linecap:round; stroke-linejoin:round;">
<circle cx="5271.34" cy="28091.8" r="433.071" /> 
</g>
<g style="fill:#848400; fill-opacity:1.0; 
stroke:#848400; stroke-width:39.3701; stroke-opacity:1; 
stroke-linecap:round; stroke-linejoin:round;">
</g>
<g style="fill:#848400; fill-opacity:1.0; 
stroke:#848400; stroke-width:0; stroke-opacity:1; 
stroke-linecap:round; stroke-linejoin:round;">
<circle cx="4714.57" cy="25029.5" r="433.071" /> 
</g>
<g style="fill:#848400; fill-opacity:1.0; 
stroke:#848400; stroke-width:39.3701; stroke-opacity:1; 
stroke-linecap:round; stroke-linejoin:round;">
</g>
<g style="fill:#848400; fill-opacity:1.0; 
stroke:#848400; stroke-width:0; stroke-opacity:1; 
stroke-linecap:round; stroke-linejoin:round;">
<circle cx="3461.82" cy="26282.3" r="433.071" /> 
</g>
<g style="fill:#848400; fill-opacity:1.0; 
stroke:#848400; stroke-width:39.3701; stroke-opacity:1; 
stroke-linecap:round; stroke-linejoin:round;">
</g>
<g >
</g>
<g style="fill:#848400; fill-opacity:1.0; 
stroke:#848400; stroke-width:39.3701; stroke-opacity:1; 
stroke-linecap:round; stroke-linejoin:round;">
</g>
<g style="fill:#848400; fill-opacity:1.0; 
stroke:#848400; stroke-width:0; stroke-opacity:1; 
stroke-linecap:round; stroke-linejoin:round;">
<circle cx="4716.07" cy="6524.09" r="433.071" /> 
</g>
<g style="fill:#848400; fill-opacity:1.0; 
stroke:#848400; stroke-width:39.3701; stroke-opacity:1; 
stroke-linecap:round; stroke-linejoin:round;">
</g>
<g style="fill:#848400; fill-opacity:1.0; 
stroke:#848400; stroke-width:0; stroke-opacity:1; 
stroke-linecap:round; stroke-linejoin:round;">
<circle cx="3463.32" cy="5271.34" r="433.071" /> 
</g>
<g style="fill:#848400; fill-opacity:1.0; 
stroke:#848400; stroke-width:39.3701; stroke-opacity:1; 
stroke-linecap:round; stroke-linejoin:round;">
</g>
<g style="fill:#848400; fill-opacity:1.0; 
stroke:#848400; stroke-width:0; stroke-opacity:1; 
stroke-linecap:round; stroke-linejoin:round;">
<circle cx="6525.59" cy="4714.57" r="433.071" /> 
</g>
<g style="fill:#848400; fill-opacity:1.0; 
stroke:#848400; stroke-width:39.3701; stroke-opacity:1; 
stroke-linecap:round; stroke-linejoin:round;">
</g>
<g style="fill:#848400; fill-opacity:1.0; 
stroke:#848400; stroke-width:0; stroke-opacity:1; 
stroke-linecap:round; stroke-linejoin:round;">
<circle cx="5272.84" cy="3461.82" r="433.071" /> 
</g>
<g style="fill:#848400; fill-opacity:1.0; 
stroke:#848400; stroke-width:39.3701; stroke-opacity:1; 
stroke-linecap:round; stroke-linejoin:round;">
</g>
<g >
</g>
<g style="fill:#848400; fill-opacity:1.0; 
stroke:#848400; stroke-width:39.3701; stroke-opacity:1; 
stroke-linecap:round; stroke-linejoin:round;">
</g>
<g style="fill:#848400; fill-opacity:1.0; 
stroke:#848400; stroke-width:0; stroke-opacity:1; 
stroke-linecap:round; stroke-linejoin:round;">
<circle cx="25031" cy="4716.07" r="433.071" /> 
</g>
<g style="fill:#848400; fill-opacity:1.0; 
stroke:#848400; stroke-width:39.3701; stroke-opacity:1; 
stroke-linecap:round; stroke-linejoin:round;">
</g>
<g style="fill:#848400; fill-opacity:1.0; 
stroke:#848400; stroke-width:0; stroke-opacity:1; 
stroke-linecap:round; stroke-linejoin:round;">
<circle cx="26283.8" cy="3463.32" r="433.071" /> 
</g>
<g style="fill:#848400; fill-opacity:1.0; 
stroke:#848400; stroke-width:39.3701; stroke-opacity:1; 
stroke-linecap:round; stroke-linejoin:round;">
</g>
<g style="fill:#848400; fill-opacity:1.0; 
stroke:#848400; stroke-width:0; stroke-opacity:1; 
stroke-linecap:round; stroke-linejoin:round;">
<circle cx="26840.6" cy="6525.59" r="433.071" /> 
</g>
<g style="fill:#848400; fill-opacity:1.0; 
stroke:#848400; stroke-width:39.3701; stroke-opacity:1; 
stroke-linecap:round; stroke-linejoin:round;">
</g>
<g style="fill:#848400; fill-opacity:1.0; 
stroke:#848400; stroke-width:0; stroke-opacity:1; 
stroke-linecap:round; stroke-linejoin:round;">
<circle cx="28093.3" cy="5272.84" r="433.071" /> 
</g>
<g style="fill:#848400; fill-opacity:1.0; 
stroke:#848400; stroke-width:39.3701; stroke-opacity:1; 
stroke-linecap:round; stroke-linejoin:round;">
</g>
<g >
</g>
<g style="fill:#848400; fill-opacity:1.0; 
stroke:#848400; stroke-width:39.3701; stroke-opacity:1; 
stroke-linecap:round; stroke-linejoin:round;">
</g>
<g style="fill:#848400; fill-opacity:1.0; 
stroke:#848400; stroke-width:0; stroke-opacity:1; 
stroke-linecap:round; stroke-linejoin:round;">
<circle cx="26839.1" cy="25031" r="433.071" /> 
</g>
<g style="fill:#848400; fill-opacity:1.0; 
stroke:#848400; stroke-width:39.3701; stroke-opacity:1; 
stroke-linecap:round; stroke-linejoin:round;">
</g>
<g style="fill:#848400; fill-opacity:1.0; 
stroke:#848400; stroke-width:0; stroke-opacity:1; 
stroke-linecap:round; stroke-linejoin:round;">
<circle cx="28091.8" cy="26283.8" r="433.071" /> 
</g>
<g style="fill:#848400; fill-opacity:1.0; 
stroke:#848400; stroke-width:39.3701; stroke-opacity:1; 
stroke-linecap:round; stroke-linejoin:round;">
</g>
<g style="fill:#848400; fill-opacity:1.0; 
stroke:#848400; stroke-width:0; stroke-opacity:1; 
stroke-linecap:round; stroke-linejoin:round;">
<circle cx="25029.5" cy="26840.6" r="433.071" /> 
</g>
<g style="fill:#848400; fill-opacity:1.0; 
stroke:#848400; stroke-width:39.3701; stroke-opacity:1; 
stroke-linecap:round; stroke-linejoin:round;">
</g>
<g style="fill:#848400; fill-opacity:1.0; 
stroke:#848400; stroke-width:0; stroke-opacity:1; 
stroke-linecap:round; stroke-linejoin:round;">
<circle cx="26282.3" cy="28093.3" r="433.071" /> 
</g>
<g style="fill:#848400; fill-opacity:1.0; 
stroke:#848400; stroke-width:39.3701; stroke-opacity:1; 
stroke-linecap:round; stroke-linejoin:round;">
</g>
<g >
</g>
<g >
</g>
<g >
</g>
<g >
</g>
<g >
</g>
<g style="fill:#848400; fill-opacity:1.0; 
stroke:#848400; stroke-width:39.3701; stroke-opacity:1; 
stroke-linecap:round; stroke-linejoin:round;">
</g>
<g style="fill:#848400; fill-opacity:1.0; 
stroke:#848400; stroke-width:0; stroke-opacity:1; 
stroke-linecap:round; stroke-linejoin:round;">
<circle cx="19439" cy="20005.9" r="234.37" /> 
</g>
<g style="fill:#848400; fill-opacity:1.0; 
stroke:#848400; stroke-width:39.3701; stroke-opacity:1; 
stroke-linecap:round; stroke-linejoin:round;">
</g>
<g style="fill:#848400; fill-opacity:1.0; 
stroke:#848400; stroke-width:0; stroke-opacity:1; 
stroke-linecap:round; stroke-linejoin:round;">
<circle cx="19839" cy="18005.9" r="234.37" /> 
</g>
<g style="fill:#848400; fill-opacity:1.0; 
stroke:#848400; stroke-width:39.3701; stroke-opacity:1; 
stroke-linecap:round; stroke-linejoin:round;">
</g>
<g style="fill:#848400; fill-opacity:1.0; 
stroke:#848400; stroke-width:0; stroke-opacity:1; 
stroke-linecap:round; stroke-linejoin:round;">
<circle cx="19039" cy="18005.9" r="234.37" /> 
</g>
<g style="fill:#848400; fill-opacity:1.0; 
stroke:#848400; stroke-width:39.3701; stroke-opacity:1; 
stroke-linecap:round; stroke-linejoin:round;">
</g>
<g >
</g>
<g style="fill:#848400; fill-opacity:1.0; 
stroke:#848400; stroke-width:39.3701; stroke-opacity:1; 
stroke-linecap:round; stroke-linejoin:round;">
</g>
<g style="fill:#848400; fill-opacity:1.0; 
stroke:#848400; stroke-width:748.031; stroke-opacity:1; 
stroke-linecap:round; stroke-linejoin:round;">
</g>
<g style="fill:#848400; fill-opacity:0.0; 
stroke:#848400; stroke-width:748.031; stroke-opacity:1; 
stroke-linecap:round; stroke-linejoin:round;">
<path d="M28375 15171
L28375 15171
" />
</g>
<g style="fill:#848400; fill-opacity:0.0; 
stroke:#848400; stroke-width:0; stroke-opacity:1; 
stroke-linecap:round; stroke-linejoin:round;">
</g>
<g style="fill:#848400; fill-opacity:1.0; 
stroke:#848400; stroke-width:0; stroke-opacity:1; 
stroke-linecap:round; stroke-linejoin:round;">
<path style="fill:#848400; fill-opacity:1.0; 
stroke:#848400; stroke-width:0; stroke-opacity:1; 
stroke-linecap:round; stroke-linejoin:round;fill-rule:evenodd;"
d="M 28001,16545
28001,15797
28750,15797
28750,16545
28001,16545
Z" /> 
</g>
<g >
</g>
<g >
</g>
<g >
</g>
<g >
</g>
<g >
</g>
<g style="fill:#848400; fill-opacity:1.0; 
stroke:#848400; stroke-width:0; stroke-opacity:1; 
stroke-linecap:round; stroke-linejoin:round;">
<circle cx="9281.5" cy="16714.6" r="334.646" /> 
</g>
<g style="fill:#848400; fill-opacity:1.0; 
stroke:#848400; stroke-width:39.3701; stroke-opacity:1; 
stroke-linecap:round; stroke-linejoin:round;">
</g>
<g style="fill:#848400; fill-opacity:1.0; 
stroke:#848400; stroke-width:0; stroke-opacity:1; 
stroke-linecap:round; stroke-linejoin:round;">
<circle cx="9281.5" cy="14793.3" r="334.646" /> 
</g>
<g style="fill:#848400; fill-opacity:1.0; 
stroke:#848400; stroke-width:39.3701; stroke-opacity:1; 
stroke-linecap:round; stroke-linejoin:round;">
</g>
<g >
</g>
<g >
</g>
<g >
</g>
<g >
</g>
<g >
</g>
<g style="fill:#848400; fill-opacity:1.0; 
stroke:#848400; stroke-width:39.3701; stroke-opacity:1; 
stroke-linecap:round; stroke-linejoin:round;">
</g>
<g style="fill:#848400; fill-opacity:1.0; 
stroke:#848400; stroke-width:748.031; stroke-opacity:1; 
stroke-linecap:round; stroke-linejoin:round;">
</g>
<g style="fill:#848400; fill-opacity:0.0; 
stroke:#848400; stroke-width:748.031; stroke-opacity:1; 
stroke-linecap:round; stroke-linejoin:round;">
<path d="M15279 9872
L15279 9872
" />
</g>
<g style="fill:#848400; fill-opacity:0.0; 
stroke:#848400; stroke-width:0; stroke-opacity:1; 
stroke-linecap:round; stroke-linejoin:round;">
</g>
<g style="fill:#848400; fill-opacity:1.0; 
stroke:#848400; stroke-width:0; stroke-opacity:1; 
stroke-linecap:round; stroke-linejoin:round;">
<path style="fill:#848400; fill-opacity:1.0; 
stroke:#848400; stroke-width:0; stroke-opacity:1; 
stroke-linecap:round; stroke-linejoin:round;fill-rule:evenodd;"
d="M 16653,10246
15905,10246
15905,9498
16653,9498
16653,10246
Z" /> 
</g>
<g >
</g>
<g >
</g>
<g >
</g>
<g >
</g>
<g >
</g>
<g >
</g>
<g >
</g>
<g >
</g>
<g >
</g>
</g>
<g style="fill:#000000; fill-opacity:1.0; 
stroke:#000000; stroke-width:0; stroke-opacity:1; 
stroke-linecap:round; stroke-linejoin:round;">
<g >
</g>
<g style="fill:#848400; fill-opacity:1.0; 
stroke:#848400; stroke-width:0; stroke-opacity:1; 
stroke-linecap:round; stroke-linejoin:round;">
</g>
<g style="fill:#848400; fill-opacity:1.0; 
stroke:#848400; stroke-width:866.142; stroke-opacity:1; 
stroke-linecap:round; stroke-linejoin:round;">
</g>
<g style="fill:#848400; fill-opacity:0.0; 
stroke:#848400; stroke-width:866.142; stroke-opacity:1; 
stroke-linecap:round; stroke-linejoin:round;">
<path d="M30285 14163
L30797 14163
" />
<path d="M30285 17391
L30797 17391
" />
</g>
<g style="fill:#848400; fill-opacity:0.0; 
stroke:#848400; stroke-width:590.551; stroke-opacity:1; 
stroke-linecap:round; stroke-linejoin:round;">
<path d="M30344 14990
L30738 14990
" />
<path d="M30344 15777
L30738 15777
" />
</g>
<g style="fill:#848400; fill-opacity:0.0; 
stroke:#848400; stroke-width:0; stroke-opacity:1; 
stroke-linecap:round; stroke-linejoin:round;">
</g>
<g style="fill:#848400; fill-opacity:1.0; 
stroke:#848400; stroke-width:0; stroke-opacity:1; 
stroke-linecap:round; stroke-linejoin:round;">
<path style="fill:#848400; fill-opacity:1.0; 
stroke:#848400; stroke-width:0; stroke-opacity:1; 
stroke-linecap:round; stroke-linejoin:round;fill-rule:evenodd;"
d="M 31033,16860
30049,16860
30049,16269
31033,16269
31033,16860
Z" /> 
</g>
<g >
</g>
<g style="fill:#848400; fill-opacity:1.0; 
stroke:#848400; stroke-width:0; stroke-opacity:1; 
stroke-linecap:round; stroke-linejoin:round;">
<circle cx="6524.09" cy="26839.1" r="393.701" /> 
</g>
<g style="fill:#848400; fill-opacity:1.0; 
stroke:#848400; stroke-width:39.3701; stroke-opacity:1; 
stroke-linecap:round; stroke-linejoin:round;">
</g>
<g style="fill:#848400; fill-opacity:1.0; 
stroke:#848400; stroke-width:0; stroke-opacity:1; 
stroke-linecap:round; stroke-linejoin:round;">
<circle cx="5271.34" cy="28091.8" r="393.701" /> 
</g>
<g style="fill:#848400; fill-opacity:1.0; 
stroke:#848400; stroke-width:39.3701; stroke-opacity:1; 
stroke-linecap:round; stroke-linejoin:round;">
</g>
<g style="fill:#848400; fill-opacity:1.0; 
stroke:#848400; stroke-width:0; stroke-opacity:1; 
stroke-linecap:round; stroke-linejoin:round;">
<circle cx="4714.57" cy="25029.5" r="393.701" /> 
</g>
<g style="fill:#848400; fill-opacity:1.0; 
stroke:#848400; stroke-width:39.3701; stroke-opacity:1; 
stroke-linecap:round; stroke-linejoin:round;">
</g>
<g style="fill:#848400; fill-opacity:1.0; 
stroke:#848400; stroke-width:0; stroke-opacity:1; 
stroke-linecap:round; stroke-linejoin:round;">
<circle cx="3461.82" cy="26282.3" r="393.701" /> 
</g>
<g style="fill:#848400; fill-opacity:1.0; 
stroke:#848400; stroke-width:39.3701; stroke-opacity:1; 
stroke-linecap:round; stroke-linejoin:round;">
</g>
<g >
</g>
<g style="fill:#848400; fill-opacity:1.0; 
stroke:#848400; stroke-width:39.3701; stroke-opacity:1; 
stroke-linecap:round; stroke-linejoin:round;">
</g>
<g style="fill:#848400; fill-opacity:1.0; 
stroke:#848400; stroke-width:0; stroke-opacity:1; 
stroke-linecap:round; stroke-linejoin:round;">
<circle cx="4716.07" cy="6524.09" r="393.701" /> 
</g>
<g style="fill:#848400; fill-opacity:1.0; 
stroke:#848400; stroke-width:39.3701; stroke-opacity:1; 
stroke-linecap:round; stroke-linejoin:round;">
</g>
<g style="fill:#848400; fill-opacity:1.0; 
stroke:#848400; stroke-width:0; stroke-opacity:1; 
stroke-linecap:round; stroke-linejoin:round;">
<circle cx="3463.32" cy="5271.34" r="393.701" /> 
</g>
<g style="fill:#848400; fill-opacity:1.0; 
stroke:#848400; stroke-width:39.3701; stroke-opacity:1; 
stroke-linecap:round; stroke-linejoin:round;">
</g>
<g style="fill:#848400; fill-opacity:1.0; 
stroke:#848400; stroke-width:0; stroke-opacity:1; 
stroke-linecap:round; stroke-linejoin:round;">
<circle cx="6525.59" cy="4714.57" r="393.701" /> 
</g>
<g style="fill:#848400; fill-opacity:1.0; 
stroke:#848400; stroke-width:39.3701; stroke-opacity:1; 
stroke-linecap:round; stroke-linejoin:round;">
</g>
<g style="fill:#848400; fill-opacity:1.0; 
stroke:#848400; stroke-width:0; stroke-opacity:1; 
stroke-linecap:round; stroke-linejoin:round;">
<circle cx="5272.84" cy="3461.82" r="393.701" /> 
</g>
<g style="fill:#848400; fill-opacity:1.0; 
stroke:#848400; stroke-width:39.3701; stroke-opacity:1; 
stroke-linecap:round; stroke-linejoin:round;">
</g>
<g >
</g>
<g style="fill:#848400; fill-opacity:1.0; 
stroke:#848400; stroke-width:39.3701; stroke-opacity:1; 
stroke-linecap:round; stroke-linejoin:round;">
</g>
<g style="fill:#848400; fill-opacity:1.0; 
stroke:#848400; stroke-width:0; stroke-opacity:1; 
stroke-linecap:round; stroke-linejoin:round;">
<circle cx="25031" cy="4716.07" r="393.701" /> 
</g>
<g style="fill:#848400; fill-opacity:1.0; 
stroke:#848400; stroke-width:39.3701; stroke-opacity:1; 
stroke-linecap:round; stroke-linejoin:round;">
</g>
<g style="fill:#848400; fill-opacity:1.0; 
stroke:#848400; stroke-width:0; stroke-opacity:1; 
stroke-linecap:round; stroke-linejoin:round;">
<circle cx="26283.8" cy="3463.32" r="393.701" /> 
</g>
<g style="fill:#848400; fill-opacity:1.0; 
stroke:#848400; stroke-width:39.3701; stroke-opacity:1; 
stroke-linecap:round; stroke-linejoin:round;">
</g>
<g style="fill:#848400; fill-opacity:1.0; 
stroke:#848400; stroke-width:0; stroke-opacity:1; 
stroke-linecap:round; stroke-linejoin:round;">
<circle cx="26840.6" cy="6525.59" r="393.701" /> 
</g>
<g style="fill:#848400; fill-opacity:1.0; 
stroke:#848400; stroke-width:39.3701; stroke-opacity:1; 
stroke-linecap:round; stroke-linejoin:round;">
</g>
<g style="fill:#848400; fill-opacity:1.0; 
stroke:#848400; stroke-width:0; stroke-opacity:1; 
stroke-linecap:round; stroke-linejoin:round;">
<circle cx="28093.3" cy="5272.84" r="393.701" /> 
</g>
<g style="fill:#848400; fill-opacity:1.0; 
stroke:#848400; stroke-width:39.3701; stroke-opacity:1; 
stroke-linecap:round; stroke-linejoin:round;">
</g>
<g >
</g>
<g style="fill:#848400; fill-opacity:1.0; 
stroke:#848400; stroke-width:39.3701; stroke-opacity:1; 
stroke-linecap:round; stroke-linejoin:round;">
</g>
<g style="fill:#848400; fill-opacity:1.0; 
stroke:#848400; stroke-width:0; stroke-opacity:1; 
stroke-linecap:round; stroke-linejoin:round;">
<circle cx="26839.1" cy="25031" r="393.701" /> 
</g>
<g style="fill:#848400; fill-opacity:1.0; 
stroke:#848400; stroke-width:39.3701; stroke-opacity:1; 
stroke-linecap:round; stroke-linejoin:round;">
</g>
<g style="fill:#848400; fill-opacity:1.0; 
stroke:#848400; stroke-width:0; stroke-opacity:1; 
stroke-linecap:round; stroke-linejoin:round;">
<circle cx="28091.8" cy="26283.8" r="393.701" /> 
</g>
<g style="fill:#848400; fill-opacity:1.0; 
stroke:#848400; stroke-width:39.3701; stroke-opacity:1; 
stroke-linecap:round; stroke-linejoin:round;">
</g>
<g style="fill:#848400; fill-opacity:1.0; 
stroke:#848400; stroke-width:0; stroke-opacity:1; 
stroke-linecap:round; stroke-linejoin:round;">
<circle cx="25029.5" cy="26840.6" r="393.701" /> 
</g>
<g style="fill:#848400; fill-opacity:1.0; 
stroke:#848400; stroke-width:39.3701; stroke-opacity:1; 
stroke-linecap:round; stroke-linejoin:round;">
</g>
<g style="fill:#848400; fill-opacity:1.0; 
stroke:#848400; stroke-width:0; stroke-opacity:1; 
stroke-linecap:round; stroke-linejoin:round;">
<circle cx="26282.3" cy="28093.3" r="393.701" /> 
</g>
<g style="fill:#848400; fill-opacity:1.0; 
stroke:#848400; stroke-width:39.3701; stroke-opacity:1; 
stroke-linecap:round; stroke-linejoin:round;">
</g>
<g >
</g>
<g >
</g>
<g >
</g>
<g >
</g>
<g >
</g>
<g >
</g>
<g style="fill:#848400; fill-opacity:1.0; 
stroke:#848400; stroke-width:39.3701; stroke-opacity:1; 
stroke-linecap:round; stroke-linejoin:round;">
</g>
<g style="fill:#848400; fill-opacity:1.0; 
stroke:#848400; stroke-width:669.291; stroke-opacity:1; 
stroke-linecap:round; stroke-linejoin:round;">
</g>
<g style="fill:#848400; fill-opacity:0.0; 
stroke:#848400; stroke-width:669.291; stroke-opacity:1; 
stroke-linecap:round; stroke-linejoin:round;">
<path d="M28375 15171
L28375 15171
" />
</g>
<g style="fill:#848400; fill-opacity:0.0; 
stroke:#848400; stroke-width:0; stroke-opacity:1; 
stroke-linecap:round; stroke-linejoin:round;">
</g>
<g style="fill:#848400; fill-opacity:1.0; 
stroke:#848400; stroke-width:0; stroke-opacity:1; 
stroke-linecap:round; stroke-linejoin:round;">
<path style="fill:#848400; fill-opacity:1.0; 
stroke:#848400; stroke-width:0; stroke-opacity:1; 
stroke-linecap:round; stroke-linejoin:round;fill-rule:evenodd;"
d="M 28041,16505
28041,15836
28710,15836
28710,16505
28041,16505
Z" /> 
</g>
<g >
</g>
<g >
</g>
<g >
</g>
<g >
</g>
<g >
</g>
<g style="fill:#848400; fill-opacity:1.0; 
stroke:#848400; stroke-width:0; stroke-opacity:1; 
stroke-linecap:round; stroke-linejoin:round;">
<circle cx="9281.5" cy="16714.6" r="295.276" /> 
</g>
<g style="fill:#848400; fill-opacity:1.0; 
stroke:#848400; stroke-width:39.3701; stroke-opacity:1; 
stroke-linecap:round; stroke-linejoin:round;">
</g>
<g style="fill:#848400; fill-opacity:1.0; 
stroke:#848400; stroke-width:0; stroke-opacity:1; 
stroke-linecap:round; stroke-linejoin:round;">
<circle cx="9281.5" cy="14793.3" r="295.276" /> 
</g>
<g style="fill:#848400; fill-opacity:1.0; 
stroke:#848400; stroke-width:39.3701; stroke-opacity:1; 
stroke-linecap:round; stroke-linejoin:round;">
</g>
<g >
</g>
<g >
</g>
<g >
</g>
<g >
</g>
<g >
</g>
<g style="fill:#848400; fill-opacity:1.0; 
stroke:#848400; stroke-width:39.3701; stroke-opacity:1; 
stroke-linecap:round; stroke-linejoin:round;">
</g>
<g style="fill:#848400; fill-opacity:1.0; 
stroke:#848400; stroke-width:669.291; stroke-opacity:1; 
stroke-linecap:round; stroke-linejoin:round;">
</g>
<g style="fill:#848400; fill-opacity:0.0; 
stroke:#848400; stroke-width:669.291; stroke-opacity:1; 
stroke-linecap:round; stroke-linejoin:round;">
<path d="M15279 9872
L15279 9872
" />
</g>
<g style="fill:#848400; fill-opacity:0.0; 
stroke:#848400; stroke-width:0; stroke-opacity:1; 
stroke-linecap:round; stroke-linejoin:round;">
</g>
<g style="fill:#848400; fill-opacity:1.0; 
stroke:#848400; stroke-width:0; stroke-opacity:1; 
stroke-linecap:round; stroke-linejoin:round;">
<path style="fill:#848400; fill-opacity:1.0; 
stroke:#848400; stroke-width:0; stroke-opacity:1; 
stroke-linecap:round; stroke-linejoin:round;fill-rule:evenodd;"
d="M 16614,10206
15944,10206
15944,9537
16614,9537
16614,10206
Z" /> 
</g>
<g >
</g>
<g >
</g>
<g >
</g>
<g >
</g>
<g >
</g>
<g >
</g>
<g >
</g>
<g style="fill:#C2C2C2; fill-opacity:1.0; 
stroke:#C2C2C2; stroke-width:0; stroke-opacity:1; 
stroke-linecap:round; stroke-linejoin:round;">
<circle cx="13179.1" cy="18100.4" r="157.48" /> 
</g>
<g style="fill:#C2C2C2; fill-opacity:1.0; 
stroke:#C2C2C2; stroke-width:39.3701; stroke-opacity:1; 
stroke-linecap:round; stroke-linejoin:round;">
</g>
<g style="fill:#C2C2C2; fill-opacity:1.0; 
stroke:#C2C2C2; stroke-width:0; stroke-opacity:1; 
stroke-linecap:round; stroke-linejoin:round;">
<circle cx="13179.1" cy="14675.2" r="157.48" /> 
</g>
<g style="fill:#C2C2C2; fill-opacity:1.0; 
stroke:#C2C2C2; stroke-width:39.3701; stroke-opacity:1; 
stroke-linecap:round; stroke-linejoin:round;">
</g>
<g style="fill:#C2C2C2; fill-opacity:1.0; 
stroke:#C2C2C2; stroke-width:0; stroke-opacity:1; 
stroke-linecap:round; stroke-linejoin:round;">
<circle cx="21722.4" cy="15344.5" r="157.48" /> 
</g>
<g style="fill:#C2C2C2; fill-opacity:1.0; 
stroke:#C2C2C2; stroke-width:39.3701; stroke-opacity:1; 
stroke-linecap:round; stroke-linejoin:round;">
</g>
<g style="fill:#C2C2C2; fill-opacity:1.0; 
stroke:#C2C2C2; stroke-width:0; stroke-opacity:1; 
stroke-linecap:round; stroke-linejoin:round;">
<circle cx="22037.4" cy="15029.5" r="157.48" /> 
</g>
<g style="fill:#C2C2C2; fill-opacity:1.0; 
stroke:#C2C2C2; stroke-width:39.3701; stroke-opacity:1; 
stroke-linecap:round; stroke-linejoin:round;">
</g>
<g style="fill:#C2C2C2; fill-opacity:1.0; 
stroke:#C2C2C2; stroke-width:0; stroke-opacity:1; 
stroke-linecap:round; stroke-linejoin:round;">
<circle cx="18061" cy="16879.9" r="157.48" /> 
</g>
<g style="fill:#C2C2C2; fill-opacity:1.0; 
stroke:#C2C2C2; stroke-width:39.3701; stroke-opacity:1; 
stroke-linecap:round; stroke-linejoin:round;">
</g>
<g style="fill:#C2C2C2; fill-opacity:1.0; 
stroke:#C2C2C2; stroke-width:0; stroke-opacity:1; 
stroke-linecap:round; stroke-linejoin:round;">
<circle cx="18533.5" cy="19005.9" r="157.48" /> 
</g>
<g style="fill:#C2C2C2; fill-opacity:1.0; 
stroke:#C2C2C2; stroke-width:39.3701; stroke-opacity:1; 
stroke-linecap:round; stroke-linejoin:round;">
</g>
<g style="fill:#C2C2C2; fill-opacity:1.0; 
stroke:#C2C2C2; stroke-width:0; stroke-opacity:1; 
stroke-linecap:round; stroke-linejoin:round;">
<circle cx="16604.3" cy="15620.1" r="157.48" /> 
</g>
<g style="fill:#C2C2C2; fill-opacity:1.0; 
stroke:#C2C2C2; stroke-width:39.3701; stroke-opacity:1; 
stroke-linecap:round; stroke-linejoin:round;">
</g>
<g style="fill:#C2C2C2; fill-opacity:1.0; 
stroke:#C2C2C2; stroke-width:0; stroke-opacity:1; 
stroke-linecap:round; stroke-linejoin:round;">
<circle cx="14793.3" cy="16289.4" r="157.48" /> 
</g>
<g style="fill:#C2C2C2; fill-opacity:1.0; 
stroke:#C2C2C2; stroke-width:39.3701; stroke-opacity:1; 
stroke-linecap:round; stroke-linejoin:round;">
</g>
<g style="fill:#C2C2C2; fill-opacity:1.0; 
stroke:#C2C2C2; stroke-width:0; stroke-opacity:1; 
stroke-linecap:round; stroke-linejoin:round;">
<circle cx="14596.5" cy="13415.4" r="157.48" /> 
</g>
<g style="fill:#C2C2C2; fill-opacity:1.0; 
stroke:#C2C2C2; stroke-width:39.3701; stroke-opacity:1; 
stroke-linecap:round; stroke-linejoin:round;">
</g>
<g style="fill:#C2C2C2; fill-opacity:1.0; 
stroke:#C2C2C2; stroke-width:0; stroke-opacity:1; 
stroke-linecap:round; stroke-linejoin:round;">
<circle cx="14596.5" cy="12628" r="157.48" /> 
</g>
<g style="fill:#C2C2C2; fill-opacity:1.0; 
stroke:#C2C2C2; stroke-width:39.3701; stroke-opacity:1; 
stroke-linecap:round; stroke-linejoin:round;">
</g>
<g style="fill:#C2C2C2; fill-opacity:1.0; 
stroke:#C2C2C2; stroke-width:0; stroke-opacity:1; 
stroke-linecap:round; stroke-linejoin:round;">
<circle cx="16840.6" cy="18021.7" r="157.48" /> 
</g>
<g style="fill:#C2C2C2; fill-opacity:1.0; 
stroke:#C2C2C2; stroke-width:39.3701; stroke-opacity:1; 
stroke-linecap:round; stroke-linejoin:round;">
</g>
<g style="fill:#C2C2C2; fill-opacity:1.0; 
stroke:#C2C2C2; stroke-width:0; stroke-opacity:1; 
stroke-linecap:round; stroke-linejoin:round;">
<circle cx="18415.4" cy="17982.3" r="157.48" /> 
</g>
<g style="fill:#C2C2C2; fill-opacity:1.0; 
stroke:#C2C2C2; stroke-width:39.3701; stroke-opacity:1; 
stroke-linecap:round; stroke-linejoin:round;">
</g>
<g style="fill:#C2C2C2; fill-opacity:1.0; 
stroke:#C2C2C2; stroke-width:0; stroke-opacity:1; 
stroke-linecap:round; stroke-linejoin:round;">
<circle cx="17706.7" cy="18100.4" r="157.48" /> 
</g>
<g style="fill:#C2C2C2; fill-opacity:1.0; 
stroke:#C2C2C2; stroke-width:39.3701; stroke-opacity:1; 
stroke-linecap:round; stroke-linejoin:round;">
</g>
<g style="fill:#C2C2C2; fill-opacity:1.0; 
stroke:#C2C2C2; stroke-width:0; stroke-opacity:1; 
stroke-linecap:round; stroke-linejoin:round;">
<circle cx="13690.9" cy="17509.8" r="157.48" /> 
</g>
<g style="fill:#C2C2C2; fill-opacity:1.0; 
stroke:#C2C2C2; stroke-width:39.3701; stroke-opacity:1; 
stroke-linecap:round; stroke-linejoin:round;">
</g>
<g style="fill:#C2C2C2; fill-opacity:1.0; 
stroke:#C2C2C2; stroke-width:0; stroke-opacity:1; 
stroke-linecap:round; stroke-linejoin:round;">
<circle cx="12509.8" cy="17706.7" r="157.48" /> 
</g>
<g style="fill:#C2C2C2; fill-opacity:1.0; 
stroke:#C2C2C2; stroke-width:39.3701; stroke-opacity:1; 
stroke-linecap:round; stroke-linejoin:round;">
</g>
<g style="fill:#C2C2C2; fill-opacity:1.0; 
stroke:#C2C2C2; stroke-width:0; stroke-opacity:1; 
stroke-linecap:round; stroke-linejoin:round;">
<circle cx="10738.2" cy="16801.2" r="157.48" /> 
</g>
<g style="fill:#C2C2C2; fill-opacity:1.0; 
stroke:#C2C2C2; stroke-width:39.3701; stroke-opacity:1; 
stroke-linecap:round; stroke-linejoin:round;">
</g>
<g style="fill:#C2C2C2; fill-opacity:1.0; 
stroke:#C2C2C2; stroke-width:0; stroke-opacity:1; 
stroke-linecap:round; stroke-linejoin:round;">
<circle cx="21604.3" cy="16565" r="157.48" /> 
</g>
<g style="fill:#C2C2C2; fill-opacity:1.0; 
stroke:#C2C2C2; stroke-width:39.3701; stroke-opacity:1; 
stroke-linecap:round; stroke-linejoin:round;">
</g>
<g style="fill:#C2C2C2; fill-opacity:1.0; 
stroke:#C2C2C2; stroke-width:0; stroke-opacity:1; 
stroke-linecap:round; stroke-linejoin:round;">
<circle cx="14202.8" cy="18179.1" r="118.11" /> 
</g>
<g style="fill:#C2C2C2; fill-opacity:1.0; 
stroke:#C2C2C2; stroke-width:39.3701; stroke-opacity:1; 
stroke-linecap:round; stroke-linejoin:round;">
</g>
<g style="fill:#C2C2C2; fill-opacity:1.0; 
stroke:#C2C2C2; stroke-width:0; stroke-opacity:1; 
stroke-linecap:round; stroke-linejoin:round;">
<circle cx="15620.1" cy="14832.7" r="118.11" /> 
</g>
<g style="fill:#C2C2C2; fill-opacity:1.0; 
stroke:#C2C2C2; stroke-width:39.3701; stroke-opacity:1; 
stroke-linecap:round; stroke-linejoin:round;">
</g>
<g style="fill:#C2C2C2; fill-opacity:1.0; 
stroke:#C2C2C2; stroke-width:0; stroke-opacity:1; 
stroke-linecap:round; stroke-linejoin:round;">
<circle cx="18730.3" cy="17588.6" r="118.11" /> 
</g>
<g style="fill:#C2C2C2; fill-opacity:1.0; 
stroke:#C2C2C2; stroke-width:39.3701; stroke-opacity:1; 
stroke-linecap:round; stroke-linejoin:round;">
</g>
<g style="fill:#C2C2C2; fill-opacity:1.0; 
stroke:#C2C2C2; stroke-width:0; stroke-opacity:1; 
stroke-linecap:round; stroke-linejoin:round;">
<circle cx="18139.8" cy="14990.2" r="118.11" /> 
</g>
<g style="fill:#C2C2C2; fill-opacity:1.0; 
stroke:#C2C2C2; stroke-width:39.3701; stroke-opacity:1; 
stroke-linecap:round; stroke-linejoin:round;">
</g>
<g style="fill:#C2C2C2; fill-opacity:1.0; 
stroke:#C2C2C2; stroke-width:0; stroke-opacity:1; 
stroke-linecap:round; stroke-linejoin:round;">
<circle cx="16565" cy="13336.6" r="118.11" /> 
</g>
<g style="fill:#C2C2C2; fill-opacity:1.0; 
stroke:#C2C2C2; stroke-width:39.3701; stroke-opacity:1; 
stroke-linecap:round; stroke-linejoin:round;">
</g>
<g >
</g>
<g style="fill:#008400; fill-opacity:1.0; 
stroke:#008400; stroke-width:39.3701; stroke-opacity:1; 
stroke-linecap:round; stroke-linejoin:round;">
</g>
<g style="fill:#008400; fill-opacity:1.0; 
stroke:#008400; stroke-width:118.11; stroke-opacity:1; 
stroke-linecap:round; stroke-linejoin:round;">
</g>
<g style="fill:#008400; fill-opacity:0.0; 
stroke:#008400; stroke-width:118.11; stroke-opacity:1; 
stroke-linecap:round; stroke-linejoin:round;">
<path d="M13179 17612
L13218 17573
" />
<path d="M13179 18100
L13179 17612
" />
<path d="M13218 17573
L13179 17534
" />
<path d="M13179 17534
L13179 14675
" />
<path d="M22431 14635
L21722 15344
" />
<path d="M28730 14635
L22431 14635
" />
<path d="M30541 14990
L29084 14990
" />
<path d="M29084 14990
L28730 14635
" />
<path d="M18061 16879
L18061 18533
" />
<path d="M18061 18533
L18533 19005
" />
<path d="M14650 19005
L18533 19005
" />
<path d="M13218 17573
L14650 19005
" />
<path d="M15462 15620
L16604 15620
" />
<path d="M14793 16289
L15462 15620
" />
<path d="M16604 15620
L17238 15620
" />
<path d="M17238 15620
L18415 16797
" />
<path d="M18415 16797
L18415 17982
" />
<path d="M21998 16171
L21761 16407
" />
<path d="M21761 16407
L21604 16564
" />
<path d="M28375 16171
L21998 16171
" />
</g>
<g style="fill:#008400; fill-opacity:0.0; 
stroke:#008400; stroke-width:59.0551; stroke-opacity:1; 
stroke-linecap:round; stroke-linejoin:round;">
<path d="M14202 18179
L14202 16250
" />
<path d="M14202 16250
L15620 14832
" />
<path d="M17588 14832
L15620 14832
" />
<path d="M18730 17588
L18730 15974
" />
<path d="M18730 15974
L17588 14832
" />
<path d="M28091 26283
L28091 24942
" />
<path d="M28091 24942
L18139 14990
" />
<path d="M16397 13336
L16564 13336
" />
<path d="M16102 13041
L16397 13336
" />
<path d="M13907 13041
L16102 13041
" />
<path d="M3461 26282
L3461 23487
" />
<path d="M3461 23487
L13907 13041
" />
</g>
<g >
</g>
<g style="fill:#008400; fill-opacity:0.0; 
stroke:#008400; stroke-width:59.0551; stroke-opacity:1; 
stroke-linecap:round; stroke-linejoin:round;">
</g>
<g style="fill:#008400; fill-opacity:1.0; 
stroke:#008400; stroke-width:59.0551; stroke-opacity:1; 
stroke-linecap:round; stroke-linejoin:round;">
<path style="fill:#008400; fill-opacity:1.0; 
stroke:#008400; stroke-width:59.0551; stroke-opacity:1; 
stroke-linecap:round; stroke-linejoin:round;fill-rule:evenodd;"
d="M 27700,178
28199,269
28683,419
29146,627
29580,888
29980,1200
30340,1558
30653,1956
30917,2389
31127,2850
31280,3334
31374,3832
31407,4341
31407,4360
31407,27191
31376,27700
31285,28199
31135,28683
30927,29146
30666,29580
30354,29980
29997,30340
29598,30653
29165,30917
28704,31127
28221,31280
27722,31374
27213,31407
27194,31407
4363,31407
3854,31376
3355,31285
2871,31135
2408,30927
1974,30666
1574,30354
1215,29997
901,29598
637,29165
427,28704
274,28221
241,28042
4769,28042
4769,28141
4788,28238
4826,28329
4881,28411
4951,28481
5033,28536
5124,28574
5221,28593
5320,28593
5417,28574
5509,28536
5591,28481
5661,28411
5716,28329
5754,28238
5773,28141
5773,28043
25780,28043
25780,28142
25799,28239
25837,28331
25892,28413
25962,28483
26044,28538
26135,28575
26232,28595
26331,28595
26428,28575
26520,28538
26602,28483
26672,28413
26727,28331
26764,28239
26784,28142
26784,28043
26764,27946
26727,27855
26672,27773
26602,27703
26520,27648
26428,27610
26331,27591
26232,27591
26135,27610
26044,27648
25962,27703
25892,27773
25837,27855
25799,27946
25780,28043
5773,28043
5773,28042
5754,27945
5716,27854
5661,27771
5591,27701
5509,27646
5417,27609
5320,27589
5221,27589
5124,27609
5033,27646
4951,27701
4881,27771
4826,27854
4788,27945
4769,28042
241,28042
181,27722
147,27213
147,27194
147,26953
5992,26953
6024,27054
6076,27148
6145,27229
6228,27295
6323,27344
6409,27370
6494,27345
6494,26868
6553,26868
6553,27345
6638,27370
6739,27338
6833,27286
6914,27217
6980,27134
7029,27039
7055,26954
24497,26954
24530,27056
24581,27149
24650,27230
24734,27297
24828,27346
24915,27372
25000,27346
25000,26870
25059,26870
25059,27346
25143,27372
25245,27339
25338,27288
25419,27219
25486,27135
25535,27041
25561,26954
25535,26870
25059,26870
25000,26870
24523,26870
24497,26954
7055,26954
7055,26953
7030,26868
6553,26868
6494,26868
6017,26868
5992,26953
147,26953
147,26232
2959,26232
2959,26331
2979,26428
3016,26520
3071,26602
3141,26672
3224,26727
3315,26764
3412,26784
3511,26784
3608,26764
3699,26727
3702,26724
5992,26724
6017,26809
6494,26809
6494,26332
6553,26332
6553,26809
7030,26809
7055,26726
24497,26726
24523,26811
25000,26811
25000,26334
25059,26334
25059,26811
25535,26811
25561,26726
25528,26624
25477,26531
25408,26450
25324,26383
25230,26334
25143,26308
25059,26334
25000,26334
24915,26308
24813,26341
24720,26392
24639,26461
24572,26545
24523,26639
24497,26726
7055,26726
7055,26724
7023,26623
6971,26530
6902,26448
6819,26382
6724,26333
6638,26307
6553,26332
6494,26332
6409,26307
6308,26339
6215,26391
6133,26460
6067,26543
6018,26638
5992,26724
3702,26724
3781,26672
3851,26602
3906,26520
3944,26428
3963,26331
3963,26232
3944,26135
3906,26044
3851,25962
3781,25892
3699,25837
3608,25799
3599,25797
3599,25143
4182,25143
4215,25245
4266,25338
4335,25419
4419,25486
4513,25535
4600,25561
4685,25535
4685,25059
4744,25059
4744,25535
4828,25561
4930,25528
5023,25477
5104,25408
5171,25324
5220,25230
5245,25145
26307,25145
26339,25246
26391,25340
26460,25421
26543,25487
26638,25536
26724,25562
26809,25537
26809,25060
26868,25060
26868,25537
26953,25562
27054,25530
27148,25478
27229,25409
27295,25326
27344,25231
27370,25145
27345,25060
26868,25060
26809,25060
26332,25060
26307,25145
5245,25145
5246,25143
5220,25059
4744,25059
4685,25059
4208,25059
4182,25143
3599,25143
3599,24915
4182,24915
4208,25000
4685,25000
4685,24523
4744,24523
4744,25000
5220,25000
5245,24916
26307,24916
26332,25001
26809,25001
26809,24524
26868,24524
26868,25001
27345,25001
27370,24916
27338,24815
27286,24722
27217,24640
27134,24574
27039,24525
26953,24499
26868,24524
26809,24524
26724,24499
26623,24531
26530,24583
26448,24652
26382,24735
26333,24830
26307,24916
5245,24916
5246,24915
5213,24813
5162,24720
5093,24639
5009,24572
4915,24523
4828,24497
4744,24523
4685,24523
4600,24497
4498,24530
4405,24581
4324,24650
4257,24734
4208,24828
4182,24915
3599,24915
3599,23544
7167,19976
19135,19976
19135,20035
19147,20094
19170,20149
19203,20199
19245,20241
19295,20274
19350,20297
19409,20309
19468,20309
19527,20297
19582,20274
19632,20241
19674,20199
19707,20149
19730,20094
19742,20035
19742,19976
19730,19917
19707,19862
19674,19812
19632,19770
19582,19737
19527,19714
19468,19702
19409,19702
19350,19714
19295,19737
19245,19770
19203,19812
19170,19862
19147,19917
19135,19976
7167,19976
12494,14649
12913,14649
12913,14701
12923,14752
12943,14801
12972,14844
13009,14881
13011,14883
13011,17526
13011,17534
13011,17542
13011,17542
13014,17567
13016,17573
13014,17580
13011,17612
13011,17621
13011,17892
13009,17893
12972,17930
12943,17974
12923,18022
12913,18074
12913,18126
12923,18177
12943,18226
12972,18269
13009,18306
13053,18335
13101,18355
13152,18366
13205,18366
13256,18355
13305,18335
13348,18306
13385,18269
13414,18226
13434,18177
13444,18126
13444,18074
13435,18027
14526,19118
14531,19124
14557,19145
14576,19155
14586,19161
14617,19170
14642,19173
14642,19173
14650,19174
14659,19173
18325,19173
18327,19175
18364,19212
18407,19241
18455,19261
18507,19271
18559,19271
18610,19261
18659,19241
18702,19212
18739,19175
18768,19131
18789,19083
18799,19032
18799,18979
18789,18928
18768,18880
18739,18836
18702,18799
18659,18770
18610,18750
18559,18740
18507,18740
18504,18740
18228,18464
18228,17087
18230,17086
18267,17049
18296,17005
18316,16957
18326,16906
18326,16853
18316,16802
18296,16754
18267,16710
18230,16673
18186,16644
18138,16624
18087,16614
18034,16614
17983,16624
17935,16644
17891,16673
17854,16710
17825,16754
17805,16802
17795,16853
17795,16906
17805,16957
17825,17005
17854,17049
17891,17086
17893,17087
17893,18525
17892,18533
17896,18566
17905,18597
17921,18626
17942,18652
17948,18657
18129,18838
14720,18838
14275,18394
14309,18379
14347,18354
14378,18323
14403,18286
14420,18245
14429,18201
14429,18156
14420,18113
14403,18071
14378,18034
14347,18003
14340,17998
14340,16307
15590,15057
15597,15059
15642,15059
15686,15050
15727,15033
15764,15008
15795,14976
15800,14970
17531,14970
18592,16031
18592,17408
18586,17412
18554,17444
18529,17481
18512,17522
18503,17566
18503,17610
18512,17654
18529,17695
18554,17732
18586,17764
18623,17789
18664,17806
18708,17814
18752,17814
18796,17806
18819,17796
18803,17812
18770,17862
18747,17917
18735,17976
18735,18035
18747,18094
18770,18149
18803,18199
18845,18241
18895,18274
18950,18297
19009,18309
19068,18309
19127,18297
19182,18274
19232,18241
19274,18199
19307,18149
19330,18094
19342,18035
19342,17976
19535,17976
19535,18035
19547,18094
19570,18149
19603,18199
19645,18241
19695,18274
19750,18297
19809,18309
19868,18309
19927,18297
19982,18274
20032,18241
20074,18199
20107,18149
20130,18094
20142,18035
20142,17976
20130,17917
20107,17862
20074,17812
20032,17770
19982,17737
19927,17714
19868,17702
19809,17702
19750,17714
19695,17737
19645,17770
19603,17812
19570,17862
19547,17917
19535,17976
19342,17976
19330,17917
19307,17862
19274,17812
19232,17770
19182,17737
19127,17714
19068,17702
19009,17702
18950,17714
18906,17732
18930,17695
18947,17654
18956,17610
18956,17566
18947,17522
18930,17481
18906,17444
18874,17412
18868,17408
18868,15981
18868,15974
18868,15967
18866,15947
18858,15921
18845,15897
18828,15876
18822,15872
18166,15215
18169,15215
27954,24999
27954,25799
27945,25801
27854,25838
27771,25893
27701,25963
27646,26046
27609,26137
27589,26234
27589,26333
27609,26430
27646,26521
27701,26603
27771,26673
27854,26728
27945,26766
28042,26785
28141,26785
28238,26766
28329,26728
28411,26673
28481,26603
28536,26521
28574,26430
28593,26333
28593,26234
28574,26137
28536,26046
28481,25963
28411,25893
28329,25838
28238,25801
28229,25799
28229,24948
28230,24942
28227,24915
28219,24889
28206,24865
28189,24844
28184,24839
19850,16505
27892,16505
27895,16534
27904,16562
27917,16588
27936,16610
27958,16629
27984,16642
28012,16651
28041,16654
28309,16653
28346,16616
28346,16200
28405,16200
28405,16616
28442,16653
28710,16654
28739,16651
28767,16642
28793,16629
28815,16610
28833,16588
28847,16562
28856,16534
28858,16505
28858,16237
28821,16200
28405,16200
28346,16200
27930,16200
27893,16237
27892,16505
19850,16505
19181,15836
27892,15836
27893,16104
27930,16141
28346,16141
28346,15725
28405,15725
28405,16141
28821,16141
28858,16104
28858,15836
28856,15807
28847,15779
28833,15754
28815,15731
28793,15713
28767,15699
28739,15691
28710,15688
28442,15688
28405,15725
28346,15725
28309,15688
28041,15688
28012,15691
27984,15699
27958,15713
27936,15731
27917,15754
27904,15779
27895,15807
27892,15836
19181,15836
18662,15318
21456,15318
21456,15370
21466,15422
21486,15470
21516,15513
21553,15550
21596,15579
21644,15600
21696,15610
21748,15610
21799,15600
21848,15579
21891,15550
21928,15513
21957,15470
21977,15422
21988,15370
21988,15318
21987,15315
22008,15294
22011,15295
22063,15295
22114,15285
22163,15265
22206,15235
22243,15198
22272,15155
22292,15107
22303,15055
22303,15003
22302,15000
22500,14803
28126,14803
28061,14856
28005,14924
27964,15000
27939,15084
27930,15171
27939,15258
27964,15341
28005,15418
28061,15485
28128,15541
28205,15582
28289,15607
28354,15614
28397,15614
28462,15607
28546,15582
28623,15541
28690,15485
28746,15418
28787,15341
28812,15258
28821,15171
28812,15084
28787,15000
28746,14924
28690,14856
28625,14803
28661,14803
28960,15102
28965,15109
28991,15129
29020,15145
29042,15152
29051,15155
29055,15155
29076,15157
29076,15157
29084,15158
29092,15157
29976,15157
30007,15215
30057,15276
30119,15327
30189,15364
30252,15383
30189,15402
30119,15440
30057,15490
30007,15552
29969,15622
29946,15698
29938,15777
29946,15856
29969,15932
30007,16002
30057,16064
30119,16114
30189,16152
30218,16160
30049,16160
30027,16162
30007,16169
29988,16179
29972,16192
29958,16209
29948,16228
29942,16248
29940,16269
29940,16860
29942,16881
29948,16901
29958,16920
29972,16937
29979,16942
29900,17007
29833,17089
29782,17183
29751,17285
29741,17391
29751,17497
29782,17599
29833,17693
29900,17776
29983,17844
30077,17894
30179,17925
30258,17933
30823,17933
30903,17925
31005,17894
31099,17844
31181,17776
31249,17693
31299,17599
31330,17497
31341,17391
31330,17285
31299,17183
31249,17089
31181,17007
31103,16942
31110,16937
31123,16920
31133,16901
31140,16881
31142,16860
31142,16269
31140,16248
31133,16228
31123,16209
31110,16192
31093,16179
31075,16169
31054,16162
31033,16160
30864,16160
30893,16152
30963,16114
31024,16064
31075,16002
31112,15932
31135,15856
31143,15777
31135,15698
31112,15622
31075,15552
31024,15490
30963,15440
30893,15402
30830,15383
30893,15364
30963,15327
31024,15276
31075,15215
31112,15145
31135,15069
31143,14990
31135,14911
31112,14834
31075,14764
31024,14703
30986,14671
31005,14665
31099,14615
31181,14548
31249,14465
31299,14371
31330,14269
31341,14163
31330,14057
31299,13955
31249,13861
31181,13778
31099,13711
31005,13660
30903,13629
30823,13622
30258,13622
30179,13629
30077,13660
29983,13711
29900,13778
29833,13861
29782,13955
29751,14057
29741,14163
29751,14269
29782,14371
29833,14465
29900,14548
29983,14615
30077,14665
30096,14671
30057,14703
30007,14764
29976,14822
29153,14822
28854,14523
28849,14516
28823,14496
28794,14480
28763,14470
28738,14468
28738,14468
28730,14467
28722,14468
22439,14468
22431,14467
22422,14468
22422,14468
22401,14470
22398,14470
22388,14473
22366,14480
22337,14496
22312,14516
22306,14523
22066,14764
22063,14763
22011,14763
21959,14773
21911,14794
21867,14823
21830,14860
21801,14903
21781,14952
21771,15003
21771,15055
21772,15058
21751,15079
21748,15078
21696,15078
21644,15088
21596,15108
21553,15138
21516,15175
21486,15218
21466,15266
21456,15318
18662,15318
18364,15020
18366,15012
18366,14967
18357,14924
18340,14882
18315,14845
18284,14814
18246,14789
18205,14772
18162,14763
18117,14763
18073,14772
18032,14789
17995,14814
17963,14845
17939,14882
17922,14924
17914,14963
17690,14740
17686,14734
17665,14717
17641,14704
17615,14696
17595,14694
17595,14694
17588,14694
17581,14694
15800,14694
15795,14688
15764,14656
15727,14632
15686,14614
15642,14606
15597,14606
15554,14614
15512,14632
15475,14656
15444,14688
15419,14725
15402,14766
15393,14810
15393,14854
15395,14862
14110,16147
14104,16152
14087,16173
14077,16192
14074,16197
14066,16222
14064,16250
14064,16256
14064,17998
14058,18003
14026,18034
14002,18071
13987,18106
13346,17464
13346,14883
13348,14881
13385,14844
13414,14801
13434,14752
13444,14701
13444,14649
13434,14597
13414,14549
13385,14505
13348,14468
13305,14439
13256,14419
13205,14409
13152,14409
13101,14419
13053,14439
13009,14468
12972,14505
12943,14549
12923,14597
12913,14649
12494,14649
13964,13179
16045,13179
16295,13429
16300,13434
16321,13451
16344,13464
16363,13470
16370,13472
16384,13473
16389,13480
16420,13512
16457,13537
16498,13554
16542,13562
16587,13562
16630,13554
16672,13537
16709,13512
16740,13480
16765,13443
16782,13402
16791,13358
16791,13314
16782,13270
16765,13229
16740,13192
16709,13160
16672,13136
16630,13118
16587,13110
16542,13110
16498,13118
16457,13136
16420,13160
16418,13162
16204,12948
16200,12943
16179,12926
16155,12913
16129,12905
16109,12903
16109,12903
16102,12902
16095,12903
13914,12903
13907,12902
13900,12903
13900,12903
13880,12905
13854,12913
13830,12926
13809,12943
13805,12948
3369,23384
3363,23389
3346,23410
3333,23434
3326,23459
3323,23487
3324,23493
3324,25797
3315,25799
3224,25837
3141,25892
3071,25962
3016,26044
2979,26135
2959,26232
147,26232
147,16674
8877,16674
8877,16754
8893,16832
8923,16905
8968,16971
9024,17028
9090,17072
9163,17102
9241,17118
9321,17118
9399,17102
9472,17072
9538,17028
9594,16971
9639,16905
9669,16832
9685,16754
9685,16674
9669,16596
9639,16523
9594,16457
9538,16401
9472,16356
9399,16326
9321,16311
9241,16311
9163,16326
9090,16356
9024,16401
8968,16457
8923,16523
8893,16596
8877,16674
147,16674
147,14753
8877,14753
8877,14833
8893,14911
8923,14984
8968,15050
9024,15106
9090,15150
9163,15181
9241,15196
9321,15196
9399,15181
9472,15150
9538,15106
9594,15050
9639,14984
9669,14911
9685,14833
9685,14753
9669,14675
9639,14602
9594,14536
9538,14479
9472,14435
9399,14405
9321,14389
9241,14389
9163,14405
9090,14435
9024,14479
8968,14536
8923,14602
8893,14675
8877,14753
147,14753
147,9872
14834,9872
14843,9958
14868,10042
14909,10119
14964,10186
15032,10242
15109,10283
15192,10308
15257,10314
15301,10314
15366,10308
15449,10283
15526,10242
15569,10206
15796,10206
15799,10235
15807,10263
15821,10289
15839,10311
15862,10330
15888,10343
15915,10352
15944,10355
16213,10354
16250,10317
16250,9901
16309,9901
16309,10317
16345,10354
16614,10355
16643,10352
16670,10343
16696,10330
16719,10311
16737,10289
16751,10263
16759,10235
16762,10206
16761,9938
16724,9901
16309,9901
16250,9901
15834,9901
15797,9938
15796,10206
15569,10206
15594,10186
15649,10119
15690,10042
15716,9958
15724,9872
15716,9785
15690,9701
15649,9624
15594,9557
15569,9537
15796,9537
15797,9805
15834,9842
16250,9842
16250,9426
16309,9426
16309,9842
16724,9842
16761,9805
16762,9537
16759,9508
16751,9480
16737,9454
16719,9432
16696,9414
16670,9400
16643,9391
16614,9389
16345,9389
16309,9426
16250,9426
16213,9389
15944,9389
15915,9391
15888,9400
15862,9414
15839,9432
15821,9454
15807,9480
15799,9508
15796,9537
15569,9537
15526,9501
15449,9460
15366,9435
15301,9429
15257,9429
15192,9435
15109,9460
15032,9501
14964,9557
14909,9624
14868,9701
14843,9785
14834,9872
147,9872
147,6638
4184,6638
4216,6739
4268,6833
4337,6914
4420,6980
4515,7029
4601,7055
4686,7030
4686,6553
4745,6553
4745,7030
4830,7055
4931,7023
5025,6971
5106,6902
5172,6819
5221,6724
5247,6639
26308,6639
26341,6741
26392,6834
26461,6915
26545,6982
26639,7031
26726,7057
26811,7031
26811,6555
26870,6555
26870,7031
26954,7057
27056,7024
27149,6973
27230,6904
27297,6820
27346,6726
27372,6639
27346,6555
26870,6555
26811,6555
26334,6555
26308,6639
5247,6639
5247,6638
5222,6553
4745,6553
4686,6553
4209,6553
4184,6638
147,6638
147,6409
4184,6409
4209,6494
4686,6494
4686,6017
4745,6017
4745,6494
5222,6494
5247,6411
26308,6411
26334,6496
26811,6496
26811,6019
26870,6019
26870,6496
27346,6496
27372,6411
27339,6309
27288,6216
27219,6135
27135,6068
27041,6019
26954,5993
26870,6019
26811,6019
26726,5993
26624,6026
26531,6077
26450,6146
26383,6230
26334,6325
26308,6411
5247,6411
5247,6409
5215,6308
5163,6215
5094,6133
5011,6067
4916,6018
4830,5992
4745,6017
4686,6017
4601,5992
4500,6024
4407,6076
4325,6145
4259,6228
4210,6323
4184,6409
147,6409
147,5221
2961,5221
2961,5320
2980,5417
3018,5509
3073,5591
3143,5661
3225,5716
3316,5754
3413,5773
3512,5773
3609,5754
3701,5716
3783,5661
3853,5591
3908,5509
3945,5417
3965,5320
3965,5221
3945,5124
3908,5033
3853,4951
3783,4881
3704,4828
5993,4828
6026,4930
6077,5023
6146,5104
6230,5171
6325,5220
6411,5246
6496,5220
6496,4744
6555,4744
6555,5220
6639,5246
6741,5213
6834,5162
6915,5093
6982,5009
7031,4915
7056,4830
24499,4830
24531,4931
24583,5025
24652,5106
24735,5172
24830,5221
24916,5247
25001,5222
25001,4745
25060,4745
25060,5222
25145,5247
25221,5223
27591,5223
27591,5322
27610,5419
27648,5510
27703,5592
27773,5662
27855,5717
27946,5755
28043,5774
28142,5774
28239,5755
28331,5717
28413,5662
28483,5592
28538,5510
28575,5419
28595,5322
28595,5223
28575,5126
28538,5035
28483,4952
28413,4882
28331,4828
28239,4790
28142,4770
28043,4770
27946,4790
27855,4828
27773,4882
27703,4952
27648,5035
27610,5126
27591,5223
25221,5223
25246,5215
25340,5163
25421,5094
25487,5011
25536,4916
25562,4830
25537,4745
25060,4745
25001,4745
24524,4745
24499,4830
7056,4830
7057,4828
7031,4744
6555,4744
6496,4744
6019,4744
5993,4828
3704,4828
3701,4826
3609,4788
3512,4769
3413,4769
3316,4788
3225,4826
3143,4881
3073,4951
3018,5033
2980,5124
2961,5221
147,5221
147,4600
5993,4600
6019,4685
6496,4685
6496,4208
6555,4208
6555,4685
7031,4685
7056,4601
24499,4601
24524,4686
25001,4686
25001,4209
25060,4209
25060,4686
25537,4686
25562,4601
25530,4500
25478,4407
25409,4325
25326,4259
25231,4210
25145,4184
25060,4209
25001,4209
24916,4184
24815,4216
24722,4268
24640,4337
24574,4420
24525,4515
24499,4601
7056,4601
7057,4600
7024,4498
6973,4405
6904,4324
6820,4257
6726,4208
6639,4182
6555,4208
6496,4208
6411,4182
6309,4215
6216,4266
6135,4335
6068,4419
6019,4513
5993,4600
147,4600
147,4363
178,3854
259,3412
4770,3412
4770,3511
4790,3608
4828,3699
4882,3781
4952,3851
5035,3906
5126,3944
5223,3963
5322,3963
5419,3944
5510,3906
5592,3851
5662,3781
5717,3699
5755,3608
5774,3511
5774,3413
25781,3413
25781,3512
25801,3609
25838,3701
25893,3783
25963,3853
26046,3908
26137,3945
26234,3965
26333,3965
26430,3945
26521,3908
26603,3853
26673,3783
26728,3701
26766,3609
26785,3512
26785,3413
26766,3316
26728,3225
26673,3143
26603,3073
26521,3018
26430,2980
26333,2961
26234,2961
26137,2980
26046,3018
25963,3073
25893,3143
25838,3225
25801,3316
25781,3413
5774,3413
5774,3412
5755,3315
5717,3224
5662,3141
5592,3071
5510,3016
5419,2979
5322,2959
5223,2959
5126,2979
5035,3016
4952,3071
4882,3141
4828,3224
4790,3315
4770,3412
259,3412
269,3355
419,2871
627,2408
888,1974
1200,1574
1558,1215
1956,901
2389,637
2850,427
3334,274
3832,181
4341,147
4360,147
27191,147
27700,178
Z" /> 
</g>
</g>
<g style="fill:#FFFFFF; fill-opacity:1.0; 
stroke:#FFFFFF; stroke-width:59.0551; stroke-opacity:1; 
stroke-linecap:round; stroke-linejoin:round;">
</g>
<g style="fill:#FFFFFF; fill-opacity:1.0; 
stroke:#FFFFFF; stroke-width:0; stroke-opacity:1; 
stroke-linecap:round; stroke-linejoin:round;">
<circle cx="13179.1" cy="18100.4" r="78.7402" /> 
</g>
<g style="fill:#FFFFFF; fill-opacity:1.0; 
stroke:#FFFFFF; stroke-width:39.3701; stroke-opacity:1; 
stroke-linecap:round; stroke-linejoin:round;">
</g>
<g style="fill:#FFFFFF; fill-opacity:1.0; 
stroke:#FFFFFF; stroke-width:0; stroke-opacity:1; 
stroke-linecap:round; stroke-linejoin:round;">
<circle cx="13179.1" cy="14675.2" r="78.7402" /> 
</g>
<g style="fill:#FFFFFF; fill-opacity:1.0; 
stroke:#FFFFFF; stroke-width:39.3701; stroke-opacity:1; 
stroke-linecap:round; stroke-linejoin:round;">
</g>
<g style="fill:#FFFFFF; fill-opacity:1.0; 
stroke:#FFFFFF; stroke-width:0; stroke-opacity:1; 
stroke-linecap:round; stroke-linejoin:round;">
<circle cx="21722.4" cy="15344.5" r="78.7402" /> 
</g>
<g style="fill:#FFFFFF; fill-opacity:1.0; 
stroke:#FFFFFF; stroke-width:39.3701; stroke-opacity:1; 
stroke-linecap:round; stroke-linejoin:round;">
</g>
<g style="fill:#FFFFFF; fill-opacity:1.0; 
stroke:#FFFFFF; stroke-width:0; stroke-opacity:1; 
stroke-linecap:round; stroke-linejoin:round;">
<circle cx="22037.4" cy="15029.5" r="78.7402" /> 
</g>
<g style="fill:#FFFFFF; fill-opacity:1.0; 
stroke:#FFFFFF; stroke-width:39.3701; stroke-opacity:1; 
stroke-linecap:round; stroke-linejoin:round;">
</g>
<g style="fill:#FFFFFF; fill-opacity:1.0; 
stroke:#FFFFFF; stroke-width:0; stroke-opacity:1; 
stroke-linecap:round; stroke-linejoin:round;">
<circle cx="18061" cy="16879.9" r="78.7402" /> 
</g>
<g style="fill:#FFFFFF; fill-opacity:1.0; 
stroke:#FFFFFF; stroke-width:39.3701; stroke-opacity:1; 
stroke-linecap:round; stroke-linejoin:round;">
</g>
<g style="fill:#FFFFFF; fill-opacity:1.0; 
stroke:#FFFFFF; stroke-width:0; stroke-opacity:1; 
stroke-linecap:round; stroke-linejoin:round;">
<circle cx="18533.5" cy="19005.9" r="78.7402" /> 
</g>
<g style="fill:#FFFFFF; fill-opacity:1.0; 
stroke:#FFFFFF; stroke-width:39.3701; stroke-opacity:1; 
stroke-linecap:round; stroke-linejoin:round;">
</g>
<g style="fill:#FFFFFF; fill-opacity:1.0; 
stroke:#FFFFFF; stroke-width:0; stroke-opacity:1; 
stroke-linecap:round; stroke-linejoin:round;">
<circle cx="16604.3" cy="15620.1" r="78.7402" /> 
</g>
<g style="fill:#FFFFFF; fill-opacity:1.0; 
stroke:#FFFFFF; stroke-width:39.3701; stroke-opacity:1; 
stroke-linecap:round; stroke-linejoin:round;">
</g>
<g style="fill:#FFFFFF; fill-opacity:1.0; 
stroke:#FFFFFF; stroke-width:0; stroke-opacity:1; 
stroke-linecap:round; stroke-linejoin:round;">
<circle cx="14793.3" cy="16289.4" r="78.7402" /> 
</g>
<g style="fill:#FFFFFF; fill-opacity:1.0; 
stroke:#FFFFFF; stroke-width:39.3701; stroke-opacity:1; 
stroke-linecap:round; stroke-linejoin:round;">
</g>
<g style="fill:#FFFFFF; fill-opacity:1.0; 
stroke:#FFFFFF; stroke-width:0; stroke-opacity:1; 
stroke-linecap:round; stroke-linejoin:round;">
<circle cx="14596.5" cy="13415.4" r="78.7402" /> 
</g>
<g style="fill:#FFFFFF; fill-opacity:1.0; 
stroke:#FFFFFF; stroke-width:39.3701; stroke-opacity:1; 
stroke-linecap:round; stroke-linejoin:round;">
</g>
<g style="fill:#FFFFFF; fill-opacity:1.0; 
stroke:#FFFFFF; stroke-width:0; stroke-opacity:1; 
stroke-linecap:round; stroke-linejoin:round;">
<circle cx="14596.5" cy="12628" r="78.7402" /> 
</g>
<g style="fill:#FFFFFF; fill-opacity:1.0; 
stroke:#FFFFFF; stroke-width:39.3701; stroke-opacity:1; 
stroke-linecap:round; stroke-linejoin:round;">
</g>
<g style="fill:#FFFFFF; fill-opacity:1.0; 
stroke:#FFFFFF; stroke-width:0; stroke-opacity:1; 
stroke-linecap:round; stroke-linejoin:round;">
<circle cx="16840.6" cy="18021.7" r="78.7402" /> 
</g>
<g style="fill:#FFFFFF; fill-opacity:1.0; 
stroke:#FFFFFF; stroke-width:39.3701; stroke-opacity:1; 
stroke-linecap:round; stroke-linejoin:round;">
</g>
<g style="fill:#FFFFFF; fill-opacity:1.0; 
stroke:#FFFFFF; stroke-width:0; stroke-opacity:1; 
stroke-linecap:round; stroke-linejoin:round;">
<circle cx="18415.4" cy="17982.3" r="78.7402" /> 
</g>
<g style="fill:#FFFFFF; fill-opacity:1.0; 
stroke:#FFFFFF; stroke-width:39.3701; stroke-opacity:1; 
stroke-linecap:round; stroke-linejoin:round;">
</g>
<g style="fill:#FFFFFF; fill-opacity:1.0; 
stroke:#FFFFFF; stroke-width:0; stroke-opacity:1; 
stroke-linecap:round; stroke-linejoin:round;">
<circle cx="17706.7" cy="18100.4" r="78.7402" /> 
</g>
<g style="fill:#FFFFFF; fill-opacity:1.0; 
stroke:#FFFFFF; stroke-width:39.3701; stroke-opacity:1; 
stroke-linecap:round; stroke-linejoin:round;">
</g>
<g style="fill:#FFFFFF; fill-opacity:1.0; 
stroke:#FFFFFF; stroke-width:0; stroke-opacity:1; 
stroke-linecap:round; stroke-linejoin:round;">
<circle cx="13690.9" cy="17509.8" r="78.7402" /> 
</g>
<g style="fill:#FFFFFF; fill-opacity:1.0; 
stroke:#FFFFFF; stroke-width:39.3701; stroke-opacity:1; 
stroke-linecap:round; stroke-linejoin:round;">
</g>
<g style="fill:#FFFFFF; fill-opacity:1.0; 
stroke:#FFFFFF; stroke-width:0; stroke-opacity:1; 
stroke-linecap:round; stroke-linejoin:round;">
<circle cx="12509.8" cy="17706.7" r="78.7402" /> 
</g>
<g style="fill:#FFFFFF; fill-opacity:1.0; 
stroke:#FFFFFF; stroke-width:39.3701; stroke-opacity:1; 
stroke-linecap:round; stroke-linejoin:round;">
</g>
<g style="fill:#FFFFFF; fill-opacity:1.0; 
stroke:#FFFFFF; stroke-width:0; stroke-opacity:1; 
stroke-linecap:round; stroke-linejoin:round;">
<circle cx="10738.2" cy="16801.2" r="78.7402" /> 
</g>
<g style="fill:#FFFFFF; fill-opacity:1.0; 
stroke:#FFFFFF; stroke-width:39.3701; stroke-opacity:1; 
stroke-linecap:round; stroke-linejoin:round;">
</g>
<g style="fill:#FFFFFF; fill-opacity:1.0; 
stroke:#FFFFFF; stroke-width:0; stroke-opacity:1; 
stroke-linecap:round; stroke-linejoin:round;">
<circle cx="21604.3" cy="16565" r="78.7402" /> 
</g>
<g style="fill:#FFFFFF; fill-opacity:1.0; 
stroke:#FFFFFF; stroke-width:39.3701; stroke-opacity:1; 
stroke-linecap:round; stroke-linejoin:round;">
</g>
<g style="fill:#FFFFFF; fill-opacity:1.0; 
stroke:#FFFFFF; stroke-width:0; stroke-opacity:1; 
stroke-linecap:round; stroke-linejoin:round;">
<circle cx="14202.8" cy="18179.1" r="59.0551" /> 
</g>
<g style="fill:#FFFFFF; fill-opacity:1.0; 
stroke:#FFFFFF; stroke-width:39.3701; stroke-opacity:1; 
stroke-linecap:round; stroke-linejoin:round;">
</g>
<g style="fill:#FFFFFF; fill-opacity:1.0; 
stroke:#FFFFFF; stroke-width:0; stroke-opacity:1; 
stroke-linecap:round; stroke-linejoin:round;">
<circle cx="15620.1" cy="14832.7" r="59.0551" /> 
</g>
<g style="fill:#FFFFFF; fill-opacity:1.0; 
stroke:#FFFFFF; stroke-width:39.3701; stroke-opacity:1; 
stroke-linecap:round; stroke-linejoin:round;">
</g>
<g style="fill:#FFFFFF; fill-opacity:1.0; 
stroke:#FFFFFF; stroke-width:0; stroke-opacity:1; 
stroke-linecap:round; stroke-linejoin:round;">
<circle cx="18730.3" cy="17588.6" r="59.0551" /> 
</g>
<g style="fill:#FFFFFF; fill-opacity:1.0; 
stroke:#FFFFFF; stroke-width:39.3701; stroke-opacity:1; 
stroke-linecap:round; stroke-linejoin:round;">
</g>
<g style="fill:#FFFFFF; fill-opacity:1.0; 
stroke:#FFFFFF; stroke-width:0; stroke-opacity:1; 
stroke-linecap:round; stroke-linejoin:round;">
<circle cx="18139.8" cy="14990.2" r="59.0551" /> 
</g>
<g style="fill:#FFFFFF; fill-opacity:1.0; 
stroke:#FFFFFF; stroke-width:39.3701; stroke-opacity:1; 
stroke-linecap:round; stroke-linejoin:round;">
</g>
<g style="fill:#FFFFFF; fill-opacity:1.0; 
stroke:#FFFFFF; stroke-width:0; stroke-opacity:1; 
stroke-linecap:round; stroke-linejoin:round;">
<circle cx="16565" cy="13336.6" r="59.0551" /> 
</g>
<g style="fill:#FFFFFF; fill-opacity:1.0; 
stroke:#FFFFFF; stroke-width:39.3701; stroke-opacity:1; 
stroke-linecap:round; stroke-linejoin:round;">
</g>
<g style="fill:#FFFFFF; fill-opacity:1.0; 
stroke:#FFFFFF; stroke-width:0; stroke-opacity:1; 
stroke-linecap:round; stroke-linejoin:round;">
<circle cx="30541.3" cy="14163.4" r="295.276" /> 
</g>
<g style="fill:#FFFFFF; fill-opacity:1.0; 
stroke:#FFFFFF; stroke-width:39.3701; stroke-opacity:1; 
stroke-linecap:round; stroke-linejoin:round;">
</g>
<g style="fill:#FFFFFF; fill-opacity:1.0; 
stroke:#FFFFFF; stroke-width:0; stroke-opacity:1; 
stroke-linecap:round; stroke-linejoin:round;">
<circle cx="30541.3" cy="17391.7" r="295.276" /> 
</g>
<g style="fill:#FFFFFF; fill-opacity:1.0; 
stroke:#FFFFFF; stroke-width:39.3701; stroke-opacity:1; 
stroke-linecap:round; stroke-linejoin:round;">
</g>
<g style="fill:#FFFFFF; fill-opacity:1.0; 
stroke:#FFFFFF; stroke-width:0; stroke-opacity:1; 
stroke-linecap:round; stroke-linejoin:round;">
<circle cx="30541.3" cy="14990.2" r="177.165" /> 
</g>
<g style="fill:#FFFFFF; fill-opacity:1.0; 
stroke:#FFFFFF; stroke-width:39.3701; stroke-opacity:1; 
stroke-linecap:round; stroke-linejoin:round;">
</g>
<g style="fill:#FFFFFF; fill-opacity:1.0; 
stroke:#FFFFFF; stroke-width:0; stroke-opacity:1; 
stroke-linecap:round; stroke-linejoin:round;">
<circle cx="30541.3" cy="15777.6" r="177.165" /> 
</g>
<g style="fill:#FFFFFF; fill-opacity:1.0; 
stroke:#FFFFFF; stroke-width:39.3701; stroke-opacity:1; 
stroke-linecap:round; stroke-linejoin:round;">
</g>
<g style="fill:#FFFFFF; fill-opacity:1.0; 
stroke:#FFFFFF; stroke-width:0; stroke-opacity:1; 
stroke-linecap:round; stroke-linejoin:round;">
<circle cx="30541.3" cy="16565" r="177.165" /> 
</g>
<g style="fill:#FFFFFF; fill-opacity:1.0; 
stroke:#FFFFFF; stroke-width:39.3701; stroke-opacity:1; 
stroke-linecap:round; stroke-linejoin:round;">
</g>
<g style="fill:#FFFFFF; fill-opacity:1.0; 
stroke:#FFFFFF; stroke-width:0; stroke-opacity:1; 
stroke-linecap:round; stroke-linejoin:round;">
<circle cx="6524.09" cy="26839.1" r="216.535" /> 
</g>
<g style="fill:#FFFFFF; fill-opacity:1.0; 
stroke:#FFFFFF; stroke-width:39.3701; stroke-opacity:1; 
stroke-linecap:round; stroke-linejoin:round;">
</g>
<g style="fill:#FFFFFF; fill-opacity:1.0; 
stroke:#FFFFFF; stroke-width:0; stroke-opacity:1; 
stroke-linecap:round; stroke-linejoin:round;">
<circle cx="5271.34" cy="28091.8" r="216.535" /> 
</g>
<g style="fill:#FFFFFF; fill-opacity:1.0; 
stroke:#FFFFFF; stroke-width:39.3701; stroke-opacity:1; 
stroke-linecap:round; stroke-linejoin:round;">
</g>
<g style="fill:#FFFFFF; fill-opacity:1.0; 
stroke:#FFFFFF; stroke-width:0; stroke-opacity:1; 
stroke-linecap:round; stroke-linejoin:round;">
<circle cx="4714.57" cy="25029.5" r="216.535" /> 
</g>
<g style="fill:#FFFFFF; fill-opacity:1.0; 
stroke:#FFFFFF; stroke-width:39.3701; stroke-opacity:1; 
stroke-linecap:round; stroke-linejoin:round;">
</g>
<g style="fill:#FFFFFF; fill-opacity:1.0; 
stroke:#FFFFFF; stroke-width:0; stroke-opacity:1; 
stroke-linecap:round; stroke-linejoin:round;">
<circle cx="3461.82" cy="26282.3" r="216.535" /> 
</g>
<g style="fill:#FFFFFF; fill-opacity:1.0; 
stroke:#FFFFFF; stroke-width:39.3701; stroke-opacity:1; 
stroke-linecap:round; stroke-linejoin:round;">
</g>
<g style="fill:#FFFFFF; fill-opacity:1.0; 
stroke:#FFFFFF; stroke-width:0; stroke-opacity:1; 
stroke-linecap:round; stroke-linejoin:round;">
<circle cx="4716.07" cy="6524.09" r="216.535" /> 
</g>
<g style="fill:#FFFFFF; fill-opacity:1.0; 
stroke:#FFFFFF; stroke-width:39.3701; stroke-opacity:1; 
stroke-linecap:round; stroke-linejoin:round;">
</g>
<g style="fill:#FFFFFF; fill-opacity:1.0; 
stroke:#FFFFFF; stroke-width:0; stroke-opacity:1; 
stroke-linecap:round; stroke-linejoin:round;">
<circle cx="3463.32" cy="5271.34" r="216.535" /> 
</g>
<g style="fill:#FFFFFF; fill-opacity:1.0; 
stroke:#FFFFFF; stroke-width:39.3701; stroke-opacity:1; 
stroke-linecap:round; stroke-linejoin:round;">
</g>
<g style="fill:#FFFFFF; fill-opacity:1.0; 
stroke:#FFFFFF; stroke-width:0; stroke-opacity:1; 
stroke-linecap:round; stroke-linejoin:round;">
<circle cx="6525.59" cy="4714.57" r="216.535" /> 
</g>
<g style="fill:#FFFFFF; fill-opacity:1.0; 
stroke:#FFFFFF; stroke-width:39.3701; stroke-opacity:1; 
stroke-linecap:round; stroke-linejoin:round;">
</g>
<g style="fill:#FFFFFF; fill-opacity:1.0; 
stroke:#FFFFFF; stroke-width:0; stroke-opacity:1; 
stroke-linecap:round; stroke-linejoin:round;">
<circle cx="5272.84" cy="3461.82" r="216.535" /> 
</g>
<g style="fill:#FFFFFF; fill-opacity:1.0; 
stroke:#FFFFFF; stroke-width:39.3701; stroke-opacity:1; 
stroke-linecap:round; stroke-linejoin:round;">
</g>
<g style="fill:#FFFFFF; fill-opacity:1.0; 
stroke:#FFFFFF; stroke-width:0; stroke-opacity:1; 
stroke-linecap:round; stroke-linejoin:round;">
<circle cx="25031" cy="4716.07" r="216.535" /> 
</g>
<g style="fill:#FFFFFF; fill-opacity:1.0; 
stroke:#FFFFFF; stroke-width:39.3701; stroke-opacity:1; 
stroke-linecap:round; stroke-linejoin:round;">
</g>
<g style="fill:#FFFFFF; fill-opacity:1.0; 
stroke:#FFFFFF; stroke-width:0; stroke-opacity:1; 
stroke-linecap:round; stroke-linejoin:round;">
<circle cx="26283.8" cy="3463.32" r="216.535" /> 
</g>
<g style="fill:#FFFFFF; fill-opacity:1.0; 
stroke:#FFFFFF; stroke-width:39.3701; stroke-opacity:1; 
stroke-linecap:round; stroke-linejoin:round;">
</g>
<g style="fill:#FFFFFF; fill-opacity:1.0; 
stroke:#FFFFFF; stroke-width:0; stroke-opacity:1; 
stroke-linecap:round; stroke-linejoin:round;">
<circle cx="26840.6" cy="6525.59" r="216.535" /> 
</g>
<g style="fill:#FFFFFF; fill-opacity:1.0; 
stroke:#FFFFFF; stroke-width:39.3701; stroke-opacity:1; 
stroke-linecap:round; stroke-linejoin:round;">
</g>
<g style="fill:#FFFFFF; fill-opacity:1.0; 
stroke:#FFFFFF; stroke-width:0; stroke-opacity:1; 
stroke-linecap:round; stroke-linejoin:round;">
<circle cx="28093.3" cy="5272.84" r="216.535" /> 
</g>
<g style="fill:#FFFFFF; fill-opacity:1.0; 
stroke:#FFFFFF; stroke-width:39.3701; stroke-opacity:1; 
stroke-linecap:round; stroke-linejoin:round;">
</g>
<g style="fill:#FFFFFF; fill-opacity:1.0; 
stroke:#FFFFFF; stroke-width:0; stroke-opacity:1; 
stroke-linecap:round; stroke-linejoin:round;">
<circle cx="26839.1" cy="25031" r="216.535" /> 
</g>
<g style="fill:#FFFFFF; fill-opacity:1.0; 
stroke:#FFFFFF; stroke-width:39.3701; stroke-opacity:1; 
stroke-linecap:round; stroke-linejoin:round;">
</g>
<g style="fill:#FFFFFF; fill-opacity:1.0; 
stroke:#FFFFFF; stroke-width:0; stroke-opacity:1; 
stroke-linecap:round; stroke-linejoin:round;">
<circle cx="28091.8" cy="26283.8" r="216.535" /> 
</g>
<g style="fill:#FFFFFF; fill-opacity:1.0; 
stroke:#FFFFFF; stroke-width:39.3701; stroke-opacity:1; 
stroke-linecap:round; stroke-linejoin:round;">
</g>
<g style="fill:#FFFFFF; fill-opacity:1.0; 
stroke:#FFFFFF; stroke-width:0; stroke-opacity:1; 
stroke-linecap:round; stroke-linejoin:round;">
<circle cx="25029.5" cy="26840.6" r="216.535" /> 
</g>
<g style="fill:#FFFFFF; fill-opacity:1.0; 
stroke:#FFFFFF; stroke-width:39.3701; stroke-opacity:1; 
stroke-linecap:round; stroke-linejoin:round;">
</g>
<g style="fill:#FFFFFF; fill-opacity:1.0; 
stroke:#FFFFFF; stroke-width:0; stroke-opacity:1; 
stroke-linecap:round; stroke-linejoin:round;">
<circle cx="26282.3" cy="28093.3" r="216.535" /> 
</g>
<g style="fill:#FFFFFF; fill-opacity:1.0; 
stroke:#FFFFFF; stroke-width:39.3701; stroke-opacity:1; 
stroke-linecap:round; stroke-linejoin:round;">
</g>
<g style="fill:#FFFFFF; fill-opacity:1.0; 
stroke:#FFFFFF; stroke-width:0; stroke-opacity:1; 
stroke-linecap:round; stroke-linejoin:round;">
<circle cx="19439" cy="20005.9" r="195" /> 
</g>
<g style="fill:#FFFFFF; fill-opacity:1.0; 
stroke:#FFFFFF; stroke-width:39.3701; stroke-opacity:1; 
stroke-linecap:round; stroke-linejoin:round;">
</g>
<g style="fill:#FFFFFF; fill-opacity:1.0; 
stroke:#FFFFFF; stroke-width:0; stroke-opacity:1; 
stroke-linecap:round; stroke-linejoin:round;">
<circle cx="19839" cy="18005.9" r="195" /> 
</g>
<g style="fill:#FFFFFF; fill-opacity:1.0; 
stroke:#FFFFFF; stroke-width:39.3701; stroke-opacity:1; 
stroke-linecap:round; stroke-linejoin:round;">
</g>
<g style="fill:#FFFFFF; fill-opacity:1.0; 
stroke:#FFFFFF; stroke-width:0; stroke-opacity:1; 
stroke-linecap:round; stroke-linejoin:round;">
<circle cx="19039" cy="18005.9" r="195" /> 
</g>
<g style="fill:#FFFFFF; fill-opacity:1.0; 
stroke:#FFFFFF; stroke-width:39.3701; stroke-opacity:1; 
stroke-linecap:round; stroke-linejoin:round;">
</g>
<g style="fill:#FFFFFF; fill-opacity:1.0; 
stroke:#FFFFFF; stroke-width:0; stroke-opacity:1; 
stroke-linecap:round; stroke-linejoin:round;">
<circle cx="28376" cy="15171.3" r="196.85" /> 
</g>
<g style="fill:#FFFFFF; fill-opacity:1.0; 
stroke:#FFFFFF; stroke-width:39.3701; stroke-opacity:1; 
stroke-linecap:round; stroke-linejoin:round;">
</g>
<g style="fill:#FFFFFF; fill-opacity:1.0; 
stroke:#FFFFFF; stroke-width:0; stroke-opacity:1; 
stroke-linecap:round; stroke-linejoin:round;">
<circle cx="28376" cy="16171.3" r="196.85" /> 
</g>
<g style="fill:#FFFFFF; fill-opacity:1.0; 
stroke:#FFFFFF; stroke-width:39.3701; stroke-opacity:1; 
stroke-linecap:round; stroke-linejoin:round;">
</g>
<g style="fill:#FFFFFF; fill-opacity:1.0; 
stroke:#FFFFFF; stroke-width:0; stroke-opacity:1; 
stroke-linecap:round; stroke-linejoin:round;">
<circle cx="9281.5" cy="16714.6" r="157.48" /> 
</g>
<g style="fill:#FFFFFF; fill-opacity:1.0; 
stroke:#FFFFFF; stroke-width:39.3701; stroke-opacity:1; 
stroke-linecap:round; stroke-linejoin:round;">
</g>
<g style="fill:#FFFFFF; fill-opacity:1.0; 
stroke:#FFFFFF; stroke-width:0; stroke-opacity:1; 
stroke-linecap:round; stroke-linejoin:round;">
<circle cx="9281.5" cy="14793.3" r="157.48" /> 
</g>
<g style="fill:#FFFFFF; fill-opacity:1.0; 
stroke:#FFFFFF; stroke-width:39.3701; stroke-opacity:1; 
stroke-linecap:round; stroke-linejoin:round;">
</g>
<g style="fill:#FFFFFF; fill-opacity:1.0; 
stroke:#FFFFFF; stroke-width:0; stroke-opacity:1; 
stroke-linecap:round; stroke-linejoin:round;">
<circle cx="15279.5" cy="9872.05" r="196.85" /> 
</g>
<g style="fill:#FFFFFF; fill-opacity:1.0; 
stroke:#FFFFFF; stroke-width:39.3701; stroke-opacity:1; 
stroke-linecap:round; stroke-linejoin:round;">
</g>
<g style="fill:#FFFFFF; fill-opacity:1.0; 
stroke:#FFFFFF; stroke-width:0; stroke-opacity:1; 
stroke-linecap:round; stroke-linejoin:round;">
<circle cx="16279.5" cy="9872.05" r="196.85" /> 
</g>
<g style="fill:#FFFFFF; fill-opacity:1.0; 
stroke:#FFFFFF; stroke-width:39.3701; stroke-opacity:1; 
stroke-linecap:round; stroke-linejoin:round;">
</g>
<g style="fill:#000000; fill-opacity:1.0; 
stroke:#000000; stroke-width:39.3701; stroke-opacity:1; 
stroke-linecap:round; stroke-linejoin:round;">
<g >
</g>
<g >
</g>
<g >
</g>
<g >
</g>
<g >
</g>
<g >
</g>
<g >
</g>
<g >
</g>
<g >
</g>
<g >
</g>
<g >
</g>
<g >
</g>
<g >
</g>
<g >
</g>
<g >
</g>
<g >
</g>
<g >
</g>
<g >
</g>
<g >
</g>
<g >
</g>
<g >
</g>
<g >
</g>
<g >
</g>
<g >
</g>
<g >
</g>
<g >
</g>
<g >
</g>
<g >
</g>
</g>
<g style="fill:#000000; fill-opacity:1.0; 
stroke:#000000; stroke-width:39.3701; stroke-opacity:1; 
stroke-linecap:round; stroke-linejoin:round;">
</g>
<g style="fill:#C2C200; fill-opacity:1.0; 
stroke:#C2C200; stroke-width:39.3701; stroke-opacity:1; 
stroke-linecap:round; stroke-linejoin:round;">
</g>
<g style="fill:#C2C200; fill-opacity:0.0; 
stroke:#C2C200; stroke-width:59.0551; stroke-opacity:1; 
stroke-linecap:round; stroke-linejoin:round;">
<path d="M4360.24 29.528 A4330.71 4330.71 0.0 0 0 29.528 4360.24 " />
<path d="M31525.6 4360.24 A4330.71 4330.71 0.0 0 0 27194.9 29.528 " />
<path d="M27194.9 31525.6 A4330.71 4330.71 0.0 0 0 31525.6 27194.9 " />
<path d="M29.528 27194.9 A4330.71 4330.71 0.0 0 0 4360.24 31525.6 " />
<path d="M27194 29
L4360 29
" />
<path d="M31525 27194
L31525 4360
" />
<path d="M4360 31525
L27194 31525
" />
<path d="M29 4360
L29 27194
" />
<g >
</g>
<g >
</g>
<g >
</g>
<g >
</g>
<g >
</g>
<g >
</g>
<g >
</g>
<g >
</g>
<g >
</g>
<g >
</g>
<g >
</g>
<g >
</g>
<g >
</g>
<g >
</g>
<g >
</g>
<g >
</g>
<g >
</g>
<g >
</g>
<g >
</g>
<g >
</g>
<g >
</g>
<g >
</g>
<g >
</g>
<g >
</g>
<g >
</g>
<g >
</g>
<g >
</g>
<g >
</g>
</g> 
</svg>
